G75*
%MOIN*%
%OFA0B0*%
%FSLAX24Y24*%
%IPPOS*%
%LPD*%
%AMOC8*
5,1,8,0,0,1.08239X$1,22.5*
%
%ADD10C,0.0060*%
%ADD11R,0.0200X0.0150*%
%ADD12R,0.0150X0.0200*%
%ADD13C,0.0080*%
%ADD14C,0.0050*%
%ADD15C,0.0340*%
%ADD16R,0.0700X0.0500*%
%ADD17R,0.0850X0.0300*%
%ADD18C,0.0020*%
%ADD19R,0.0250X0.0300*%
%ADD20R,0.1100X0.0500*%
%ADD21R,0.0710X0.0320*%
D10*
X003750Y011450D02*
X003750Y014550D01*
X007850Y014550D01*
X007850Y011450D01*
X003750Y011450D01*
X004472Y012800D02*
X004731Y012800D01*
X004731Y013200D02*
X004472Y013200D01*
X005820Y012233D02*
X005868Y012264D01*
X005914Y012299D01*
X005958Y012336D01*
X005999Y012377D01*
X006038Y012420D01*
X006074Y012465D01*
X006106Y012512D01*
X005925Y012697D01*
X005639Y012418D02*
X005820Y012233D01*
X006106Y013488D02*
X006074Y013535D01*
X006038Y013580D01*
X005999Y013623D01*
X005958Y013664D01*
X005914Y013701D01*
X005868Y013736D01*
X005820Y013767D01*
X005639Y013582D01*
X005925Y013303D02*
X006106Y013488D01*
X004700Y013000D02*
X004702Y013050D01*
X004708Y013100D01*
X004718Y013150D01*
X004731Y013198D01*
X004748Y013246D01*
X004769Y013292D01*
X004793Y013336D01*
X004821Y013378D01*
X004852Y013418D01*
X004886Y013455D01*
X004923Y013490D01*
X004962Y013521D01*
X005003Y013550D01*
X005047Y013575D01*
X005093Y013597D01*
X005140Y013615D01*
X005188Y013629D01*
X005237Y013640D01*
X005287Y013647D01*
X005337Y013650D01*
X005388Y013649D01*
X005438Y013644D01*
X005488Y013635D01*
X005536Y013623D01*
X005584Y013606D01*
X005630Y013586D01*
X005675Y013563D01*
X005718Y013536D01*
X005758Y013506D01*
X005796Y013473D01*
X005831Y013437D01*
X005864Y013398D01*
X005893Y013357D01*
X005919Y013314D01*
X005942Y013269D01*
X005961Y013222D01*
X005976Y013174D01*
X005988Y013125D01*
X005996Y013075D01*
X006000Y013025D01*
X006000Y012975D01*
X005996Y012925D01*
X005988Y012875D01*
X005976Y012826D01*
X005961Y012778D01*
X005942Y012731D01*
X005919Y012686D01*
X005893Y012643D01*
X005864Y012602D01*
X005831Y012563D01*
X005796Y012527D01*
X005758Y012494D01*
X005718Y012464D01*
X005675Y012437D01*
X005630Y012414D01*
X005584Y012394D01*
X005536Y012377D01*
X005488Y012365D01*
X005438Y012356D01*
X005388Y012351D01*
X005337Y012350D01*
X005287Y012353D01*
X005237Y012360D01*
X005188Y012371D01*
X005140Y012385D01*
X005093Y012403D01*
X005047Y012425D01*
X005003Y012450D01*
X004962Y012479D01*
X004923Y012510D01*
X004886Y012545D01*
X004852Y012582D01*
X004821Y012622D01*
X004793Y012664D01*
X004769Y012708D01*
X004748Y012754D01*
X004731Y012802D01*
X004718Y012850D01*
X004708Y012900D01*
X004702Y012950D01*
X004700Y013000D01*
X004473Y013200D02*
X004462Y013143D01*
X004454Y013086D01*
X004450Y013029D01*
X004450Y012971D01*
X004454Y012914D01*
X004462Y012857D01*
X004473Y012800D01*
X010950Y016100D02*
X010950Y016250D01*
X011000Y016300D01*
X011000Y017700D01*
X010950Y017750D01*
X010950Y017900D01*
X010952Y017917D01*
X010956Y017934D01*
X010963Y017950D01*
X010973Y017964D01*
X010986Y017977D01*
X011000Y017987D01*
X011016Y017994D01*
X011033Y017998D01*
X011050Y018000D01*
X011650Y018000D01*
X011667Y017998D01*
X011684Y017994D01*
X011700Y017987D01*
X011714Y017977D01*
X011727Y017964D01*
X011737Y017950D01*
X011744Y017934D01*
X011748Y017917D01*
X011750Y017900D01*
X011750Y017750D01*
X011700Y017700D01*
X011700Y016300D01*
X011750Y016250D01*
X011750Y016100D01*
X011748Y016083D01*
X011744Y016066D01*
X011737Y016050D01*
X011727Y016036D01*
X011714Y016023D01*
X011700Y016013D01*
X011684Y016006D01*
X011667Y016002D01*
X011650Y016000D01*
X011050Y016000D01*
X011033Y016002D01*
X011016Y016006D01*
X011000Y016013D01*
X010986Y016023D01*
X010973Y016036D01*
X010963Y016050D01*
X010956Y016066D01*
X010952Y016083D01*
X010950Y016100D01*
X015350Y020200D02*
X015350Y020800D01*
X015352Y020817D01*
X015356Y020834D01*
X015363Y020850D01*
X015373Y020864D01*
X015386Y020877D01*
X015400Y020887D01*
X015416Y020894D01*
X015433Y020898D01*
X015450Y020900D01*
X015600Y020900D01*
X015650Y020850D01*
X017050Y020850D01*
X017100Y020900D01*
X017250Y020900D01*
X017267Y020898D01*
X017284Y020894D01*
X017300Y020887D01*
X017314Y020877D01*
X017327Y020864D01*
X017337Y020850D01*
X017344Y020834D01*
X017348Y020817D01*
X017350Y020800D01*
X017350Y020200D01*
X017348Y020183D01*
X017344Y020166D01*
X017337Y020150D01*
X017327Y020136D01*
X017314Y020123D01*
X017300Y020113D01*
X017284Y020106D01*
X017267Y020102D01*
X017250Y020100D01*
X017100Y020100D01*
X017050Y020150D01*
X015650Y020150D01*
X015600Y020100D01*
X015450Y020100D01*
X015433Y020102D01*
X015416Y020106D01*
X015400Y020113D01*
X015386Y020123D01*
X015373Y020136D01*
X015363Y020150D01*
X015356Y020166D01*
X015352Y020183D01*
X015350Y020200D01*
X015450Y021100D02*
X015600Y021100D01*
X015650Y021150D01*
X017050Y021150D01*
X017100Y021100D01*
X017250Y021100D01*
X017267Y021102D01*
X017284Y021106D01*
X017300Y021113D01*
X017314Y021123D01*
X017327Y021136D01*
X017337Y021150D01*
X017344Y021166D01*
X017348Y021183D01*
X017350Y021200D01*
X017350Y021800D01*
X017348Y021817D01*
X017344Y021834D01*
X017337Y021850D01*
X017327Y021864D01*
X017314Y021877D01*
X017300Y021887D01*
X017284Y021894D01*
X017267Y021898D01*
X017250Y021900D01*
X017100Y021900D01*
X017050Y021850D01*
X015650Y021850D01*
X015600Y021900D01*
X015450Y021900D01*
X015433Y021898D01*
X015416Y021894D01*
X015400Y021887D01*
X015386Y021877D01*
X015373Y021864D01*
X015363Y021850D01*
X015356Y021834D01*
X015352Y021817D01*
X015350Y021800D01*
X015350Y021200D01*
X015352Y021183D01*
X015356Y021166D01*
X015363Y021150D01*
X015373Y021136D01*
X015386Y021123D01*
X015400Y021113D01*
X015416Y021106D01*
X015433Y021102D01*
X015450Y021100D01*
X011150Y025750D02*
X010550Y025750D01*
X010533Y025752D01*
X010516Y025756D01*
X010500Y025763D01*
X010486Y025773D01*
X010473Y025786D01*
X010463Y025800D01*
X010456Y025816D01*
X010452Y025833D01*
X010450Y025850D01*
X010450Y026000D01*
X010500Y026050D01*
X010500Y027450D01*
X010450Y027500D01*
X010450Y027650D01*
X010452Y027667D01*
X010456Y027684D01*
X010463Y027700D01*
X010473Y027714D01*
X010486Y027727D01*
X010500Y027737D01*
X010516Y027744D01*
X010533Y027748D01*
X010550Y027750D01*
X011150Y027750D01*
X011167Y027748D01*
X011184Y027744D01*
X011200Y027737D01*
X011214Y027727D01*
X011227Y027714D01*
X011237Y027700D01*
X011244Y027684D01*
X011248Y027667D01*
X011250Y027650D01*
X011250Y027500D01*
X011200Y027450D01*
X011200Y026050D01*
X011250Y026000D01*
X011250Y025850D01*
X011248Y025833D01*
X011244Y025816D01*
X011237Y025800D01*
X011227Y025786D01*
X011214Y025773D01*
X011200Y025763D01*
X011184Y025756D01*
X011167Y025752D01*
X011150Y025750D01*
X014850Y028200D02*
X014850Y028800D01*
X014852Y028817D01*
X014856Y028834D01*
X014863Y028850D01*
X014873Y028864D01*
X014886Y028877D01*
X014900Y028887D01*
X014916Y028894D01*
X014933Y028898D01*
X014950Y028900D01*
X015100Y028900D01*
X015150Y028850D01*
X016550Y028850D01*
X016600Y028900D01*
X016750Y028900D01*
X016767Y028898D01*
X016784Y028894D01*
X016800Y028887D01*
X016814Y028877D01*
X016827Y028864D01*
X016837Y028850D01*
X016844Y028834D01*
X016848Y028817D01*
X016850Y028800D01*
X016850Y028200D01*
X016848Y028183D01*
X016844Y028166D01*
X016837Y028150D01*
X016827Y028136D01*
X016814Y028123D01*
X016800Y028113D01*
X016784Y028106D01*
X016767Y028102D01*
X016750Y028100D01*
X016600Y028100D01*
X016550Y028150D01*
X015150Y028150D01*
X015100Y028100D01*
X014950Y028100D01*
X014933Y028102D01*
X014916Y028106D01*
X014900Y028113D01*
X014886Y028123D01*
X014873Y028136D01*
X014863Y028150D01*
X014856Y028166D01*
X014852Y028183D01*
X014850Y028200D01*
X014950Y029600D02*
X015100Y029600D01*
X015150Y029650D01*
X016550Y029650D01*
X016600Y029600D01*
X016750Y029600D01*
X016767Y029602D01*
X016784Y029606D01*
X016800Y029613D01*
X016814Y029623D01*
X016827Y029636D01*
X016837Y029650D01*
X016844Y029666D01*
X016848Y029683D01*
X016850Y029700D01*
X016850Y030300D01*
X016848Y030317D01*
X016844Y030334D01*
X016837Y030350D01*
X016827Y030364D01*
X016814Y030377D01*
X016800Y030387D01*
X016784Y030394D01*
X016767Y030398D01*
X016750Y030400D01*
X016600Y030400D01*
X016550Y030350D01*
X015150Y030350D01*
X015100Y030400D01*
X014950Y030400D01*
X014933Y030398D01*
X014916Y030394D01*
X014900Y030387D01*
X014886Y030377D01*
X014873Y030364D01*
X014863Y030350D01*
X014856Y030334D01*
X014852Y030317D01*
X014850Y030300D01*
X014850Y029700D01*
X014852Y029683D01*
X014856Y029666D01*
X014863Y029650D01*
X014873Y029636D01*
X014886Y029623D01*
X014900Y029613D01*
X014916Y029606D01*
X014933Y029602D01*
X014950Y029600D01*
X027350Y029700D02*
X027350Y030300D01*
X027352Y030317D01*
X027356Y030334D01*
X027363Y030350D01*
X027373Y030364D01*
X027386Y030377D01*
X027400Y030387D01*
X027416Y030394D01*
X027433Y030398D01*
X027450Y030400D01*
X027600Y030400D01*
X027650Y030350D01*
X029050Y030350D01*
X029100Y030400D01*
X029250Y030400D01*
X029267Y030398D01*
X029284Y030394D01*
X029300Y030387D01*
X029314Y030377D01*
X029327Y030364D01*
X029337Y030350D01*
X029344Y030334D01*
X029348Y030317D01*
X029350Y030300D01*
X029350Y029700D01*
X029348Y029683D01*
X029344Y029666D01*
X029337Y029650D01*
X029327Y029636D01*
X029314Y029623D01*
X029300Y029613D01*
X029284Y029606D01*
X029267Y029602D01*
X029250Y029600D01*
X029100Y029600D01*
X029050Y029650D01*
X027650Y029650D01*
X027600Y029600D01*
X027450Y029600D01*
X027433Y029602D01*
X027416Y029606D01*
X027400Y029613D01*
X027386Y029623D01*
X027373Y029636D01*
X027363Y029650D01*
X027356Y029666D01*
X027352Y029683D01*
X027350Y029700D01*
X028350Y026650D02*
X028350Y025900D01*
X028389Y025898D01*
X028428Y025892D01*
X028466Y025883D01*
X028503Y025870D01*
X028539Y025853D01*
X028572Y025833D01*
X028604Y025809D01*
X028633Y025783D01*
X028659Y025754D01*
X028683Y025722D01*
X028703Y025689D01*
X028720Y025653D01*
X028733Y025616D01*
X028742Y025578D01*
X028748Y025539D01*
X028750Y025500D01*
X028748Y025461D01*
X028742Y025422D01*
X028733Y025384D01*
X028720Y025347D01*
X028703Y025311D01*
X028683Y025278D01*
X028659Y025246D01*
X028633Y025217D01*
X028604Y025191D01*
X028572Y025167D01*
X028539Y025147D01*
X028503Y025130D01*
X028466Y025117D01*
X028428Y025108D01*
X028389Y025102D01*
X028350Y025100D01*
X028350Y024350D01*
X032350Y024350D01*
X032350Y026650D01*
X028350Y026650D01*
X027600Y023400D02*
X027450Y023400D01*
X027433Y023398D01*
X027416Y023394D01*
X027400Y023387D01*
X027386Y023377D01*
X027373Y023364D01*
X027363Y023350D01*
X027356Y023334D01*
X027352Y023317D01*
X027350Y023300D01*
X027350Y022700D01*
X027352Y022683D01*
X027356Y022666D01*
X027363Y022650D01*
X027373Y022636D01*
X027386Y022623D01*
X027400Y022613D01*
X027416Y022606D01*
X027433Y022602D01*
X027450Y022600D01*
X027600Y022600D01*
X027650Y022650D01*
X029050Y022650D01*
X029100Y022600D01*
X029250Y022600D01*
X029267Y022602D01*
X029284Y022606D01*
X029300Y022613D01*
X029314Y022623D01*
X029327Y022636D01*
X029337Y022650D01*
X029344Y022666D01*
X029348Y022683D01*
X029350Y022700D01*
X029350Y023300D01*
X029348Y023317D01*
X029344Y023334D01*
X029337Y023350D01*
X029327Y023364D01*
X029314Y023377D01*
X029300Y023387D01*
X029284Y023394D01*
X029267Y023398D01*
X029250Y023400D01*
X029100Y023400D01*
X029050Y023350D01*
X027650Y023350D01*
X027600Y023400D01*
X027600Y021900D02*
X027650Y021850D01*
X029050Y021850D01*
X029100Y021900D01*
X029250Y021900D01*
X029267Y021898D01*
X029284Y021894D01*
X029300Y021887D01*
X029314Y021877D01*
X029327Y021864D01*
X029337Y021850D01*
X029344Y021834D01*
X029348Y021817D01*
X029350Y021800D01*
X029350Y021200D01*
X029348Y021183D01*
X029344Y021166D01*
X029337Y021150D01*
X029327Y021136D01*
X029314Y021123D01*
X029300Y021113D01*
X029284Y021106D01*
X029267Y021102D01*
X029250Y021100D01*
X029100Y021100D01*
X029050Y021150D01*
X027650Y021150D01*
X027600Y021100D01*
X027450Y021100D01*
X027433Y021102D01*
X027416Y021106D01*
X027400Y021113D01*
X027386Y021123D01*
X027373Y021136D01*
X027363Y021150D01*
X027356Y021166D01*
X027352Y021183D01*
X027350Y021200D01*
X027350Y021800D01*
X027352Y021817D01*
X027356Y021834D01*
X027363Y021850D01*
X027373Y021864D01*
X027386Y021877D01*
X027400Y021887D01*
X027416Y021894D01*
X027433Y021898D01*
X027450Y021900D01*
X027600Y021900D01*
X027600Y020900D02*
X027650Y020850D01*
X029050Y020850D01*
X029100Y020900D01*
X029250Y020900D01*
X029267Y020898D01*
X029284Y020894D01*
X029300Y020887D01*
X029314Y020877D01*
X029327Y020864D01*
X029337Y020850D01*
X029344Y020834D01*
X029348Y020817D01*
X029350Y020800D01*
X029350Y020200D01*
X029348Y020183D01*
X029344Y020166D01*
X029337Y020150D01*
X029327Y020136D01*
X029314Y020123D01*
X029300Y020113D01*
X029284Y020106D01*
X029267Y020102D01*
X029250Y020100D01*
X029100Y020100D01*
X029050Y020150D01*
X027650Y020150D01*
X027600Y020100D01*
X027450Y020100D01*
X027433Y020102D01*
X027416Y020106D01*
X027400Y020113D01*
X027386Y020123D01*
X027373Y020136D01*
X027363Y020150D01*
X027356Y020166D01*
X027352Y020183D01*
X027350Y020200D01*
X027350Y020800D01*
X027352Y020817D01*
X027356Y020834D01*
X027363Y020850D01*
X027373Y020864D01*
X027386Y020877D01*
X027400Y020887D01*
X027416Y020894D01*
X027433Y020898D01*
X027450Y020900D01*
X027600Y020900D01*
X030450Y019900D02*
X030450Y019750D01*
X030500Y019700D01*
X030500Y018300D01*
X030450Y018250D01*
X030450Y018100D01*
X030452Y018083D01*
X030456Y018066D01*
X030463Y018050D01*
X030473Y018036D01*
X030486Y018023D01*
X030500Y018013D01*
X030516Y018006D01*
X030533Y018002D01*
X030550Y018000D01*
X031150Y018000D01*
X031167Y018002D01*
X031184Y018006D01*
X031200Y018013D01*
X031214Y018023D01*
X031227Y018036D01*
X031237Y018050D01*
X031244Y018066D01*
X031248Y018083D01*
X031250Y018100D01*
X031250Y018250D01*
X031200Y018300D01*
X031200Y019700D01*
X031250Y019750D01*
X031250Y019900D01*
X031248Y019917D01*
X031244Y019934D01*
X031237Y019950D01*
X031227Y019964D01*
X031214Y019977D01*
X031200Y019987D01*
X031184Y019994D01*
X031167Y019998D01*
X031150Y020000D01*
X030550Y020000D01*
X030533Y019998D01*
X030516Y019994D01*
X030500Y019987D01*
X030486Y019977D01*
X030473Y019964D01*
X030463Y019950D01*
X030456Y019934D01*
X030452Y019917D01*
X030450Y019900D01*
X033950Y013900D02*
X034100Y013900D01*
X034150Y013850D01*
X035550Y013850D01*
X035600Y013900D01*
X035750Y013900D01*
X035767Y013898D01*
X035784Y013894D01*
X035800Y013887D01*
X035814Y013877D01*
X035827Y013864D01*
X035837Y013850D01*
X035844Y013834D01*
X035848Y013817D01*
X035850Y013800D01*
X035850Y013200D01*
X035848Y013183D01*
X035844Y013166D01*
X035837Y013150D01*
X035827Y013136D01*
X035814Y013123D01*
X035800Y013113D01*
X035784Y013106D01*
X035767Y013102D01*
X035750Y013100D01*
X035600Y013100D01*
X035550Y013150D01*
X034150Y013150D01*
X034100Y013100D01*
X033950Y013100D01*
X033933Y013102D01*
X033916Y013106D01*
X033900Y013113D01*
X033886Y013123D01*
X033873Y013136D01*
X033863Y013150D01*
X033856Y013166D01*
X033852Y013183D01*
X033850Y013200D01*
X033850Y013800D01*
X033852Y013817D01*
X033856Y013834D01*
X033863Y013850D01*
X033873Y013864D01*
X033886Y013877D01*
X033900Y013887D01*
X033916Y013894D01*
X033933Y013898D01*
X033950Y013900D01*
X033950Y009150D02*
X034100Y009150D01*
X034150Y009100D01*
X035550Y009100D01*
X035600Y009150D01*
X035750Y009150D01*
X035767Y009148D01*
X035784Y009144D01*
X035800Y009137D01*
X035814Y009127D01*
X035827Y009114D01*
X035837Y009100D01*
X035844Y009084D01*
X035848Y009067D01*
X035850Y009050D01*
X035850Y008450D01*
X035848Y008433D01*
X035844Y008416D01*
X035837Y008400D01*
X035827Y008386D01*
X035814Y008373D01*
X035800Y008363D01*
X035784Y008356D01*
X035767Y008352D01*
X035750Y008350D01*
X035600Y008350D01*
X035550Y008400D01*
X034150Y008400D01*
X034100Y008350D01*
X033950Y008350D01*
X033933Y008352D01*
X033916Y008356D01*
X033900Y008363D01*
X033886Y008373D01*
X033873Y008386D01*
X033863Y008400D01*
X033856Y008416D01*
X033852Y008433D01*
X033850Y008450D01*
X033850Y009050D01*
X033852Y009067D01*
X033856Y009084D01*
X033863Y009100D01*
X033873Y009114D01*
X033886Y009127D01*
X033900Y009137D01*
X033916Y009144D01*
X033933Y009148D01*
X033950Y009150D01*
X027350Y008800D02*
X027350Y008200D01*
X027348Y008183D01*
X027344Y008166D01*
X027337Y008150D01*
X027327Y008136D01*
X027314Y008123D01*
X027300Y008113D01*
X027284Y008106D01*
X027267Y008102D01*
X027250Y008100D01*
X027100Y008100D01*
X027050Y008150D01*
X025650Y008150D01*
X025600Y008100D01*
X025450Y008100D01*
X025433Y008102D01*
X025416Y008106D01*
X025400Y008113D01*
X025386Y008123D01*
X025373Y008136D01*
X025363Y008150D01*
X025356Y008166D01*
X025352Y008183D01*
X025350Y008200D01*
X025350Y008800D01*
X025352Y008817D01*
X025356Y008834D01*
X025363Y008850D01*
X025373Y008864D01*
X025386Y008877D01*
X025400Y008887D01*
X025416Y008894D01*
X025433Y008898D01*
X025450Y008900D01*
X025600Y008900D01*
X025650Y008850D01*
X027050Y008850D01*
X027100Y008900D01*
X027250Y008900D01*
X027267Y008898D01*
X027284Y008894D01*
X027300Y008887D01*
X027314Y008877D01*
X027327Y008864D01*
X027337Y008850D01*
X027344Y008834D01*
X027348Y008817D01*
X027350Y008800D01*
X026550Y010000D02*
X026200Y010000D01*
X026100Y010100D01*
X020600Y010100D01*
X020500Y010000D01*
X020150Y010000D01*
X020127Y010002D01*
X020104Y010007D01*
X020082Y010016D01*
X020062Y010029D01*
X020044Y010044D01*
X020029Y010062D01*
X020016Y010082D01*
X020007Y010104D01*
X020002Y010127D01*
X020000Y010150D01*
X020000Y012850D01*
X020002Y012873D01*
X020007Y012896D01*
X020016Y012918D01*
X020029Y012938D01*
X020044Y012956D01*
X020062Y012971D01*
X020082Y012984D01*
X020104Y012993D01*
X020127Y012998D01*
X020150Y013000D01*
X020500Y013000D01*
X020600Y012900D01*
X026100Y012900D01*
X026200Y013000D01*
X026550Y013000D01*
X026573Y012998D01*
X026596Y012993D01*
X026618Y012984D01*
X026638Y012971D01*
X026656Y012956D01*
X026671Y012938D01*
X026684Y012918D01*
X026693Y012896D01*
X026698Y012873D01*
X026700Y012850D01*
X026700Y010150D01*
X026698Y010127D01*
X026693Y010104D01*
X026684Y010082D01*
X026671Y010062D01*
X026656Y010044D01*
X026638Y010029D01*
X026618Y010016D01*
X026596Y010007D01*
X026573Y010002D01*
X026550Y010000D01*
X012750Y009900D02*
X012750Y009750D01*
X012700Y009700D01*
X012700Y008300D01*
X012750Y008250D01*
X012750Y008100D01*
X012748Y008083D01*
X012744Y008066D01*
X012737Y008050D01*
X012727Y008036D01*
X012714Y008023D01*
X012700Y008013D01*
X012684Y008006D01*
X012667Y008002D01*
X012650Y008000D01*
X012050Y008000D01*
X012033Y008002D01*
X012016Y008006D01*
X012000Y008013D01*
X011986Y008023D01*
X011973Y008036D01*
X011963Y008050D01*
X011956Y008066D01*
X011952Y008083D01*
X011950Y008100D01*
X011950Y008250D01*
X012000Y008300D01*
X012000Y009700D01*
X011950Y009750D01*
X011950Y009900D01*
X011952Y009917D01*
X011956Y009934D01*
X011963Y009950D01*
X011973Y009964D01*
X011986Y009977D01*
X012000Y009987D01*
X012016Y009994D01*
X012033Y009998D01*
X012050Y010000D01*
X012650Y010000D01*
X012667Y009998D01*
X012684Y009994D01*
X012700Y009987D01*
X012714Y009977D01*
X012727Y009964D01*
X012737Y009950D01*
X012744Y009934D01*
X012748Y009917D01*
X012750Y009900D01*
X031950Y029100D02*
X031950Y029250D01*
X032000Y029300D01*
X032000Y030700D01*
X031950Y030750D01*
X031950Y030900D01*
X031952Y030917D01*
X031956Y030934D01*
X031963Y030950D01*
X031973Y030964D01*
X031986Y030977D01*
X032000Y030987D01*
X032016Y030994D01*
X032033Y030998D01*
X032050Y031000D01*
X032650Y031000D01*
X032667Y030998D01*
X032684Y030994D01*
X032700Y030987D01*
X032714Y030977D01*
X032727Y030964D01*
X032737Y030950D01*
X032744Y030934D01*
X032748Y030917D01*
X032750Y030900D01*
X032750Y030750D01*
X032700Y030700D01*
X032700Y029300D01*
X032750Y029250D01*
X032750Y029100D01*
X032748Y029083D01*
X032744Y029066D01*
X032737Y029050D01*
X032727Y029036D01*
X032714Y029023D01*
X032700Y029013D01*
X032684Y029006D01*
X032667Y029002D01*
X032650Y029000D01*
X032050Y029000D01*
X032033Y029002D01*
X032016Y029006D01*
X032000Y029013D01*
X031986Y029023D01*
X031973Y029036D01*
X031963Y029050D01*
X031956Y029066D01*
X031952Y029083D01*
X031950Y029100D01*
D11*
X032350Y028925D03*
X032350Y031075D03*
X030850Y020075D03*
X030850Y017925D03*
X012350Y010075D03*
X012350Y007925D03*
X011350Y015925D03*
X011350Y018075D03*
X010850Y025675D03*
X010850Y027825D03*
D12*
X014775Y028500D03*
X014775Y030000D03*
X016925Y030000D03*
X016925Y028500D03*
X017425Y021500D03*
X017425Y020500D03*
X015275Y020500D03*
X015275Y021500D03*
X027275Y021500D03*
X027275Y020500D03*
X029425Y020500D03*
X029425Y021500D03*
X029425Y023000D03*
X027275Y023000D03*
X027275Y030000D03*
X029425Y030000D03*
X033775Y013500D03*
X035925Y013500D03*
X035925Y008750D03*
X033775Y008750D03*
X027425Y008500D03*
X025275Y008500D03*
D13*
X018122Y016850D02*
X014578Y016850D01*
X014578Y018150D01*
X018122Y018150D01*
X018122Y016850D01*
X015100Y015250D02*
X015100Y014750D01*
X011200Y013500D02*
X011202Y013612D01*
X011208Y013723D01*
X011218Y013835D01*
X011232Y013946D01*
X011249Y014056D01*
X011271Y014166D01*
X011297Y014275D01*
X011326Y014383D01*
X011359Y014489D01*
X011396Y014595D01*
X011437Y014699D01*
X011482Y014802D01*
X011530Y014903D01*
X011581Y015002D01*
X011636Y015099D01*
X011695Y015194D01*
X011756Y015288D01*
X011821Y015379D01*
X011890Y015467D01*
X011961Y015553D01*
X012035Y015637D01*
X012113Y015717D01*
X012193Y015795D01*
X012276Y015871D01*
X012361Y015943D01*
X012449Y016012D01*
X012539Y016078D01*
X012632Y016140D01*
X012727Y016200D01*
X012824Y016256D01*
X012922Y016308D01*
X013023Y016357D01*
X013125Y016402D01*
X013229Y016444D01*
X013334Y016482D01*
X013441Y016516D01*
X013548Y016546D01*
X013657Y016573D01*
X013766Y016595D01*
X013877Y016614D01*
X013987Y016629D01*
X014099Y016640D01*
X014210Y016647D01*
X014322Y016650D01*
X014434Y016649D01*
X014546Y016644D01*
X014657Y016635D01*
X014768Y016622D01*
X014879Y016605D01*
X014989Y016585D01*
X015098Y016560D01*
X015206Y016532D01*
X015313Y016499D01*
X015419Y016463D01*
X015523Y016423D01*
X015626Y016380D01*
X015728Y016333D01*
X015827Y016282D01*
X015925Y016228D01*
X016021Y016170D01*
X016115Y016109D01*
X016206Y016045D01*
X016295Y015978D01*
X016382Y015907D01*
X016466Y015833D01*
X016548Y015757D01*
X016626Y015677D01*
X016702Y015595D01*
X016775Y015510D01*
X016845Y015423D01*
X016911Y015333D01*
X016975Y015241D01*
X017035Y015147D01*
X017092Y015051D01*
X017145Y014952D01*
X017195Y014852D01*
X017241Y014751D01*
X017284Y014647D01*
X017323Y014542D01*
X017358Y014436D01*
X017389Y014329D01*
X017417Y014220D01*
X017440Y014111D01*
X017460Y014001D01*
X017476Y013890D01*
X017488Y013779D01*
X017496Y013668D01*
X017500Y013556D01*
X017500Y013444D01*
X017496Y013332D01*
X017488Y013221D01*
X017476Y013110D01*
X017460Y012999D01*
X017440Y012889D01*
X017417Y012780D01*
X017389Y012671D01*
X017358Y012564D01*
X017323Y012458D01*
X017284Y012353D01*
X017241Y012249D01*
X017195Y012148D01*
X017145Y012048D01*
X017092Y011949D01*
X017035Y011853D01*
X016975Y011759D01*
X016911Y011667D01*
X016845Y011577D01*
X016775Y011490D01*
X016702Y011405D01*
X016626Y011323D01*
X016548Y011243D01*
X016466Y011167D01*
X016382Y011093D01*
X016295Y011022D01*
X016206Y010955D01*
X016115Y010891D01*
X016021Y010830D01*
X015925Y010772D01*
X015827Y010718D01*
X015728Y010667D01*
X015626Y010620D01*
X015523Y010577D01*
X015419Y010537D01*
X015313Y010501D01*
X015206Y010468D01*
X015098Y010440D01*
X014989Y010415D01*
X014879Y010395D01*
X014768Y010378D01*
X014657Y010365D01*
X014546Y010356D01*
X014434Y010351D01*
X014322Y010350D01*
X014210Y010353D01*
X014099Y010360D01*
X013987Y010371D01*
X013877Y010386D01*
X013766Y010405D01*
X013657Y010427D01*
X013548Y010454D01*
X013441Y010484D01*
X013334Y010518D01*
X013229Y010556D01*
X013125Y010598D01*
X013023Y010643D01*
X012922Y010692D01*
X012824Y010744D01*
X012727Y010800D01*
X012632Y010860D01*
X012539Y010922D01*
X012449Y010988D01*
X012361Y011057D01*
X012276Y011129D01*
X012193Y011205D01*
X012113Y011283D01*
X012035Y011363D01*
X011961Y011447D01*
X011890Y011533D01*
X011821Y011621D01*
X011756Y011712D01*
X011695Y011806D01*
X011636Y011901D01*
X011581Y011998D01*
X011530Y012097D01*
X011482Y012198D01*
X011437Y012301D01*
X011396Y012405D01*
X011359Y012511D01*
X011326Y012617D01*
X011297Y012725D01*
X011271Y012834D01*
X011249Y012944D01*
X011232Y013054D01*
X011218Y013165D01*
X011208Y013277D01*
X011202Y013388D01*
X011200Y013500D01*
X007550Y016450D02*
X007150Y016450D01*
X005866Y017000D02*
X005868Y017062D01*
X005874Y017125D01*
X005884Y017186D01*
X005898Y017247D01*
X005915Y017307D01*
X005936Y017366D01*
X005962Y017423D01*
X005990Y017478D01*
X006022Y017532D01*
X006058Y017583D01*
X006096Y017633D01*
X006138Y017679D01*
X006182Y017723D01*
X006230Y017764D01*
X006279Y017802D01*
X006331Y017836D01*
X006385Y017867D01*
X006441Y017895D01*
X006499Y017919D01*
X006558Y017940D01*
X006618Y017956D01*
X006679Y017969D01*
X006741Y017978D01*
X006803Y017983D01*
X006866Y017984D01*
X006928Y017981D01*
X006990Y017974D01*
X007052Y017963D01*
X007112Y017948D01*
X007172Y017930D01*
X007230Y017908D01*
X007287Y017882D01*
X007342Y017852D01*
X007395Y017819D01*
X007446Y017783D01*
X007494Y017744D01*
X007540Y017701D01*
X007583Y017656D01*
X007623Y017608D01*
X007660Y017558D01*
X007694Y017505D01*
X007725Y017451D01*
X007751Y017395D01*
X007775Y017337D01*
X007794Y017277D01*
X007810Y017217D01*
X007822Y017155D01*
X007830Y017094D01*
X007834Y017031D01*
X007834Y016969D01*
X007830Y016906D01*
X007822Y016845D01*
X007810Y016783D01*
X007794Y016723D01*
X007775Y016663D01*
X007751Y016605D01*
X007725Y016549D01*
X007694Y016495D01*
X007660Y016442D01*
X007623Y016392D01*
X007583Y016344D01*
X007540Y016299D01*
X007494Y016256D01*
X007446Y016217D01*
X007395Y016181D01*
X007342Y016148D01*
X007287Y016118D01*
X007230Y016092D01*
X007172Y016070D01*
X007112Y016052D01*
X007052Y016037D01*
X006990Y016026D01*
X006928Y016019D01*
X006866Y016016D01*
X006803Y016017D01*
X006741Y016022D01*
X006679Y016031D01*
X006618Y016044D01*
X006558Y016060D01*
X006499Y016081D01*
X006441Y016105D01*
X006385Y016133D01*
X006331Y016164D01*
X006279Y016198D01*
X006230Y016236D01*
X006182Y016277D01*
X006138Y016321D01*
X006096Y016367D01*
X006058Y016417D01*
X006022Y016468D01*
X005990Y016522D01*
X005962Y016577D01*
X005936Y016634D01*
X005915Y016693D01*
X005898Y016753D01*
X005884Y016814D01*
X005874Y016875D01*
X005868Y016938D01*
X005866Y017000D01*
X013350Y019000D02*
X014350Y019000D01*
X014350Y021000D01*
X013350Y021000D01*
X013350Y019000D01*
X013600Y020000D02*
X014100Y020000D01*
X012578Y026350D02*
X012578Y027650D01*
X016122Y027650D01*
X016122Y026350D01*
X012578Y026350D01*
X012850Y028500D02*
X013850Y028500D01*
X013850Y030500D01*
X012850Y030500D01*
X012850Y028500D01*
X013100Y029500D02*
X013600Y029500D01*
X005366Y030500D02*
X005368Y030562D01*
X005374Y030625D01*
X005384Y030686D01*
X005398Y030747D01*
X005415Y030807D01*
X005436Y030866D01*
X005462Y030923D01*
X005490Y030978D01*
X005522Y031032D01*
X005558Y031083D01*
X005596Y031133D01*
X005638Y031179D01*
X005682Y031223D01*
X005730Y031264D01*
X005779Y031302D01*
X005831Y031336D01*
X005885Y031367D01*
X005941Y031395D01*
X005999Y031419D01*
X006058Y031440D01*
X006118Y031456D01*
X006179Y031469D01*
X006241Y031478D01*
X006303Y031483D01*
X006366Y031484D01*
X006428Y031481D01*
X006490Y031474D01*
X006552Y031463D01*
X006612Y031448D01*
X006672Y031430D01*
X006730Y031408D01*
X006787Y031382D01*
X006842Y031352D01*
X006895Y031319D01*
X006946Y031283D01*
X006994Y031244D01*
X007040Y031201D01*
X007083Y031156D01*
X007123Y031108D01*
X007160Y031058D01*
X007194Y031005D01*
X007225Y030951D01*
X007251Y030895D01*
X007275Y030837D01*
X007294Y030777D01*
X007310Y030717D01*
X007322Y030655D01*
X007330Y030594D01*
X007334Y030531D01*
X007334Y030469D01*
X007330Y030406D01*
X007322Y030345D01*
X007310Y030283D01*
X007294Y030223D01*
X007275Y030163D01*
X007251Y030105D01*
X007225Y030049D01*
X007194Y029995D01*
X007160Y029942D01*
X007123Y029892D01*
X007083Y029844D01*
X007040Y029799D01*
X006994Y029756D01*
X006946Y029717D01*
X006895Y029681D01*
X006842Y029648D01*
X006787Y029618D01*
X006730Y029592D01*
X006672Y029570D01*
X006612Y029552D01*
X006552Y029537D01*
X006490Y029526D01*
X006428Y029519D01*
X006366Y029516D01*
X006303Y029517D01*
X006241Y029522D01*
X006179Y029531D01*
X006118Y029544D01*
X006058Y029560D01*
X005999Y029581D01*
X005941Y029605D01*
X005885Y029633D01*
X005831Y029664D01*
X005779Y029698D01*
X005730Y029736D01*
X005682Y029777D01*
X005638Y029821D01*
X005596Y029867D01*
X005558Y029917D01*
X005522Y029968D01*
X005490Y030022D01*
X005462Y030077D01*
X005436Y030134D01*
X005415Y030193D01*
X005398Y030253D01*
X005384Y030314D01*
X005374Y030375D01*
X005368Y030438D01*
X005366Y030500D01*
X005800Y030200D02*
X005800Y029800D01*
X021878Y024740D02*
X021878Y022260D01*
X022822Y022260D01*
X022822Y024740D01*
X021878Y024740D01*
X026350Y025500D02*
X026350Y023500D01*
X027350Y023500D01*
X027350Y025500D01*
X026350Y025500D01*
X026600Y024500D02*
X027100Y024500D01*
X030850Y027250D02*
X030850Y028250D01*
X032850Y028250D01*
X032850Y027250D01*
X030850Y027250D01*
X031850Y027500D02*
X031850Y028000D01*
X029100Y030250D02*
X028600Y030250D01*
X024200Y031000D02*
X024202Y031112D01*
X024208Y031223D01*
X024218Y031335D01*
X024232Y031446D01*
X024249Y031556D01*
X024271Y031666D01*
X024297Y031775D01*
X024326Y031883D01*
X024359Y031989D01*
X024396Y032095D01*
X024437Y032199D01*
X024482Y032302D01*
X024530Y032403D01*
X024581Y032502D01*
X024636Y032599D01*
X024695Y032694D01*
X024756Y032788D01*
X024821Y032879D01*
X024890Y032967D01*
X024961Y033053D01*
X025035Y033137D01*
X025113Y033217D01*
X025193Y033295D01*
X025276Y033371D01*
X025361Y033443D01*
X025449Y033512D01*
X025539Y033578D01*
X025632Y033640D01*
X025727Y033700D01*
X025824Y033756D01*
X025922Y033808D01*
X026023Y033857D01*
X026125Y033902D01*
X026229Y033944D01*
X026334Y033982D01*
X026441Y034016D01*
X026548Y034046D01*
X026657Y034073D01*
X026766Y034095D01*
X026877Y034114D01*
X026987Y034129D01*
X027099Y034140D01*
X027210Y034147D01*
X027322Y034150D01*
X027434Y034149D01*
X027546Y034144D01*
X027657Y034135D01*
X027768Y034122D01*
X027879Y034105D01*
X027989Y034085D01*
X028098Y034060D01*
X028206Y034032D01*
X028313Y033999D01*
X028419Y033963D01*
X028523Y033923D01*
X028626Y033880D01*
X028728Y033833D01*
X028827Y033782D01*
X028925Y033728D01*
X029021Y033670D01*
X029115Y033609D01*
X029206Y033545D01*
X029295Y033478D01*
X029382Y033407D01*
X029466Y033333D01*
X029548Y033257D01*
X029626Y033177D01*
X029702Y033095D01*
X029775Y033010D01*
X029845Y032923D01*
X029911Y032833D01*
X029975Y032741D01*
X030035Y032647D01*
X030092Y032551D01*
X030145Y032452D01*
X030195Y032352D01*
X030241Y032251D01*
X030284Y032147D01*
X030323Y032042D01*
X030358Y031936D01*
X030389Y031829D01*
X030417Y031720D01*
X030440Y031611D01*
X030460Y031501D01*
X030476Y031390D01*
X030488Y031279D01*
X030496Y031168D01*
X030500Y031056D01*
X030500Y030944D01*
X030496Y030832D01*
X030488Y030721D01*
X030476Y030610D01*
X030460Y030499D01*
X030440Y030389D01*
X030417Y030280D01*
X030389Y030171D01*
X030358Y030064D01*
X030323Y029958D01*
X030284Y029853D01*
X030241Y029749D01*
X030195Y029648D01*
X030145Y029548D01*
X030092Y029449D01*
X030035Y029353D01*
X029975Y029259D01*
X029911Y029167D01*
X029845Y029077D01*
X029775Y028990D01*
X029702Y028905D01*
X029626Y028823D01*
X029548Y028743D01*
X029466Y028667D01*
X029382Y028593D01*
X029295Y028522D01*
X029206Y028455D01*
X029115Y028391D01*
X029021Y028330D01*
X028925Y028272D01*
X028827Y028218D01*
X028728Y028167D01*
X028626Y028120D01*
X028523Y028077D01*
X028419Y028037D01*
X028313Y028001D01*
X028206Y027968D01*
X028098Y027940D01*
X027989Y027915D01*
X027879Y027895D01*
X027768Y027878D01*
X027657Y027865D01*
X027546Y027856D01*
X027434Y027851D01*
X027322Y027850D01*
X027210Y027853D01*
X027099Y027860D01*
X026987Y027871D01*
X026877Y027886D01*
X026766Y027905D01*
X026657Y027927D01*
X026548Y027954D01*
X026441Y027984D01*
X026334Y028018D01*
X026229Y028056D01*
X026125Y028098D01*
X026023Y028143D01*
X025922Y028192D01*
X025824Y028244D01*
X025727Y028300D01*
X025632Y028360D01*
X025539Y028422D01*
X025449Y028488D01*
X025361Y028557D01*
X025276Y028629D01*
X025193Y028705D01*
X025113Y028783D01*
X025035Y028863D01*
X024961Y028947D01*
X024890Y029033D01*
X024821Y029121D01*
X024756Y029212D01*
X024695Y029306D01*
X024636Y029401D01*
X024581Y029498D01*
X024530Y029597D01*
X024482Y029698D01*
X024437Y029801D01*
X024396Y029905D01*
X024359Y030011D01*
X024326Y030117D01*
X024297Y030225D01*
X024271Y030334D01*
X024249Y030444D01*
X024232Y030554D01*
X024218Y030665D01*
X024208Y030777D01*
X024202Y030888D01*
X024200Y031000D01*
X035850Y012000D02*
X036850Y012000D01*
X036850Y010000D01*
X035850Y010000D01*
X035850Y012000D01*
X036100Y011000D02*
X036600Y011000D01*
D14*
X006275Y005622D02*
X006275Y005031D01*
X009425Y005031D01*
X009425Y008969D01*
X006275Y008969D01*
X006275Y008378D01*
X007850Y008378D01*
X007850Y007591D01*
X006275Y007591D01*
X006275Y008378D01*
X006275Y007591D02*
X006275Y006409D01*
X007850Y006409D01*
X007850Y005622D01*
X006275Y005622D01*
X006275Y006409D01*
X006275Y018531D02*
X006275Y019122D01*
X007850Y019122D01*
X007850Y019909D01*
X006275Y019909D01*
X006275Y021091D01*
X007850Y021091D01*
X007850Y021878D01*
X006275Y021878D01*
X006275Y022469D01*
X009425Y022469D01*
X009425Y018531D01*
X006275Y018531D01*
X006275Y019122D02*
X006275Y019909D01*
X006275Y021091D02*
X006275Y021878D01*
X007850Y024200D02*
X003750Y024200D01*
X003750Y027300D01*
X007850Y027300D01*
X007850Y024200D01*
X006106Y025262D02*
X005925Y025447D01*
X005639Y025168D02*
X005820Y024983D01*
X004700Y025750D02*
X004702Y025800D01*
X004708Y025850D01*
X004718Y025900D01*
X004731Y025948D01*
X004748Y025996D01*
X004769Y026042D01*
X004793Y026086D01*
X004821Y026128D01*
X004852Y026168D01*
X004886Y026205D01*
X004923Y026240D01*
X004962Y026271D01*
X005003Y026300D01*
X005047Y026325D01*
X005093Y026347D01*
X005140Y026365D01*
X005188Y026379D01*
X005237Y026390D01*
X005287Y026397D01*
X005337Y026400D01*
X005388Y026399D01*
X005438Y026394D01*
X005488Y026385D01*
X005536Y026373D01*
X005584Y026356D01*
X005630Y026336D01*
X005675Y026313D01*
X005718Y026286D01*
X005758Y026256D01*
X005796Y026223D01*
X005831Y026187D01*
X005864Y026148D01*
X005893Y026107D01*
X005919Y026064D01*
X005942Y026019D01*
X005961Y025972D01*
X005976Y025924D01*
X005988Y025875D01*
X005996Y025825D01*
X006000Y025775D01*
X006000Y025725D01*
X005996Y025675D01*
X005988Y025625D01*
X005976Y025576D01*
X005961Y025528D01*
X005942Y025481D01*
X005919Y025436D01*
X005893Y025393D01*
X005864Y025352D01*
X005831Y025313D01*
X005796Y025277D01*
X005758Y025244D01*
X005718Y025214D01*
X005675Y025187D01*
X005630Y025164D01*
X005584Y025144D01*
X005536Y025127D01*
X005488Y025115D01*
X005438Y025106D01*
X005388Y025101D01*
X005337Y025100D01*
X005287Y025103D01*
X005237Y025110D01*
X005188Y025121D01*
X005140Y025135D01*
X005093Y025153D01*
X005047Y025175D01*
X005003Y025200D01*
X004962Y025229D01*
X004923Y025260D01*
X004886Y025295D01*
X004852Y025332D01*
X004821Y025372D01*
X004793Y025414D01*
X004769Y025458D01*
X004748Y025504D01*
X004731Y025552D01*
X004718Y025600D01*
X004708Y025650D01*
X004702Y025700D01*
X004700Y025750D01*
X004732Y025950D02*
X004473Y025950D01*
X004473Y025550D02*
X004732Y025550D01*
X005820Y024983D02*
X005868Y025014D01*
X005914Y025049D01*
X005958Y025086D01*
X005999Y025127D01*
X006038Y025170D01*
X006074Y025215D01*
X006106Y025262D01*
X005925Y026053D02*
X006106Y026238D01*
X005820Y026517D02*
X005639Y026332D01*
X004473Y025950D02*
X004462Y025893D01*
X004454Y025836D01*
X004450Y025779D01*
X004450Y025721D01*
X004454Y025664D01*
X004462Y025607D01*
X004473Y025550D01*
X005820Y026517D02*
X005868Y026486D01*
X005914Y026451D01*
X005958Y026414D01*
X005999Y026373D01*
X006038Y026330D01*
X006074Y026285D01*
X006106Y026238D01*
X011200Y028175D02*
X011200Y029825D01*
X011800Y029553D02*
X011800Y029447D01*
X011403Y029950D02*
X011349Y029923D01*
X011298Y029893D01*
X011248Y029860D01*
X011200Y029825D01*
X012297Y029950D02*
X012354Y029921D01*
X012410Y029888D01*
X012463Y029853D01*
X012514Y029813D01*
X012562Y029771D01*
X012608Y029726D01*
X012651Y029679D01*
X012691Y029629D01*
X012728Y029576D01*
X012761Y029521D01*
X012792Y029465D01*
X012818Y029406D01*
X012841Y029346D01*
X012861Y029285D01*
X012876Y029223D01*
X012888Y029160D01*
X012896Y029096D01*
X012900Y029032D01*
X012900Y028968D01*
X012896Y028904D01*
X012888Y028840D01*
X012876Y028777D01*
X012861Y028715D01*
X012841Y028654D01*
X012818Y028594D01*
X012792Y028535D01*
X012761Y028479D01*
X012728Y028424D01*
X012691Y028371D01*
X012651Y028321D01*
X012608Y028274D01*
X012562Y028229D01*
X012514Y028187D01*
X012463Y028147D01*
X012410Y028112D01*
X012354Y028079D01*
X012297Y028050D01*
X011800Y028447D02*
X011800Y028553D01*
X011412Y028046D02*
X011356Y028073D01*
X011302Y028104D01*
X011250Y028138D01*
X011200Y028175D01*
X009425Y032031D02*
X009425Y035969D01*
X006275Y035969D01*
X006275Y035378D01*
X007850Y035378D01*
X007850Y034591D01*
X006275Y034591D01*
X006275Y035378D01*
X006275Y034591D02*
X006275Y033409D01*
X007850Y033409D01*
X007850Y032622D01*
X006275Y032622D01*
X006275Y033409D01*
X006275Y032622D02*
X006275Y032031D01*
X009425Y032031D01*
X017881Y032425D02*
X021819Y032425D01*
X021819Y035575D01*
X021228Y035575D01*
X021228Y034000D01*
X020441Y034000D01*
X020441Y035575D01*
X021228Y035575D01*
X020441Y035575D02*
X019259Y035575D01*
X019259Y034000D01*
X018472Y034000D01*
X018472Y035575D01*
X019259Y035575D01*
X018472Y035575D02*
X017881Y035575D01*
X017881Y032425D01*
X020350Y029550D02*
X025250Y029550D01*
X025250Y029200D01*
X025850Y029200D01*
X025850Y029550D01*
X026600Y029550D01*
X026600Y025450D01*
X025850Y025450D01*
X025850Y025800D01*
X025250Y025800D01*
X025250Y025450D01*
X020350Y025450D01*
X020350Y029550D01*
X023975Y028425D02*
X023975Y028198D01*
X024145Y028198D01*
X024088Y028311D01*
X024088Y028368D01*
X024145Y028425D01*
X024258Y028425D01*
X024315Y028368D01*
X024315Y028254D01*
X024258Y028198D01*
X024258Y028072D02*
X024258Y028015D01*
X024315Y028015D01*
X024315Y028072D01*
X024258Y028072D01*
X024315Y028072D02*
X024428Y027958D01*
X024315Y027599D02*
X024258Y027599D01*
X024031Y027826D01*
X023975Y027826D01*
X023975Y027599D01*
X023975Y027353D02*
X024315Y027353D01*
X024315Y027240D02*
X024315Y027467D01*
X024088Y027240D02*
X023975Y027353D01*
X024088Y027108D02*
X023975Y026994D01*
X024088Y026881D01*
X024315Y026881D01*
X024145Y026881D02*
X024145Y027108D01*
X024088Y027108D02*
X024315Y027108D01*
X024540Y027500D02*
X024542Y027553D01*
X024548Y027606D01*
X024558Y027658D01*
X024572Y027709D01*
X024589Y027759D01*
X024610Y027808D01*
X024635Y027855D01*
X024663Y027900D01*
X024695Y027943D01*
X024730Y027983D01*
X024767Y028020D01*
X024807Y028055D01*
X024850Y028087D01*
X024895Y028115D01*
X024942Y028140D01*
X024991Y028161D01*
X025041Y028178D01*
X025092Y028192D01*
X025144Y028202D01*
X025197Y028208D01*
X025250Y028210D01*
X025303Y028208D01*
X025356Y028202D01*
X025408Y028192D01*
X025459Y028178D01*
X025509Y028161D01*
X025558Y028140D01*
X025605Y028115D01*
X025650Y028087D01*
X025693Y028055D01*
X025733Y028020D01*
X025770Y027983D01*
X025805Y027943D01*
X025837Y027900D01*
X025865Y027855D01*
X025890Y027808D01*
X025911Y027759D01*
X025928Y027709D01*
X025942Y027658D01*
X025952Y027606D01*
X025958Y027553D01*
X025960Y027500D01*
X025958Y027447D01*
X025952Y027394D01*
X025942Y027342D01*
X025928Y027291D01*
X025911Y027241D01*
X025890Y027192D01*
X025865Y027145D01*
X025837Y027100D01*
X025805Y027057D01*
X025770Y027017D01*
X025733Y026980D01*
X025693Y026945D01*
X025650Y026913D01*
X025605Y026885D01*
X025558Y026860D01*
X025509Y026839D01*
X025459Y026822D01*
X025408Y026808D01*
X025356Y026798D01*
X025303Y026792D01*
X025250Y026790D01*
X025197Y026792D01*
X025144Y026798D01*
X025092Y026808D01*
X025041Y026822D01*
X024991Y026839D01*
X024942Y026860D01*
X024895Y026885D01*
X024850Y026913D01*
X024807Y026945D01*
X024767Y026980D01*
X024730Y027017D01*
X024695Y027057D01*
X024663Y027100D01*
X024635Y027145D01*
X024610Y027192D01*
X024589Y027241D01*
X024572Y027291D01*
X024558Y027342D01*
X024548Y027394D01*
X024542Y027447D01*
X024540Y027500D01*
X024315Y028557D02*
X024088Y028557D01*
X024088Y028614D01*
X024145Y028670D01*
X024088Y028727D01*
X024145Y028784D01*
X024315Y028784D01*
X024315Y028670D02*
X024145Y028670D01*
X024088Y028916D02*
X024088Y028973D01*
X024145Y029029D01*
X024088Y029086D01*
X024145Y029143D01*
X024315Y029143D01*
X024315Y029029D02*
X024145Y029029D01*
X024088Y028916D02*
X024315Y028916D01*
X026750Y022550D02*
X021850Y022550D01*
X021850Y018450D01*
X026750Y018450D01*
X026750Y018800D01*
X027350Y018800D01*
X027350Y018450D01*
X028100Y018450D01*
X028100Y022550D01*
X027350Y022550D01*
X027350Y022200D01*
X026750Y022200D01*
X026750Y022550D01*
X025815Y022143D02*
X025645Y022143D01*
X025588Y022086D01*
X025645Y022029D01*
X025815Y022029D01*
X025815Y021916D02*
X025588Y021916D01*
X025588Y021973D01*
X025645Y022029D01*
X025645Y021784D02*
X025588Y021727D01*
X025645Y021670D01*
X025815Y021670D01*
X025815Y021557D02*
X025588Y021557D01*
X025588Y021614D01*
X025645Y021670D01*
X025645Y021784D02*
X025815Y021784D01*
X025758Y021425D02*
X025815Y021368D01*
X025815Y021254D01*
X025758Y021198D01*
X025645Y021198D02*
X025588Y021311D01*
X025588Y021368D01*
X025645Y021425D01*
X025758Y021425D01*
X025645Y021198D02*
X025475Y021198D01*
X025475Y021425D01*
X025758Y021072D02*
X025758Y021015D01*
X025815Y021015D01*
X025815Y021072D01*
X025758Y021072D01*
X025815Y021072D02*
X025928Y020958D01*
X025815Y020599D02*
X025758Y020599D01*
X025531Y020826D01*
X025475Y020826D01*
X025475Y020599D01*
X025475Y020353D02*
X025815Y020353D01*
X025815Y020240D02*
X025815Y020467D01*
X025588Y020240D02*
X025475Y020353D01*
X025588Y020108D02*
X025815Y020108D01*
X025645Y020108D02*
X025645Y019881D01*
X025588Y019881D02*
X025475Y019994D01*
X025588Y020108D01*
X025588Y019881D02*
X025815Y019881D01*
X026040Y020500D02*
X026042Y020553D01*
X026048Y020606D01*
X026058Y020658D01*
X026072Y020709D01*
X026089Y020759D01*
X026110Y020808D01*
X026135Y020855D01*
X026163Y020900D01*
X026195Y020943D01*
X026230Y020983D01*
X026267Y021020D01*
X026307Y021055D01*
X026350Y021087D01*
X026395Y021115D01*
X026442Y021140D01*
X026491Y021161D01*
X026541Y021178D01*
X026592Y021192D01*
X026644Y021202D01*
X026697Y021208D01*
X026750Y021210D01*
X026803Y021208D01*
X026856Y021202D01*
X026908Y021192D01*
X026959Y021178D01*
X027009Y021161D01*
X027058Y021140D01*
X027105Y021115D01*
X027150Y021087D01*
X027193Y021055D01*
X027233Y021020D01*
X027270Y020983D01*
X027305Y020943D01*
X027337Y020900D01*
X027365Y020855D01*
X027390Y020808D01*
X027411Y020759D01*
X027428Y020709D01*
X027442Y020658D01*
X027452Y020606D01*
X027458Y020553D01*
X027460Y020500D01*
X027458Y020447D01*
X027452Y020394D01*
X027442Y020342D01*
X027428Y020291D01*
X027411Y020241D01*
X027390Y020192D01*
X027365Y020145D01*
X027337Y020100D01*
X027305Y020057D01*
X027270Y020017D01*
X027233Y019980D01*
X027193Y019945D01*
X027150Y019913D01*
X027105Y019885D01*
X027058Y019860D01*
X027009Y019839D01*
X026959Y019822D01*
X026908Y019808D01*
X026856Y019798D01*
X026803Y019792D01*
X026750Y019790D01*
X026697Y019792D01*
X026644Y019798D01*
X026592Y019808D01*
X026541Y019822D01*
X026491Y019839D01*
X026442Y019860D01*
X026395Y019885D01*
X026350Y019913D01*
X026307Y019945D01*
X026267Y019980D01*
X026230Y020017D01*
X026195Y020057D01*
X026163Y020100D01*
X026135Y020145D01*
X026110Y020192D01*
X026089Y020241D01*
X026072Y020291D01*
X026058Y020342D01*
X026048Y020394D01*
X026042Y020447D01*
X026040Y020500D01*
X033475Y016375D02*
X033475Y012625D01*
X037225Y012625D01*
X037225Y016375D01*
X033475Y016375D01*
X034050Y014500D02*
X034052Y014572D01*
X034058Y014643D01*
X034068Y014714D01*
X034081Y014784D01*
X034099Y014854D01*
X034120Y014922D01*
X034146Y014989D01*
X034174Y015055D01*
X034207Y015119D01*
X034243Y015181D01*
X034282Y015241D01*
X034324Y015298D01*
X034370Y015354D01*
X034418Y015406D01*
X034470Y015456D01*
X034524Y015503D01*
X034580Y015547D01*
X034639Y015588D01*
X034700Y015626D01*
X034763Y015660D01*
X034828Y015691D01*
X034894Y015717D01*
X034962Y015741D01*
X035031Y015760D01*
X035101Y015776D01*
X035171Y015788D01*
X035243Y015796D01*
X035314Y015800D01*
X035386Y015800D01*
X035457Y015796D01*
X035529Y015788D01*
X035599Y015776D01*
X035669Y015760D01*
X035738Y015741D01*
X035806Y015717D01*
X035872Y015691D01*
X035937Y015660D01*
X036000Y015626D01*
X036061Y015588D01*
X036120Y015547D01*
X036176Y015503D01*
X036230Y015456D01*
X036282Y015406D01*
X036330Y015354D01*
X036376Y015298D01*
X036418Y015241D01*
X036457Y015181D01*
X036493Y015119D01*
X036526Y015055D01*
X036554Y014989D01*
X036580Y014922D01*
X036601Y014854D01*
X036619Y014784D01*
X036632Y014714D01*
X036642Y014643D01*
X036648Y014572D01*
X036650Y014500D01*
X036648Y014428D01*
X036642Y014357D01*
X036632Y014286D01*
X036619Y014216D01*
X036601Y014146D01*
X036580Y014078D01*
X036554Y014011D01*
X036526Y013945D01*
X036493Y013881D01*
X036457Y013819D01*
X036418Y013759D01*
X036376Y013702D01*
X036330Y013646D01*
X036282Y013594D01*
X036230Y013544D01*
X036176Y013497D01*
X036120Y013453D01*
X036061Y013412D01*
X036000Y013374D01*
X035937Y013340D01*
X035872Y013309D01*
X035806Y013283D01*
X035738Y013259D01*
X035669Y013240D01*
X035599Y013224D01*
X035529Y013212D01*
X035457Y013204D01*
X035386Y013200D01*
X035314Y013200D01*
X035243Y013204D01*
X035171Y013212D01*
X035101Y013224D01*
X035031Y013240D01*
X034962Y013259D01*
X034894Y013283D01*
X034828Y013309D01*
X034763Y013340D01*
X034700Y013374D01*
X034639Y013412D01*
X034580Y013453D01*
X034524Y013497D01*
X034470Y013544D01*
X034418Y013594D01*
X034370Y013646D01*
X034324Y013702D01*
X034282Y013759D01*
X034243Y013819D01*
X034207Y013881D01*
X034174Y013945D01*
X034146Y014011D01*
X034120Y014078D01*
X034099Y014146D01*
X034081Y014216D01*
X034068Y014286D01*
X034058Y014357D01*
X034052Y014428D01*
X034050Y014500D01*
X032200Y012325D02*
X032200Y010675D01*
X032800Y010947D02*
X032800Y011053D01*
X032412Y010546D02*
X032356Y010573D01*
X032302Y010604D01*
X032250Y010638D01*
X032200Y010675D01*
X033297Y010550D02*
X033354Y010579D01*
X033410Y010612D01*
X033463Y010647D01*
X033514Y010687D01*
X033562Y010729D01*
X033608Y010774D01*
X033651Y010821D01*
X033691Y010871D01*
X033728Y010924D01*
X033761Y010979D01*
X033792Y011035D01*
X033818Y011094D01*
X033841Y011154D01*
X033861Y011215D01*
X033876Y011277D01*
X033888Y011340D01*
X033896Y011404D01*
X033900Y011468D01*
X033900Y011532D01*
X033896Y011596D01*
X033888Y011660D01*
X033876Y011723D01*
X033861Y011785D01*
X033841Y011846D01*
X033818Y011906D01*
X033792Y011965D01*
X033761Y012021D01*
X033728Y012076D01*
X033691Y012129D01*
X033651Y012179D01*
X033608Y012226D01*
X033562Y012271D01*
X033514Y012313D01*
X033463Y012353D01*
X033410Y012388D01*
X033354Y012421D01*
X033297Y012450D01*
X032800Y012053D02*
X032800Y011947D01*
X032403Y012450D02*
X032349Y012423D01*
X032298Y012393D01*
X032248Y012360D01*
X032200Y012325D01*
X034200Y011325D02*
X034200Y009675D01*
X034800Y009947D02*
X034800Y010053D01*
X034412Y009546D02*
X034356Y009573D01*
X034302Y009604D01*
X034250Y009638D01*
X034200Y009675D01*
X035297Y009550D02*
X035354Y009579D01*
X035410Y009612D01*
X035463Y009647D01*
X035514Y009687D01*
X035562Y009729D01*
X035608Y009774D01*
X035651Y009821D01*
X035691Y009871D01*
X035728Y009924D01*
X035761Y009979D01*
X035792Y010035D01*
X035818Y010094D01*
X035841Y010154D01*
X035861Y010215D01*
X035876Y010277D01*
X035888Y010340D01*
X035896Y010404D01*
X035900Y010468D01*
X035900Y010532D01*
X035896Y010596D01*
X035888Y010660D01*
X035876Y010723D01*
X035861Y010785D01*
X035841Y010846D01*
X035818Y010906D01*
X035792Y010965D01*
X035761Y011021D01*
X035728Y011076D01*
X035691Y011129D01*
X035651Y011179D01*
X035608Y011226D01*
X035562Y011271D01*
X035514Y011313D01*
X035463Y011353D01*
X035410Y011388D01*
X035354Y011421D01*
X035297Y011450D01*
X034800Y011053D02*
X034800Y010947D01*
X034403Y011450D02*
X034349Y011423D01*
X034298Y011393D01*
X034248Y011360D01*
X034200Y011325D01*
X033881Y006575D02*
X037819Y006575D01*
X037819Y003425D01*
X037228Y003425D01*
X037228Y005000D01*
X036441Y005000D01*
X036441Y003425D01*
X035259Y003425D01*
X035259Y005000D01*
X034472Y005000D01*
X034472Y003425D01*
X033881Y003425D01*
X033881Y006575D01*
X034472Y003425D02*
X035259Y003425D01*
X036441Y003425D02*
X037228Y003425D01*
X013000Y018675D02*
X013000Y020325D01*
X012400Y020053D02*
X012400Y019947D01*
X012788Y020454D02*
X012844Y020427D01*
X012898Y020396D01*
X012950Y020362D01*
X013000Y020325D01*
X011903Y020450D02*
X011846Y020421D01*
X011790Y020388D01*
X011737Y020353D01*
X011686Y020313D01*
X011638Y020271D01*
X011592Y020226D01*
X011549Y020179D01*
X011509Y020129D01*
X011472Y020076D01*
X011439Y020021D01*
X011408Y019965D01*
X011382Y019906D01*
X011359Y019846D01*
X011339Y019785D01*
X011324Y019723D01*
X011312Y019660D01*
X011304Y019596D01*
X011300Y019532D01*
X011300Y019468D01*
X011304Y019404D01*
X011312Y019340D01*
X011324Y019277D01*
X011339Y019215D01*
X011359Y019154D01*
X011382Y019094D01*
X011408Y019035D01*
X011439Y018979D01*
X011472Y018924D01*
X011509Y018871D01*
X011549Y018821D01*
X011592Y018774D01*
X011638Y018729D01*
X011686Y018687D01*
X011737Y018647D01*
X011790Y018612D01*
X011846Y018579D01*
X011903Y018550D01*
X012400Y018947D02*
X012400Y019053D01*
X012797Y018550D02*
X012851Y018577D01*
X012902Y018607D01*
X012952Y018640D01*
X013000Y018675D01*
X033381Y032425D02*
X037319Y032425D01*
X037319Y035575D01*
X036728Y035575D01*
X036728Y034000D01*
X035941Y034000D01*
X035941Y035575D01*
X036728Y035575D01*
X035941Y035575D02*
X034759Y035575D01*
X034759Y034000D01*
X033972Y034000D01*
X033972Y035575D01*
X034759Y035575D01*
X033972Y035575D02*
X033381Y035575D01*
X033381Y032425D01*
D15*
X007540Y024520D03*
X007540Y011770D03*
D16*
X008200Y013000D03*
X008200Y025750D03*
D17*
X008275Y025750D03*
X008275Y026650D03*
X008275Y024850D03*
X008275Y013900D03*
X008275Y013000D03*
X008275Y012100D03*
D18*
X022100Y018700D02*
X025350Y018700D01*
X025350Y022300D01*
X022100Y022300D01*
X022100Y018700D01*
X020600Y025700D02*
X023850Y025700D01*
X023850Y029300D01*
X020600Y029300D01*
X020600Y025700D01*
D19*
X019125Y026500D03*
X019125Y027500D03*
X019125Y028500D03*
X020625Y021500D03*
X020625Y020500D03*
X020625Y019500D03*
D20*
X021300Y019500D03*
X021300Y020500D03*
X021300Y021500D03*
X019800Y026500D03*
X019800Y027500D03*
X019800Y028500D03*
D21*
X019645Y011500D03*
X027055Y011500D03*
M02*
