G75*
%MOIN*%
%OFA0B0*%
%FSLAX24Y24*%
%IPPOS*%
%LPD*%
%AMOC8*
5,1,8,0,0,1.08239X$1,22.5*
%
%ADD10C,0.0000*%
%ADD11C,0.0520*%
%ADD12OC8,0.0520*%
%ADD13C,0.0650*%
%ADD14C,0.0520*%
%ADD15C,0.0700*%
%ADD16C,0.0660*%
%ADD17OC8,0.0600*%
%ADD18C,0.0660*%
%ADD19R,0.0650X0.0650*%
%ADD20C,0.0740*%
%ADD21C,0.0700*%
D10*
X000350Y002500D02*
X000350Y036996D01*
X040220Y036996D01*
X040220Y002500D01*
X000350Y002500D01*
X000970Y003750D02*
X000972Y003800D01*
X000978Y003850D01*
X000988Y003899D01*
X001002Y003947D01*
X001019Y003994D01*
X001040Y004039D01*
X001065Y004083D01*
X001093Y004124D01*
X001125Y004163D01*
X001159Y004200D01*
X001196Y004234D01*
X001236Y004264D01*
X001278Y004291D01*
X001322Y004315D01*
X001368Y004336D01*
X001415Y004352D01*
X001463Y004365D01*
X001513Y004374D01*
X001562Y004379D01*
X001613Y004380D01*
X001663Y004377D01*
X001712Y004370D01*
X001761Y004359D01*
X001809Y004344D01*
X001855Y004326D01*
X001900Y004304D01*
X001943Y004278D01*
X001984Y004249D01*
X002023Y004217D01*
X002059Y004182D01*
X002091Y004144D01*
X002121Y004104D01*
X002148Y004061D01*
X002171Y004017D01*
X002190Y003971D01*
X002206Y003923D01*
X002218Y003874D01*
X002226Y003825D01*
X002230Y003775D01*
X002230Y003725D01*
X002226Y003675D01*
X002218Y003626D01*
X002206Y003577D01*
X002190Y003529D01*
X002171Y003483D01*
X002148Y003439D01*
X002121Y003396D01*
X002091Y003356D01*
X002059Y003318D01*
X002023Y003283D01*
X001984Y003251D01*
X001943Y003222D01*
X001900Y003196D01*
X001855Y003174D01*
X001809Y003156D01*
X001761Y003141D01*
X001712Y003130D01*
X001663Y003123D01*
X001613Y003120D01*
X001562Y003121D01*
X001513Y003126D01*
X001463Y003135D01*
X001415Y003148D01*
X001368Y003164D01*
X001322Y003185D01*
X001278Y003209D01*
X001236Y003236D01*
X001196Y003266D01*
X001159Y003300D01*
X001125Y003337D01*
X001093Y003376D01*
X001065Y003417D01*
X001040Y003461D01*
X001019Y003506D01*
X001002Y003553D01*
X000988Y003601D01*
X000978Y003650D01*
X000972Y003700D01*
X000970Y003750D01*
X000970Y035500D02*
X000972Y035550D01*
X000978Y035600D01*
X000988Y035649D01*
X001002Y035697D01*
X001019Y035744D01*
X001040Y035789D01*
X001065Y035833D01*
X001093Y035874D01*
X001125Y035913D01*
X001159Y035950D01*
X001196Y035984D01*
X001236Y036014D01*
X001278Y036041D01*
X001322Y036065D01*
X001368Y036086D01*
X001415Y036102D01*
X001463Y036115D01*
X001513Y036124D01*
X001562Y036129D01*
X001613Y036130D01*
X001663Y036127D01*
X001712Y036120D01*
X001761Y036109D01*
X001809Y036094D01*
X001855Y036076D01*
X001900Y036054D01*
X001943Y036028D01*
X001984Y035999D01*
X002023Y035967D01*
X002059Y035932D01*
X002091Y035894D01*
X002121Y035854D01*
X002148Y035811D01*
X002171Y035767D01*
X002190Y035721D01*
X002206Y035673D01*
X002218Y035624D01*
X002226Y035575D01*
X002230Y035525D01*
X002230Y035475D01*
X002226Y035425D01*
X002218Y035376D01*
X002206Y035327D01*
X002190Y035279D01*
X002171Y035233D01*
X002148Y035189D01*
X002121Y035146D01*
X002091Y035106D01*
X002059Y035068D01*
X002023Y035033D01*
X001984Y035001D01*
X001943Y034972D01*
X001900Y034946D01*
X001855Y034924D01*
X001809Y034906D01*
X001761Y034891D01*
X001712Y034880D01*
X001663Y034873D01*
X001613Y034870D01*
X001562Y034871D01*
X001513Y034876D01*
X001463Y034885D01*
X001415Y034898D01*
X001368Y034914D01*
X001322Y034935D01*
X001278Y034959D01*
X001236Y034986D01*
X001196Y035016D01*
X001159Y035050D01*
X001125Y035087D01*
X001093Y035126D01*
X001065Y035167D01*
X001040Y035211D01*
X001019Y035256D01*
X001002Y035303D01*
X000988Y035351D01*
X000978Y035400D01*
X000972Y035450D01*
X000970Y035500D01*
X038470Y035500D02*
X038472Y035550D01*
X038478Y035600D01*
X038488Y035649D01*
X038502Y035697D01*
X038519Y035744D01*
X038540Y035789D01*
X038565Y035833D01*
X038593Y035874D01*
X038625Y035913D01*
X038659Y035950D01*
X038696Y035984D01*
X038736Y036014D01*
X038778Y036041D01*
X038822Y036065D01*
X038868Y036086D01*
X038915Y036102D01*
X038963Y036115D01*
X039013Y036124D01*
X039062Y036129D01*
X039113Y036130D01*
X039163Y036127D01*
X039212Y036120D01*
X039261Y036109D01*
X039309Y036094D01*
X039355Y036076D01*
X039400Y036054D01*
X039443Y036028D01*
X039484Y035999D01*
X039523Y035967D01*
X039559Y035932D01*
X039591Y035894D01*
X039621Y035854D01*
X039648Y035811D01*
X039671Y035767D01*
X039690Y035721D01*
X039706Y035673D01*
X039718Y035624D01*
X039726Y035575D01*
X039730Y035525D01*
X039730Y035475D01*
X039726Y035425D01*
X039718Y035376D01*
X039706Y035327D01*
X039690Y035279D01*
X039671Y035233D01*
X039648Y035189D01*
X039621Y035146D01*
X039591Y035106D01*
X039559Y035068D01*
X039523Y035033D01*
X039484Y035001D01*
X039443Y034972D01*
X039400Y034946D01*
X039355Y034924D01*
X039309Y034906D01*
X039261Y034891D01*
X039212Y034880D01*
X039163Y034873D01*
X039113Y034870D01*
X039062Y034871D01*
X039013Y034876D01*
X038963Y034885D01*
X038915Y034898D01*
X038868Y034914D01*
X038822Y034935D01*
X038778Y034959D01*
X038736Y034986D01*
X038696Y035016D01*
X038659Y035050D01*
X038625Y035087D01*
X038593Y035126D01*
X038565Y035167D01*
X038540Y035211D01*
X038519Y035256D01*
X038502Y035303D01*
X038488Y035351D01*
X038478Y035400D01*
X038472Y035450D01*
X038470Y035500D01*
X038470Y004000D02*
X038472Y004050D01*
X038478Y004100D01*
X038488Y004149D01*
X038502Y004197D01*
X038519Y004244D01*
X038540Y004289D01*
X038565Y004333D01*
X038593Y004374D01*
X038625Y004413D01*
X038659Y004450D01*
X038696Y004484D01*
X038736Y004514D01*
X038778Y004541D01*
X038822Y004565D01*
X038868Y004586D01*
X038915Y004602D01*
X038963Y004615D01*
X039013Y004624D01*
X039062Y004629D01*
X039113Y004630D01*
X039163Y004627D01*
X039212Y004620D01*
X039261Y004609D01*
X039309Y004594D01*
X039355Y004576D01*
X039400Y004554D01*
X039443Y004528D01*
X039484Y004499D01*
X039523Y004467D01*
X039559Y004432D01*
X039591Y004394D01*
X039621Y004354D01*
X039648Y004311D01*
X039671Y004267D01*
X039690Y004221D01*
X039706Y004173D01*
X039718Y004124D01*
X039726Y004075D01*
X039730Y004025D01*
X039730Y003975D01*
X039726Y003925D01*
X039718Y003876D01*
X039706Y003827D01*
X039690Y003779D01*
X039671Y003733D01*
X039648Y003689D01*
X039621Y003646D01*
X039591Y003606D01*
X039559Y003568D01*
X039523Y003533D01*
X039484Y003501D01*
X039443Y003472D01*
X039400Y003446D01*
X039355Y003424D01*
X039309Y003406D01*
X039261Y003391D01*
X039212Y003380D01*
X039163Y003373D01*
X039113Y003370D01*
X039062Y003371D01*
X039013Y003376D01*
X038963Y003385D01*
X038915Y003398D01*
X038868Y003414D01*
X038822Y003435D01*
X038778Y003459D01*
X038736Y003486D01*
X038696Y003516D01*
X038659Y003550D01*
X038625Y003587D01*
X038593Y003626D01*
X038565Y003667D01*
X038540Y003711D01*
X038519Y003756D01*
X038502Y003803D01*
X038488Y003851D01*
X038478Y003900D01*
X038472Y003950D01*
X038470Y004000D01*
D11*
X031850Y024000D03*
X030850Y024000D03*
X029850Y024000D03*
X028850Y024000D03*
X028850Y027000D03*
X029850Y027000D03*
X030850Y027000D03*
X031850Y027000D03*
D12*
X032350Y028500D03*
X029850Y030000D03*
X032350Y031500D03*
X026850Y030000D03*
X026850Y023000D03*
X026850Y021500D03*
X026850Y020500D03*
X029850Y020500D03*
X030850Y020500D03*
X029850Y021500D03*
X029850Y023000D03*
X030850Y017500D03*
X033350Y013500D03*
X036350Y013500D03*
X036350Y008750D03*
X033350Y008750D03*
X027850Y008500D03*
X024850Y008500D03*
X012350Y007500D03*
X012350Y010500D03*
X011350Y015500D03*
X011350Y018500D03*
X014850Y020500D03*
X014850Y021500D03*
X017850Y021500D03*
X017850Y020500D03*
X010850Y025250D03*
X010850Y028250D03*
X014350Y028500D03*
X014350Y030000D03*
X017350Y030000D03*
X017350Y028500D03*
D13*
X013350Y029000D03*
X013350Y030000D03*
X006350Y030000D03*
X013850Y020500D03*
X013850Y019500D03*
X007350Y017000D03*
X026850Y024000D03*
X026850Y025000D03*
X031350Y027750D03*
X032350Y027750D03*
X036350Y011500D03*
X036350Y010500D03*
D14*
X035110Y010500D02*
X034590Y010500D01*
X034590Y009500D02*
X035110Y009500D01*
X035110Y011500D02*
X034590Y011500D01*
X033110Y011500D02*
X032590Y011500D01*
X032590Y010500D02*
X033110Y010500D01*
X033110Y012500D02*
X032590Y012500D01*
X012610Y018500D02*
X012090Y018500D01*
X012090Y019500D02*
X012610Y019500D01*
X012610Y020500D02*
X012090Y020500D01*
X012110Y028000D02*
X011590Y028000D01*
X011590Y029000D02*
X012110Y029000D01*
X012110Y030000D02*
X011590Y030000D01*
D15*
X007806Y033016D02*
X007106Y033016D01*
X007106Y034984D02*
X007806Y034984D01*
X018866Y034744D02*
X018866Y034044D01*
X020834Y034044D02*
X020834Y034744D01*
X034366Y034744D02*
X034366Y034044D01*
X036334Y034044D02*
X036334Y034744D01*
X007806Y021484D02*
X007106Y021484D01*
X007106Y019516D02*
X007806Y019516D01*
X007806Y007984D02*
X007106Y007984D01*
X007106Y006016D02*
X007806Y006016D01*
X034866Y004956D02*
X034866Y004256D01*
X036834Y004256D02*
X036834Y004956D01*
D16*
X020180Y019500D02*
X019520Y019500D01*
X019520Y020500D02*
X020180Y020500D01*
X020180Y021500D02*
X019520Y021500D01*
X018680Y026500D02*
X018020Y026500D01*
X018020Y027500D02*
X018680Y027500D01*
X018680Y028500D02*
X018020Y028500D01*
X009680Y026650D02*
X009020Y026650D01*
X009020Y025750D02*
X009680Y025750D01*
X009680Y024850D02*
X009020Y024850D01*
X009020Y013900D02*
X009680Y013900D01*
X009680Y013000D02*
X009020Y013000D01*
X009020Y012100D02*
X009680Y012100D01*
D17*
X018850Y011500D03*
X027850Y011500D03*
D18*
X014350Y015000D03*
X028850Y031000D03*
D19*
X025850Y031000D03*
X006350Y031000D03*
X006350Y017000D03*
X014350Y012000D03*
D20*
X013850Y017500D03*
X018850Y017500D03*
X022350Y021500D03*
X022350Y025500D03*
X016850Y027000D03*
X011850Y027000D03*
D21*
X034350Y015625D03*
X035350Y015625D03*
X036350Y015625D03*
M02*
