%
M48
M72
T01C0.0276
T02C0.0320
T03C0.0354
T04C0.0400
T05C0.0433
T06C0.0440
T07C0.1260
%
T01
X6350Y17000
X7350Y17000
X13850Y19500
X13850Y20500
X13350Y29000
X13350Y30000
X6350Y30000
X6350Y31000
X26850Y25000
X26850Y24000
X31350Y27750
X32350Y27750
X36350Y11500
X36350Y10500
T02
X34850Y10500
X34850Y9500
X33350Y8750
X32850Y10500
X32850Y11500
X32850Y12500
X33350Y13500
X34850Y11500
X36350Y13500
X36350Y8750
X27850Y8500
X24850Y8500
X30850Y17500
X30850Y20500
X29850Y20500
X29850Y21500
X29850Y23000
X29850Y24000
X30850Y24000
X31850Y24000
X31850Y27000
X30850Y27000
X29850Y27000
X28850Y27000
X29850Y30000
X32350Y28500
X32350Y31500
X26850Y30000
X28850Y24000
X26850Y23000
X26850Y21500
X26850Y20500
X17850Y20500
X17850Y21500
X14850Y21500
X14850Y20500
X12350Y20500
X12350Y19500
X12350Y18500
X11350Y18500
X11350Y15500
X12350Y10500
X12350Y7500
X10850Y25250
X11850Y28000
X11850Y29000
X11850Y30000
X10850Y28250
X14350Y28500
X14350Y30000
X17350Y30000
X17350Y28500
T03
X16850Y27000
X11850Y27000
X13850Y17500
X18850Y17500
X22350Y21500
X22350Y25500
X34350Y15625
X35350Y15625
X36350Y15625
T04
X27850Y11500
X18850Y11500
X14350Y12000
X14350Y15000
X25850Y31000
X28850Y31000
T05
X34366Y34394
X36334Y34394
X20834Y34394
X18866Y34394
X7456Y34984
X7456Y33016
X7456Y21484
X7456Y19516
X7456Y7984
X7456Y6016
X34866Y4606
X36834Y4606
T06
X19850Y19500
X19850Y20500
X19850Y21500
X18350Y26500
X18350Y27500
X18350Y28500
X9350Y26650
X9350Y25750
X9350Y24850
X9350Y13900
X9350Y13000
X9350Y12100
T07
X1600Y3750
X1600Y35500
X39100Y35500
X39100Y4000
M30
