G75*
%MOIN*%
%OFA0B0*%
%FSLAX24Y24*%
%IPPOS*%
%LPD*%
%AMOC8*
5,1,8,0,0,1.08239X$1,22.5*
%
%ADD10C,0.0060*%
D10*
X011200Y025750D02*
X020300Y025750D01*
X021950Y027400D01*
X021950Y036500D01*
X021650Y036500D02*
X021650Y027500D01*
X020200Y026050D01*
X011200Y026050D01*
X011200Y025750D02*
X011158Y025752D01*
X011117Y025758D01*
X011077Y025767D01*
X011037Y025780D01*
X010999Y025797D01*
X010963Y025817D01*
X010929Y025841D01*
X010897Y025867D01*
X010867Y025897D01*
X010841Y025929D01*
X010817Y025963D01*
X010797Y025999D01*
X010780Y026037D01*
X010767Y026077D01*
X010758Y026117D01*
X010752Y026158D01*
X010750Y026200D01*
X010750Y036500D01*
X011050Y036500D02*
X011050Y026200D01*
X011052Y026177D01*
X011057Y026154D01*
X011066Y026132D01*
X011079Y026112D01*
X011094Y026094D01*
X011112Y026079D01*
X011132Y026066D01*
X011154Y026057D01*
X011177Y026052D01*
X011200Y026050D01*
X012350Y029350D02*
X012380Y029352D01*
X012410Y029357D01*
X012439Y029366D01*
X012466Y029379D01*
X012492Y029394D01*
X012516Y029413D01*
X012537Y029434D01*
X012556Y029458D01*
X012571Y029484D01*
X012584Y029511D01*
X012593Y029540D01*
X012598Y029570D01*
X012600Y029600D01*
X012598Y029630D01*
X012593Y029660D01*
X012584Y029689D01*
X012571Y029716D01*
X012556Y029742D01*
X012537Y029766D01*
X012516Y029787D01*
X012492Y029806D01*
X012466Y029821D01*
X012439Y029834D01*
X012410Y029843D01*
X012380Y029848D01*
X012350Y029850D01*
X012320Y029852D01*
X012290Y029857D01*
X012261Y029866D01*
X012234Y029879D01*
X012208Y029894D01*
X012184Y029913D01*
X012163Y029934D01*
X012144Y029958D01*
X012129Y029984D01*
X012116Y030011D01*
X012107Y030040D01*
X012102Y030070D01*
X012100Y030100D01*
X012102Y030130D01*
X012107Y030160D01*
X012116Y030189D01*
X012129Y030216D01*
X012144Y030242D01*
X012163Y030266D01*
X012184Y030287D01*
X012208Y030306D01*
X012234Y030321D01*
X012261Y030334D01*
X012290Y030343D01*
X012320Y030348D01*
X012350Y030350D01*
X012350Y032350D02*
X012350Y033350D01*
X010750Y036500D02*
X010752Y036542D01*
X010758Y036583D01*
X010767Y036623D01*
X010780Y036663D01*
X010797Y036701D01*
X010817Y036737D01*
X010841Y036771D01*
X010867Y036803D01*
X010897Y036833D01*
X010929Y036859D01*
X010963Y036883D01*
X010999Y036903D01*
X011037Y036920D01*
X011077Y036933D01*
X011117Y036942D01*
X011158Y036948D01*
X011200Y036950D01*
X021500Y036950D01*
X021500Y036650D02*
X011200Y036650D01*
X011177Y036648D01*
X011154Y036643D01*
X011132Y036634D01*
X011112Y036621D01*
X011094Y036606D01*
X011079Y036588D01*
X011066Y036568D01*
X011057Y036546D01*
X011052Y036523D01*
X011050Y036500D01*
X015100Y031350D02*
X015102Y031420D01*
X015108Y031490D01*
X015118Y031559D01*
X015131Y031628D01*
X015149Y031696D01*
X015170Y031763D01*
X015195Y031828D01*
X015224Y031892D01*
X015256Y031955D01*
X015292Y032015D01*
X015331Y032073D01*
X015373Y032129D01*
X015418Y032183D01*
X015466Y032234D01*
X015517Y032282D01*
X015571Y032327D01*
X015627Y032369D01*
X015685Y032408D01*
X015745Y032444D01*
X015808Y032476D01*
X015872Y032505D01*
X015937Y032530D01*
X016004Y032551D01*
X016072Y032569D01*
X016141Y032582D01*
X016210Y032592D01*
X016280Y032598D01*
X016350Y032600D01*
X016420Y032598D01*
X016490Y032592D01*
X016559Y032582D01*
X016628Y032569D01*
X016696Y032551D01*
X016763Y032530D01*
X016828Y032505D01*
X016892Y032476D01*
X016955Y032444D01*
X017015Y032408D01*
X017073Y032369D01*
X017129Y032327D01*
X017183Y032282D01*
X017234Y032234D01*
X017282Y032183D01*
X017327Y032129D01*
X017369Y032073D01*
X017408Y032015D01*
X017444Y031955D01*
X017476Y031892D01*
X017505Y031828D01*
X017530Y031763D01*
X017551Y031696D01*
X017569Y031628D01*
X017582Y031559D01*
X017592Y031490D01*
X017598Y031420D01*
X017600Y031350D01*
X017598Y031280D01*
X017592Y031210D01*
X017582Y031141D01*
X017569Y031072D01*
X017551Y031004D01*
X017530Y030937D01*
X017505Y030872D01*
X017476Y030808D01*
X017444Y030745D01*
X017408Y030685D01*
X017369Y030627D01*
X017327Y030571D01*
X017282Y030517D01*
X017234Y030466D01*
X017183Y030418D01*
X017129Y030373D01*
X017073Y030331D01*
X017015Y030292D01*
X016955Y030256D01*
X016892Y030224D01*
X016828Y030195D01*
X016763Y030170D01*
X016696Y030149D01*
X016628Y030131D01*
X016559Y030118D01*
X016490Y030108D01*
X016420Y030102D01*
X016350Y030100D01*
X016280Y030102D01*
X016210Y030108D01*
X016141Y030118D01*
X016072Y030131D01*
X016004Y030149D01*
X015937Y030170D01*
X015872Y030195D01*
X015808Y030224D01*
X015745Y030256D01*
X015685Y030292D01*
X015627Y030331D01*
X015571Y030373D01*
X015517Y030418D01*
X015466Y030466D01*
X015418Y030517D01*
X015373Y030571D01*
X015331Y030627D01*
X015292Y030685D01*
X015256Y030745D01*
X015224Y030808D01*
X015195Y030872D01*
X015170Y030937D01*
X015149Y031004D01*
X015131Y031072D01*
X015118Y031141D01*
X015108Y031210D01*
X015102Y031280D01*
X015100Y031350D01*
X018350Y028850D02*
X018350Y027850D01*
X017850Y028350D02*
X018850Y028350D01*
X020350Y032350D02*
X020380Y032352D01*
X020410Y032357D01*
X020439Y032366D01*
X020466Y032379D01*
X020492Y032394D01*
X020516Y032413D01*
X020537Y032434D01*
X020556Y032458D01*
X020571Y032484D01*
X020584Y032511D01*
X020593Y032540D01*
X020598Y032570D01*
X020600Y032600D01*
X020598Y032630D01*
X020593Y032660D01*
X020584Y032689D01*
X020571Y032716D01*
X020556Y032742D01*
X020537Y032766D01*
X020516Y032787D01*
X020492Y032806D01*
X020466Y032821D01*
X020439Y032834D01*
X020410Y032843D01*
X020380Y032848D01*
X020350Y032850D01*
X020320Y032852D01*
X020290Y032857D01*
X020261Y032866D01*
X020234Y032879D01*
X020208Y032894D01*
X020184Y032913D01*
X020163Y032934D01*
X020144Y032958D01*
X020129Y032984D01*
X020116Y033011D01*
X020107Y033040D01*
X020102Y033070D01*
X020100Y033100D01*
X020102Y033130D01*
X020107Y033160D01*
X020116Y033189D01*
X020129Y033216D01*
X020144Y033242D01*
X020163Y033266D01*
X020184Y033287D01*
X020208Y033306D01*
X020234Y033321D01*
X020261Y033334D01*
X020290Y033343D01*
X020320Y033348D01*
X020350Y033350D01*
X021950Y036500D02*
X021948Y036542D01*
X021942Y036583D01*
X021933Y036623D01*
X021920Y036663D01*
X021903Y036701D01*
X021883Y036737D01*
X021859Y036771D01*
X021833Y036803D01*
X021803Y036833D01*
X021771Y036859D01*
X021737Y036883D01*
X021701Y036903D01*
X021663Y036920D01*
X021623Y036933D01*
X021583Y036942D01*
X021542Y036948D01*
X021500Y036950D01*
X021500Y036650D02*
X021523Y036648D01*
X021546Y036643D01*
X021568Y036634D01*
X021588Y036621D01*
X021606Y036606D01*
X021621Y036588D01*
X021634Y036568D01*
X021643Y036546D01*
X021648Y036523D01*
X021650Y036500D01*
M02*
