G75*
%MOIN*%
%OFA0B0*%
%FSLAX24Y24*%
%IPPOS*%
%LPD*%
%AMOC8*
5,1,8,0,0,1.08239X$1,22.5*
%
%ADD10C,0.0120*%
%ADD11C,0.0600*%
%ADD12C,0.1000*%
%ADD13C,0.0740*%
%ADD14C,0.0700*%
%ADD15C,0.0660*%
%ADD16R,0.0650X0.0650*%
%ADD17C,0.0885*%
%ADD18OC8,0.2000*%
%ADD19C,0.0059*%
%ADD20C,0.0650*%
%ADD21C,0.0500*%
%ADD22C,0.2540*%
%ADD23C,0.2000*%
%ADD24C,0.0160*%
D10*
X024726Y019640D02*
X024726Y020101D01*
X024956Y020331D01*
X025186Y020331D01*
X025646Y020101D01*
X025646Y020791D01*
X024726Y020791D01*
X024726Y019640D02*
X024956Y019410D01*
X025416Y019410D01*
X025646Y019640D01*
X026107Y019410D02*
X027028Y019410D01*
X026567Y019410D02*
X026567Y020791D01*
X027028Y020331D01*
X027488Y020561D02*
X027718Y020791D01*
X028179Y020791D01*
X028409Y020561D01*
X028409Y019640D01*
X027488Y020561D01*
X027488Y019640D01*
X027718Y019410D01*
X028179Y019410D01*
X028409Y019640D01*
X028869Y019410D02*
X029790Y019410D01*
X028869Y020331D01*
X028869Y020561D01*
X029099Y020791D01*
X029560Y020791D01*
X029790Y020561D01*
X029963Y017291D02*
X030884Y017291D01*
X030884Y015910D01*
X029963Y015910D01*
X029503Y015910D02*
X028582Y015910D01*
X028122Y016140D02*
X027892Y015910D01*
X027431Y015910D01*
X027201Y016140D01*
X027201Y016370D01*
X027431Y016601D01*
X027892Y016601D01*
X028122Y016831D01*
X028122Y017061D01*
X027892Y017291D01*
X027431Y017291D01*
X027201Y017061D01*
X028582Y017291D02*
X029503Y017291D01*
X029503Y015910D01*
X029503Y016601D02*
X029043Y016601D01*
X030424Y016601D02*
X030884Y016601D01*
X031344Y016831D02*
X031344Y017061D01*
X031575Y017291D01*
X032265Y017291D01*
X032265Y015910D01*
X031575Y015910D01*
X031344Y016140D01*
X031344Y016370D01*
X031575Y016601D01*
X032265Y016601D01*
X032726Y016140D02*
X032726Y017061D01*
X032956Y017291D01*
X033416Y017291D01*
X033646Y017061D01*
X033646Y016140D01*
X033416Y015910D01*
X032956Y015910D01*
X032726Y016140D01*
X031575Y016601D02*
X031344Y016831D01*
X034107Y017291D02*
X034107Y015910D01*
X035028Y017291D01*
X035028Y015910D01*
X035488Y015910D02*
X035488Y016831D01*
X035948Y017291D01*
X036409Y016831D01*
X036409Y015910D01*
X036869Y015910D02*
X036869Y017291D01*
X036409Y016601D02*
X035488Y016601D01*
X036869Y015910D02*
X037790Y017291D01*
X037790Y015910D01*
D11*
X021350Y006150D02*
X021350Y005550D01*
X020350Y005550D02*
X020350Y006150D01*
X019350Y006150D02*
X019350Y005550D01*
X019150Y012350D02*
X018550Y012350D01*
X018550Y013350D02*
X019150Y013350D01*
X019150Y014350D02*
X018550Y014350D01*
X009150Y015100D02*
X008550Y015100D01*
X008550Y016600D02*
X009150Y016600D01*
X009150Y018100D02*
X008550Y018100D01*
X008550Y019600D02*
X009150Y019600D01*
X009150Y022600D02*
X008550Y022600D01*
X008550Y024100D02*
X009150Y024100D01*
X009150Y025600D02*
X008550Y025600D01*
X008550Y027100D02*
X009150Y027100D01*
D12*
X012440Y027790D02*
X012440Y029760D01*
X007850Y034350D01*
X005472Y034350D01*
X005456Y034366D01*
X005456Y036334D02*
X006472Y037350D01*
X018850Y037350D01*
X020260Y035940D01*
X020260Y034910D01*
X022850Y032850D02*
X024350Y034350D01*
X026350Y036350D01*
X034850Y036350D01*
X039850Y034350D02*
X040850Y034350D01*
X040850Y028350D02*
X039850Y028350D01*
X028850Y022850D02*
X028350Y022850D01*
X024350Y026850D01*
X020350Y026850D01*
X020100Y027100D01*
X020100Y029450D01*
X020070Y029480D01*
X022850Y032850D02*
X014500Y032850D01*
X012440Y034910D01*
X039350Y014350D02*
X040350Y014350D01*
X040350Y008350D02*
X039350Y008350D01*
D13*
X028850Y005850D03*
X012850Y007850D03*
X009850Y007850D03*
X007850Y007850D03*
X004850Y007850D03*
X028850Y022850D03*
X034850Y019350D03*
X034850Y036350D03*
D14*
X044394Y036334D02*
X045094Y036334D01*
X045094Y034366D02*
X044394Y034366D01*
X044394Y017334D02*
X045094Y017334D01*
X045094Y015366D02*
X044394Y015366D01*
X011834Y005306D02*
X011834Y004606D01*
X009866Y004606D02*
X009866Y005306D01*
X007334Y005306D02*
X007334Y004606D01*
X005366Y004606D02*
X005366Y005306D01*
X005306Y016366D02*
X004606Y016366D01*
X004606Y018334D02*
X005306Y018334D01*
X005306Y023866D02*
X004606Y023866D01*
X004606Y025834D02*
X005306Y025834D01*
X005106Y029866D02*
X005806Y029866D01*
X005806Y031834D02*
X005106Y031834D01*
X005106Y034366D02*
X005806Y034366D01*
X005806Y036334D02*
X005106Y036334D01*
D15*
X024350Y034350D03*
X027350Y026850D03*
X013850Y020350D03*
X013850Y012850D03*
D16*
X013850Y015850D03*
X006350Y010850D03*
X015850Y004850D03*
X013850Y023350D03*
X024350Y026850D03*
X027350Y034350D03*
D17*
X034408Y020850D02*
X035293Y020850D01*
X040408Y020850D02*
X041293Y020850D01*
X035293Y007350D02*
X034408Y007350D01*
X029293Y007350D02*
X028408Y007350D01*
D18*
X020070Y027280D03*
X020070Y029480D03*
X014640Y027790D03*
X012440Y027790D03*
X012440Y034910D03*
X014640Y034910D03*
X018060Y034910D03*
X020260Y034910D03*
D19*
X030744Y020626D02*
X030574Y020456D01*
X030776Y020209D01*
X030725Y020109D01*
X030691Y020002D01*
X030373Y019970D01*
X030373Y019730D01*
X030691Y019698D01*
X030725Y019591D01*
X030776Y019491D01*
X030574Y019244D01*
X030744Y019074D01*
X030991Y019276D01*
X031091Y019225D01*
X031232Y019566D01*
X031179Y019594D01*
X031132Y019632D01*
X031094Y019679D01*
X031066Y019732D01*
X031048Y019790D01*
X031042Y019850D01*
X031049Y019913D01*
X031068Y019973D01*
X031099Y020028D01*
X031141Y020075D01*
X031191Y020113D01*
X031248Y020140D01*
X031310Y020155D01*
X031373Y020157D01*
X031435Y020146D01*
X031494Y020122D01*
X031546Y020087D01*
X031590Y020042D01*
X031625Y019989D01*
X031647Y019930D01*
X031657Y019867D01*
X031654Y019804D01*
X031638Y019743D01*
X031610Y019686D01*
X031572Y019637D01*
X031523Y019596D01*
X031468Y019566D01*
X031609Y019225D01*
X031709Y019276D01*
X031956Y019074D01*
X032126Y019244D01*
X031924Y019491D01*
X031975Y019591D01*
X032009Y019698D01*
X032327Y019730D01*
X032327Y019970D01*
X032009Y020002D01*
X031975Y020109D01*
X031924Y020209D01*
X032126Y020456D01*
X031956Y020626D01*
X031709Y020424D01*
X031609Y020475D01*
X031502Y020509D01*
X031470Y020827D01*
X031230Y020827D01*
X031198Y020509D01*
X031091Y020475D01*
X030991Y020424D01*
X030744Y020626D01*
X030699Y020581D02*
X030799Y020581D01*
X030870Y020523D02*
X030641Y020523D01*
X030584Y020466D02*
X030940Y020466D01*
X031072Y020466D02*
X031628Y020466D01*
X031760Y020466D02*
X032116Y020466D01*
X032086Y020408D02*
X030614Y020408D01*
X030661Y020350D02*
X032039Y020350D01*
X031993Y020293D02*
X030707Y020293D01*
X030754Y020235D02*
X031946Y020235D01*
X031940Y020178D02*
X030760Y020178D01*
X030731Y020120D02*
X031206Y020120D01*
X031129Y020063D02*
X030710Y020063D01*
X030692Y020005D02*
X031086Y020005D01*
X031060Y019948D02*
X030373Y019948D01*
X030373Y019890D02*
X031047Y019890D01*
X031044Y019832D02*
X030373Y019832D01*
X030373Y019775D02*
X031053Y019775D01*
X031074Y019717D02*
X030499Y019717D01*
X030703Y019660D02*
X031110Y019660D01*
X031169Y019602D02*
X030721Y019602D01*
X030749Y019545D02*
X031223Y019545D01*
X031200Y019487D02*
X030773Y019487D01*
X030726Y019430D02*
X031176Y019430D01*
X031152Y019372D02*
X030679Y019372D01*
X030632Y019314D02*
X031128Y019314D01*
X031104Y019257D02*
X031029Y019257D01*
X030968Y019257D02*
X030585Y019257D01*
X030619Y019199D02*
X030897Y019199D01*
X030827Y019142D02*
X030677Y019142D01*
X030734Y019084D02*
X030756Y019084D01*
X031524Y019430D02*
X031974Y019430D01*
X031927Y019487D02*
X031500Y019487D01*
X031477Y019545D02*
X031951Y019545D01*
X031979Y019602D02*
X031531Y019602D01*
X031590Y019660D02*
X031997Y019660D01*
X032201Y019717D02*
X031626Y019717D01*
X031647Y019775D02*
X032327Y019775D01*
X032327Y019832D02*
X031655Y019832D01*
X031653Y019890D02*
X032327Y019890D01*
X032327Y019948D02*
X031640Y019948D01*
X031614Y020005D02*
X032008Y020005D01*
X031990Y020063D02*
X031570Y020063D01*
X031496Y020120D02*
X031969Y020120D01*
X032059Y020523D02*
X031830Y020523D01*
X031901Y020581D02*
X032001Y020581D01*
X031501Y020523D02*
X031199Y020523D01*
X031205Y020581D02*
X031495Y020581D01*
X031489Y020638D02*
X031211Y020638D01*
X031217Y020696D02*
X031483Y020696D01*
X031477Y020753D02*
X031223Y020753D01*
X031228Y020811D02*
X031472Y020811D01*
X031548Y019372D02*
X032021Y019372D01*
X032068Y019314D02*
X031572Y019314D01*
X031596Y019257D02*
X031671Y019257D01*
X031732Y019257D02*
X032115Y019257D01*
X032081Y019199D02*
X031803Y019199D01*
X031873Y019142D02*
X032023Y019142D01*
X031966Y019084D02*
X031944Y019084D01*
D20*
X015850Y005850D03*
X005350Y010850D03*
D21*
X003454Y002697D02*
X003636Y002383D01*
X003730Y002032D01*
X003730Y001668D01*
X003636Y001317D01*
X003510Y001100D01*
X046690Y001100D01*
X046564Y001317D01*
X046470Y001668D01*
X046470Y002032D01*
X046564Y002383D01*
X046746Y002697D01*
X047003Y002954D01*
X047317Y003136D01*
X047668Y003230D01*
X048032Y003230D01*
X048383Y003136D01*
X048697Y002954D01*
X048954Y002697D01*
X048970Y002670D01*
X048970Y035115D01*
X048883Y035064D01*
X048532Y034970D01*
X048168Y034970D01*
X047817Y035064D01*
X047503Y035246D01*
X047246Y035503D01*
X047064Y035817D01*
X046970Y036168D01*
X046970Y036532D01*
X047064Y036883D01*
X047246Y037197D01*
X047503Y037454D01*
X047748Y037596D01*
X035029Y037596D01*
X035332Y037515D01*
X035618Y037350D01*
X035850Y037118D01*
X036015Y036832D01*
X036100Y036515D01*
X036100Y036185D01*
X036015Y035868D01*
X035850Y035582D01*
X035618Y035350D01*
X035332Y035185D01*
X035015Y035100D01*
X026868Y035100D01*
X025118Y033350D01*
X025118Y033350D01*
X023618Y031850D01*
X023332Y031685D01*
X023015Y031600D01*
X019071Y031600D01*
X019100Y031350D01*
X019052Y030937D01*
X019345Y031230D01*
X020795Y031230D01*
X021820Y030205D01*
X021820Y028755D01*
X021445Y028380D01*
X021725Y028100D01*
X024515Y028100D01*
X024832Y028015D01*
X025118Y027850D01*
X028868Y024100D01*
X029015Y024100D01*
X029332Y024015D01*
X029618Y023850D01*
X029850Y023618D01*
X030015Y023332D01*
X030100Y023015D01*
X030100Y022685D01*
X030015Y022368D01*
X029860Y022100D01*
X030373Y022100D01*
X030418Y022097D01*
X030463Y022092D01*
X030507Y022084D01*
X030551Y022073D01*
X030595Y022059D01*
X030637Y022043D01*
X030678Y022025D01*
X030719Y022004D01*
X030757Y021980D01*
X030795Y021954D01*
X030830Y021926D01*
X030864Y021896D01*
X030896Y021864D01*
X030926Y021830D01*
X030954Y021795D01*
X030980Y021757D01*
X031004Y021719D01*
X031025Y021678D01*
X031043Y021637D01*
X031058Y021599D01*
X031075Y021606D01*
X031116Y021606D01*
X031155Y021618D01*
X031270Y021606D01*
X031430Y021606D01*
X031545Y021618D01*
X031584Y021606D01*
X031625Y021606D01*
X031732Y021562D01*
X031843Y021529D01*
X031874Y021503D01*
X031912Y021488D01*
X031993Y021406D01*
X031994Y021405D01*
X031996Y021405D01*
X032111Y021405D01*
X032149Y021390D01*
X032189Y021385D01*
X032291Y021331D01*
X032398Y021286D01*
X032426Y021258D01*
X032462Y021238D01*
X032535Y021149D01*
X032649Y021035D01*
X032738Y020962D01*
X032758Y020926D01*
X032786Y020898D01*
X032830Y020792D01*
X032830Y026116D01*
X032968Y026630D01*
X033234Y027090D01*
X033610Y027466D01*
X036110Y029966D01*
X036570Y030232D01*
X037084Y030370D01*
X039492Y030370D01*
X039310Y030552D01*
X039139Y030848D01*
X039050Y031179D01*
X039050Y031521D01*
X039139Y031852D01*
X039310Y032148D01*
X039552Y032390D01*
X039848Y032561D01*
X040056Y032617D01*
X039675Y032719D01*
X039275Y032950D01*
X038950Y033275D01*
X038719Y033675D01*
X038600Y034120D01*
X038600Y034580D01*
X038719Y035025D01*
X038950Y035425D01*
X038965Y035440D01*
X039291Y035766D01*
X039690Y035996D01*
X040135Y036116D01*
X043728Y036116D01*
X043706Y036197D01*
X043694Y036288D01*
X043694Y036334D01*
X044744Y036334D01*
X044744Y036334D01*
X045794Y036334D01*
X045794Y036288D01*
X045782Y036197D01*
X045758Y036109D01*
X045723Y036024D01*
X045677Y035945D01*
X045625Y035877D01*
X045818Y035766D01*
X046144Y035440D01*
X046374Y035041D01*
X046494Y034596D01*
X046494Y034135D01*
X046374Y033690D01*
X046144Y033291D01*
X045818Y032965D01*
X045419Y032735D01*
X044974Y032616D01*
X040649Y032616D01*
X040852Y032561D01*
X041148Y032390D01*
X041390Y032148D01*
X041561Y031852D01*
X041650Y031521D01*
X041650Y031179D01*
X041561Y030848D01*
X041390Y030552D01*
X041148Y030310D01*
X041051Y030253D01*
X041130Y030232D01*
X041590Y029966D01*
X041966Y029590D01*
X042232Y029130D01*
X042370Y028616D01*
X042370Y028084D01*
X042232Y027570D01*
X041966Y027110D01*
X041590Y026734D01*
X041130Y026468D01*
X040616Y026330D01*
X038187Y026330D01*
X036870Y025013D01*
X036870Y019084D01*
X036740Y018600D01*
X038373Y018600D01*
X038418Y018597D01*
X038463Y018592D01*
X038507Y018584D01*
X038551Y018573D01*
X038595Y018559D01*
X038637Y018543D01*
X038678Y018525D01*
X038719Y018504D01*
X038757Y018480D01*
X038795Y018454D01*
X038830Y018426D01*
X038864Y018396D01*
X038896Y018364D01*
X038926Y018330D01*
X038954Y018295D01*
X038980Y018257D01*
X039004Y018219D01*
X039025Y018178D01*
X039043Y018137D01*
X039059Y018095D01*
X039073Y018051D01*
X039084Y018007D01*
X039092Y017963D01*
X039097Y017918D01*
X039100Y017873D01*
X039100Y017075D01*
X040775Y018750D01*
X041175Y018981D01*
X041620Y019100D01*
X044958Y019100D01*
X045403Y018981D01*
X045802Y018750D01*
X046128Y018425D01*
X046144Y018409D01*
X046374Y018010D01*
X046494Y017565D01*
X046494Y017104D01*
X046374Y016659D01*
X046144Y016260D01*
X045818Y015934D01*
X045625Y015823D01*
X045677Y015755D01*
X045723Y015676D01*
X045758Y015591D01*
X045782Y015503D01*
X045794Y015412D01*
X045794Y015366D01*
X044744Y015366D01*
X044744Y015366D01*
X045794Y015366D01*
X045794Y015320D01*
X045782Y015229D01*
X045758Y015140D01*
X045723Y015055D01*
X045677Y014976D01*
X045621Y014903D01*
X045556Y014838D01*
X045483Y014782D01*
X045404Y014737D01*
X045319Y014701D01*
X045231Y014678D01*
X045140Y014666D01*
X044744Y014666D01*
X044744Y015366D01*
X044744Y015366D01*
X044744Y015366D01*
X043694Y015366D01*
X043694Y015412D01*
X043706Y015503D01*
X043729Y015591D01*
X043733Y015600D01*
X042575Y015600D01*
X041600Y014625D01*
X041600Y014120D01*
X041481Y013675D01*
X041250Y013275D01*
X040925Y012950D01*
X040525Y012719D01*
X040144Y012617D01*
X040352Y012561D01*
X040648Y012390D01*
X040890Y012148D01*
X041061Y011852D01*
X041150Y011521D01*
X041150Y011179D01*
X041061Y010848D01*
X040890Y010552D01*
X040648Y010310D01*
X040551Y010253D01*
X040630Y010232D01*
X041090Y009966D01*
X041466Y009590D01*
X041732Y009130D01*
X041870Y008616D01*
X041870Y005584D01*
X041732Y005070D01*
X041466Y004610D01*
X039466Y002610D01*
X039090Y002234D01*
X038630Y001968D01*
X038116Y001830D01*
X030584Y001830D01*
X030070Y001968D01*
X029610Y002234D01*
X027234Y004610D01*
X026968Y005070D01*
X026830Y005584D01*
X026830Y007616D01*
X026968Y008130D01*
X027234Y008590D01*
X027610Y008966D01*
X028070Y009232D01*
X028584Y009370D01*
X029116Y009370D01*
X029630Y009232D01*
X030090Y008966D01*
X030466Y008590D01*
X030732Y008130D01*
X030870Y007616D01*
X030870Y006687D01*
X031687Y005870D01*
X037013Y005870D01*
X037830Y006687D01*
X037830Y008616D01*
X037968Y009130D01*
X038234Y009590D01*
X038610Y009966D01*
X039070Y010232D01*
X039149Y010253D01*
X039052Y010310D01*
X038810Y010552D01*
X038639Y010848D01*
X038550Y011179D01*
X038550Y011521D01*
X038639Y011852D01*
X038810Y012148D01*
X039052Y012390D01*
X039348Y012561D01*
X039556Y012617D01*
X039175Y012719D01*
X038775Y012950D01*
X038450Y013275D01*
X038219Y013675D01*
X038100Y014120D01*
X038100Y014600D01*
X025186Y014600D01*
X025141Y014603D01*
X025096Y014608D01*
X025051Y014616D01*
X025007Y014627D01*
X024964Y014641D01*
X024922Y014657D01*
X024880Y014675D01*
X024840Y014696D01*
X024801Y014720D01*
X024764Y014746D01*
X024728Y014774D01*
X024694Y014804D01*
X024662Y014836D01*
X024632Y014870D01*
X024604Y014905D01*
X024579Y014943D01*
X024555Y014981D01*
X024534Y015022D01*
X024515Y015063D01*
X024499Y015105D01*
X024486Y015149D01*
X024475Y015193D01*
X024467Y015237D01*
X024461Y015282D01*
X024459Y015327D01*
X024459Y016526D01*
X024317Y016564D01*
X024003Y016746D01*
X023746Y017003D01*
X023564Y017317D01*
X023470Y017668D01*
X023470Y018032D01*
X023564Y018383D01*
X023746Y018697D01*
X023837Y018789D01*
X023835Y018827D01*
X023835Y021373D01*
X023838Y021418D01*
X023843Y021463D01*
X023851Y021507D01*
X023862Y021551D01*
X023876Y021595D01*
X023892Y021637D01*
X023910Y021678D01*
X023931Y021719D01*
X023955Y021757D01*
X023980Y021795D01*
X024008Y021830D01*
X024038Y021864D01*
X024071Y021896D01*
X024104Y021926D01*
X024140Y021954D01*
X024177Y021980D01*
X024216Y022004D01*
X024256Y022025D01*
X024298Y022043D01*
X024340Y022059D01*
X024383Y022073D01*
X024427Y022084D01*
X024472Y022092D01*
X024517Y022097D01*
X024562Y022100D01*
X027332Y022100D01*
X023832Y025600D01*
X020865Y025600D01*
X020795Y025530D01*
X019345Y025530D01*
X018320Y026555D01*
X018320Y028005D01*
X018695Y028380D01*
X018320Y028755D01*
X018320Y029453D01*
X017992Y029144D01*
X017992Y029144D01*
X017439Y028825D01*
X017439Y028825D01*
X016828Y028642D01*
X016828Y028642D01*
X016294Y028611D01*
X016390Y028515D01*
X016390Y027065D01*
X015365Y026040D01*
X013915Y026040D01*
X013540Y026415D01*
X013165Y026040D01*
X012324Y026040D01*
X013939Y024425D01*
X014324Y024425D01*
X014600Y024311D01*
X014811Y024100D01*
X014925Y023824D01*
X014925Y023689D01*
X021916Y016698D01*
X021916Y016698D01*
X022198Y016416D01*
X022350Y016049D01*
X022350Y006475D01*
X022400Y006288D01*
X022400Y005412D01*
X022328Y005145D01*
X022190Y004905D01*
X021995Y004710D01*
X021755Y004572D01*
X021488Y004500D01*
X021212Y004500D01*
X020945Y004572D01*
X020705Y004710D01*
X020510Y004905D01*
X020502Y004918D01*
X020477Y004911D01*
X020393Y004900D01*
X020350Y004900D01*
X020350Y005225D01*
X020350Y005225D01*
X020350Y004900D01*
X020307Y004900D01*
X020223Y004911D01*
X020198Y004918D01*
X020190Y004905D01*
X019995Y004710D01*
X019755Y004572D01*
X019488Y004500D01*
X019414Y004500D01*
X019304Y004390D01*
X019023Y004109D01*
X018655Y003956D01*
X016667Y003956D01*
X016600Y003889D01*
X016324Y003775D01*
X015376Y003775D01*
X015100Y003889D01*
X015033Y003956D01*
X012729Y003956D01*
X012714Y003931D01*
X012510Y003726D01*
X012259Y003581D01*
X011979Y003506D01*
X011689Y003506D01*
X011410Y003581D01*
X011159Y003726D01*
X010954Y003931D01*
X010809Y004182D01*
X010734Y004461D01*
X010734Y005451D01*
X010809Y005731D01*
X010850Y005802D01*
X010850Y007549D01*
X011002Y007916D01*
X011502Y008416D01*
X011784Y008698D01*
X012151Y008850D01*
X012342Y008850D01*
X012418Y008894D01*
X012703Y008970D01*
X012997Y008970D01*
X013282Y008894D01*
X013538Y008746D01*
X013746Y008538D01*
X013894Y008282D01*
X013970Y007997D01*
X013970Y007703D01*
X013894Y007418D01*
X013746Y007162D01*
X013538Y006954D01*
X013282Y006806D01*
X012997Y006730D01*
X012850Y006730D01*
X012850Y005956D01*
X015183Y005956D01*
X015187Y005982D01*
X015209Y006067D01*
X015243Y006149D01*
X015288Y006226D01*
X015341Y006296D01*
X015404Y006359D01*
X015474Y006412D01*
X015551Y006457D01*
X015633Y006491D01*
X015718Y006513D01*
X015806Y006525D01*
X015850Y006525D01*
X015850Y005956D01*
X015850Y006525D01*
X015894Y006525D01*
X015982Y006513D01*
X016067Y006491D01*
X016149Y006457D01*
X016226Y006412D01*
X016296Y006359D01*
X016359Y006296D01*
X016412Y006226D01*
X016457Y006149D01*
X016491Y006067D01*
X016513Y005982D01*
X016517Y005956D01*
X018042Y005956D01*
X018300Y006214D01*
X018300Y006288D01*
X018372Y006555D01*
X018510Y006795D01*
X018705Y006990D01*
X018945Y007128D01*
X019212Y007200D01*
X019488Y007200D01*
X019755Y007128D01*
X019995Y006990D01*
X020190Y006795D01*
X020198Y006782D01*
X020223Y006789D01*
X020307Y006800D01*
X020350Y006800D01*
X020350Y006475D01*
X020350Y006475D01*
X020350Y015436D01*
X013511Y022275D01*
X013376Y022275D01*
X013100Y022389D01*
X012889Y022600D01*
X012856Y022679D01*
X012752Y022784D01*
X010173Y025362D01*
X010128Y025195D01*
X009990Y024955D01*
X009885Y024850D01*
X009990Y024745D01*
X010128Y024505D01*
X010200Y024238D01*
X010200Y023962D01*
X010128Y023695D01*
X009990Y023455D01*
X009795Y023260D01*
X009555Y023122D01*
X009542Y023118D01*
X009579Y023090D01*
X009640Y023029D01*
X009692Y022962D01*
X009734Y022888D01*
X009767Y022809D01*
X009789Y022727D01*
X009800Y022643D01*
X009800Y022600D01*
X008850Y022600D01*
X008850Y022600D01*
X009800Y022600D01*
X009800Y022557D01*
X009789Y022473D01*
X009767Y022391D01*
X009734Y022312D01*
X009692Y022238D01*
X009640Y022171D01*
X009579Y022110D01*
X009512Y022058D01*
X009438Y022016D01*
X009359Y021983D01*
X009277Y021961D01*
X009193Y021950D01*
X008850Y021950D01*
X008850Y022600D01*
X008850Y022600D01*
X008850Y022600D01*
X007900Y022600D01*
X007900Y022643D01*
X007911Y022727D01*
X007933Y022809D01*
X007966Y022888D01*
X008008Y022962D01*
X008060Y023029D01*
X008121Y023090D01*
X008134Y023100D01*
X006096Y023100D01*
X005982Y022986D01*
X005731Y022841D01*
X005451Y022766D01*
X004461Y022766D01*
X004182Y022841D01*
X003931Y022986D01*
X003726Y023190D01*
X003581Y023441D01*
X003506Y023721D01*
X003506Y024011D01*
X003581Y024290D01*
X001600Y024290D01*
X001600Y024789D02*
X004005Y024789D01*
X003931Y024746D02*
X004111Y024850D01*
X003931Y024954D01*
X003726Y025159D01*
X003581Y025410D01*
X003506Y025689D01*
X003506Y025979D01*
X003581Y026259D01*
X003726Y026510D01*
X003931Y026714D01*
X004182Y026859D01*
X004461Y026934D01*
X005451Y026934D01*
X005731Y026859D01*
X005982Y026714D01*
X006096Y026600D01*
X007626Y026600D01*
X007572Y026695D01*
X007500Y026962D01*
X007500Y027238D01*
X007572Y027505D01*
X007710Y027745D01*
X007905Y027940D01*
X008145Y028078D01*
X008412Y028150D01*
X009288Y028150D01*
X009475Y028100D01*
X010049Y028100D01*
X010416Y027948D01*
X010690Y027674D01*
X010690Y028515D01*
X011190Y029015D01*
X011190Y029242D01*
X007332Y033100D01*
X005307Y033100D01*
X004990Y033185D01*
X004754Y033321D01*
X004682Y033341D01*
X004431Y033486D01*
X004226Y033690D01*
X004081Y033941D01*
X004006Y034221D01*
X004006Y034511D01*
X004081Y034790D01*
X004226Y035041D01*
X004431Y035246D01*
X004611Y035350D01*
X004431Y035454D01*
X004226Y035659D01*
X004081Y035910D01*
X004006Y036189D01*
X004006Y036479D01*
X004081Y036759D01*
X004226Y037010D01*
X004431Y037214D01*
X004682Y037359D01*
X004725Y037371D01*
X004950Y037596D01*
X002952Y037596D01*
X003197Y037454D01*
X003454Y037197D01*
X003636Y036883D01*
X003730Y036532D01*
X003730Y036168D01*
X003636Y035817D01*
X003454Y035503D01*
X003197Y035246D01*
X002883Y035064D01*
X002532Y034970D01*
X002168Y034970D01*
X001817Y035064D01*
X001600Y035190D01*
X001600Y003010D01*
X001817Y003136D01*
X002168Y003230D01*
X002532Y003230D01*
X002883Y003136D01*
X003197Y002954D01*
X003454Y002697D01*
X003297Y002854D02*
X028989Y002854D01*
X028490Y003353D02*
X001600Y003353D01*
X001600Y003851D02*
X004565Y003851D01*
X004486Y003931D02*
X004690Y003726D01*
X004941Y003581D01*
X005221Y003506D01*
X005511Y003506D01*
X005790Y003581D01*
X006041Y003726D01*
X006246Y003931D01*
X006391Y004182D01*
X006466Y004461D01*
X006466Y005451D01*
X006391Y005731D01*
X006246Y005982D01*
X006041Y006187D01*
X005850Y006297D01*
X005850Y007342D01*
X005894Y007418D01*
X005916Y007502D01*
X005916Y007502D01*
X005916Y007502D01*
X006198Y007784D01*
X006350Y008151D01*
X006350Y010432D01*
X006350Y010432D01*
X006350Y010175D01*
X006709Y010175D01*
X006777Y010188D01*
X006841Y010215D01*
X006898Y010253D01*
X006947Y010302D01*
X006985Y010359D01*
X007012Y010423D01*
X007025Y010491D01*
X007025Y010850D01*
X007025Y011209D01*
X007012Y011277D01*
X006985Y011341D01*
X006947Y011398D01*
X006898Y011447D01*
X006841Y011485D01*
X006777Y011512D01*
X006709Y011525D01*
X006350Y011525D01*
X006350Y011268D01*
X006350Y013436D01*
X007014Y014100D01*
X008225Y014100D01*
X008412Y014050D01*
X009288Y014050D01*
X009475Y014100D01*
X009686Y014100D01*
X011502Y012284D01*
X011784Y012002D01*
X012151Y011850D01*
X013422Y011850D01*
X013433Y011844D01*
X013708Y011770D01*
X013992Y011770D01*
X014267Y011844D01*
X014278Y011850D01*
X016049Y011850D01*
X016416Y012002D01*
X016764Y012350D01*
X018225Y012350D01*
X018225Y012350D01*
X017900Y012350D01*
X017900Y012307D01*
X017911Y012223D01*
X017933Y012141D01*
X017966Y012062D01*
X018008Y011988D01*
X018060Y011921D01*
X018121Y011860D01*
X018188Y011808D01*
X018262Y011766D01*
X018341Y011733D01*
X018423Y011711D01*
X018507Y011700D01*
X018850Y011700D01*
X019193Y011700D01*
X019277Y011711D01*
X019359Y011733D01*
X019438Y011766D01*
X019512Y011808D01*
X019579Y011860D01*
X019640Y011921D01*
X019692Y011988D01*
X019734Y012062D01*
X019767Y012141D01*
X019789Y012223D01*
X019800Y012307D01*
X019800Y012350D01*
X019800Y012393D01*
X019789Y012477D01*
X019782Y012502D01*
X019795Y012510D01*
X019990Y012705D01*
X020128Y012945D01*
X020200Y013212D01*
X020200Y013488D01*
X020128Y013755D01*
X020074Y013850D01*
X020128Y013945D01*
X020200Y014212D01*
X020200Y014488D01*
X020128Y014755D01*
X019990Y014995D01*
X019795Y015190D01*
X019555Y015328D01*
X019288Y015400D01*
X018412Y015400D01*
X018256Y015358D01*
X017198Y016416D01*
X016916Y016698D01*
X016549Y016850D01*
X014505Y016850D01*
X014324Y016925D01*
X014189Y016925D01*
X010948Y020166D01*
X010666Y020448D01*
X010299Y020600D01*
X009475Y020600D01*
X009288Y020650D01*
X008412Y020650D01*
X008145Y020578D01*
X007905Y020440D01*
X007710Y020245D01*
X007572Y020005D01*
X007500Y019738D01*
X007500Y019462D01*
X007572Y019195D01*
X007626Y019100D01*
X006096Y019100D01*
X005982Y019214D01*
X005731Y019359D01*
X005451Y019434D01*
X004461Y019434D01*
X004182Y019359D01*
X003931Y019214D01*
X003726Y019010D01*
X003581Y018759D01*
X003506Y018479D01*
X003506Y018189D01*
X003581Y017910D01*
X003726Y017659D01*
X003931Y017454D01*
X004111Y017350D01*
X003931Y017246D01*
X003726Y017041D01*
X003581Y016790D01*
X003506Y016511D01*
X003506Y016221D01*
X003581Y015941D01*
X003726Y015690D01*
X003931Y015486D01*
X004182Y015341D01*
X004461Y015266D01*
X005352Y015266D01*
X004784Y014698D01*
X004784Y014698D01*
X004502Y014416D01*
X004350Y014049D01*
X004350Y011268D01*
X004348Y011265D01*
X004275Y010992D01*
X004275Y010708D01*
X004348Y010435D01*
X004350Y010432D01*
X004350Y008855D01*
X004162Y008746D01*
X003954Y008538D01*
X003806Y008282D01*
X003730Y007997D01*
X003730Y007703D01*
X003806Y007418D01*
X003850Y007342D01*
X003850Y005273D01*
X004002Y004906D01*
X004266Y004642D01*
X004266Y004461D01*
X004341Y004182D01*
X004486Y003931D01*
X004296Y004350D02*
X001600Y004350D01*
X001600Y004849D02*
X004059Y004849D01*
X003850Y005347D02*
X001600Y005347D01*
X001600Y005846D02*
X003850Y005846D01*
X003850Y006344D02*
X001600Y006344D01*
X001600Y006843D02*
X003850Y006843D01*
X003850Y007341D02*
X001600Y007341D01*
X001600Y007840D02*
X003730Y007840D01*
X003838Y008338D02*
X001600Y008338D01*
X001600Y008837D02*
X004319Y008837D01*
X004350Y009335D02*
X001600Y009335D01*
X001600Y009834D02*
X004350Y009834D01*
X004350Y010332D02*
X001600Y010332D01*
X001600Y010831D02*
X004275Y010831D01*
X004350Y011329D02*
X001600Y011329D01*
X001600Y011828D02*
X004350Y011828D01*
X004350Y012326D02*
X001600Y012326D01*
X001600Y012825D02*
X004350Y012825D01*
X004350Y013323D02*
X001600Y013323D01*
X001600Y013822D02*
X004350Y013822D01*
X004462Y014320D02*
X001600Y014320D01*
X001600Y014819D02*
X004904Y014819D01*
X004270Y015317D02*
X001600Y015317D01*
X001600Y015816D02*
X003654Y015816D01*
X003506Y016314D02*
X001600Y016314D01*
X001600Y016813D02*
X003594Y016813D01*
X004044Y017311D02*
X001600Y017311D01*
X001600Y017810D02*
X003639Y017810D01*
X003506Y018308D02*
X001600Y018308D01*
X001600Y018807D02*
X003609Y018807D01*
X004088Y019305D02*
X001600Y019305D01*
X001600Y019804D02*
X007517Y019804D01*
X007767Y020302D02*
X001600Y020302D01*
X001600Y020801D02*
X013339Y020801D01*
X013338Y020799D02*
X013283Y020729D01*
X013239Y020651D01*
X013205Y020569D01*
X013182Y020483D01*
X013170Y020395D01*
X013170Y020350D01*
X013850Y020350D01*
X013850Y020350D01*
X013850Y021030D01*
X013895Y021030D01*
X013983Y021018D01*
X014069Y020995D01*
X014151Y020961D01*
X014229Y020917D01*
X014299Y020862D01*
X014362Y020799D01*
X014417Y020729D01*
X014461Y020651D01*
X014495Y020569D01*
X014518Y020483D01*
X014530Y020395D01*
X014530Y020350D01*
X013850Y020350D01*
X013850Y020350D01*
X013850Y020350D01*
X013850Y021030D01*
X013805Y021030D01*
X013717Y021018D01*
X013631Y020995D01*
X013549Y020961D01*
X013471Y020917D01*
X013401Y020862D01*
X013338Y020799D01*
X013170Y020350D02*
X013170Y020305D01*
X013182Y020217D01*
X013205Y020131D01*
X013239Y020049D01*
X013283Y019971D01*
X013338Y019901D01*
X013401Y019838D01*
X013471Y019783D01*
X013549Y019739D01*
X013631Y019705D01*
X013717Y019682D01*
X013805Y019670D01*
X013850Y019670D01*
X013895Y019670D01*
X013983Y019682D01*
X014069Y019705D01*
X014151Y019739D01*
X014229Y019783D01*
X014299Y019838D01*
X014362Y019901D01*
X014417Y019971D01*
X014461Y020049D01*
X014495Y020131D01*
X014518Y020217D01*
X014530Y020305D01*
X014530Y020350D01*
X013850Y020350D01*
X013850Y019670D01*
X013850Y020350D01*
X013850Y020350D01*
X013170Y020350D01*
X013170Y020302D02*
X010812Y020302D01*
X011311Y019804D02*
X013445Y019804D01*
X013850Y019804D02*
X013850Y019804D01*
X014255Y019804D02*
X015982Y019804D01*
X015484Y020302D02*
X014530Y020302D01*
X014361Y020801D02*
X014985Y020801D01*
X014487Y021299D02*
X001600Y021299D01*
X001600Y021798D02*
X013988Y021798D01*
X013325Y022296D02*
X009725Y022296D01*
X009771Y022795D02*
X012741Y022795D01*
X012243Y023293D02*
X009828Y023293D01*
X010154Y023792D02*
X011744Y023792D01*
X011246Y024290D02*
X010186Y024290D01*
X009946Y024789D02*
X010747Y024789D01*
X010249Y025287D02*
X010153Y025287D01*
X008850Y025600D02*
X005191Y025600D01*
X004956Y025834D01*
X004049Y026783D02*
X001600Y026783D01*
X001600Y027281D02*
X007511Y027281D01*
X007548Y026783D02*
X005864Y026783D01*
X007745Y027780D02*
X001600Y027780D01*
X001600Y028278D02*
X010690Y028278D01*
X010952Y028777D02*
X001600Y028777D01*
X001600Y029275D02*
X004729Y029275D01*
X004717Y029282D02*
X004796Y029237D01*
X004881Y029201D01*
X004969Y029178D01*
X005060Y029166D01*
X005456Y029166D01*
X005456Y029866D01*
X005456Y030566D01*
X005060Y030566D01*
X004969Y030554D01*
X004881Y030530D01*
X004796Y030495D01*
X004717Y030449D01*
X004644Y030393D01*
X004579Y030328D01*
X004523Y030255D01*
X004477Y030176D01*
X004442Y030091D01*
X004418Y030003D01*
X004406Y029912D01*
X004406Y029866D01*
X005456Y029866D01*
X005456Y029866D01*
X005456Y029866D01*
X004406Y029866D01*
X004406Y029820D01*
X004418Y029729D01*
X004442Y029640D01*
X004477Y029555D01*
X004523Y029476D01*
X004579Y029403D01*
X004644Y029338D01*
X004717Y029282D01*
X004412Y029774D02*
X001600Y029774D01*
X001600Y030272D02*
X004536Y030272D01*
X005456Y030272D02*
X005456Y030272D01*
X005456Y030566D02*
X005456Y029866D01*
X005456Y029866D01*
X006506Y029866D01*
X006506Y029912D01*
X006494Y030003D01*
X006471Y030091D01*
X006435Y030176D01*
X006390Y030255D01*
X006334Y030328D01*
X006269Y030393D01*
X006196Y030449D01*
X006117Y030495D01*
X006032Y030530D01*
X005943Y030554D01*
X005852Y030566D01*
X005456Y030566D01*
X005456Y029866D02*
X005456Y029866D01*
X005456Y029166D01*
X005852Y029166D01*
X005943Y029178D01*
X006032Y029201D01*
X006117Y029237D01*
X006196Y029282D01*
X006269Y029338D01*
X006334Y029403D01*
X006390Y029476D01*
X006435Y029555D01*
X006471Y029640D01*
X006494Y029729D01*
X006506Y029820D01*
X006506Y029866D01*
X005456Y029866D01*
X005456Y029774D02*
X005456Y029774D01*
X005456Y029275D02*
X005456Y029275D01*
X006183Y029275D02*
X011157Y029275D01*
X010659Y029774D02*
X006500Y029774D01*
X006377Y030272D02*
X010160Y030272D01*
X009662Y030771D02*
X001600Y030771D01*
X001600Y031269D02*
X004693Y031269D01*
X004717Y031251D02*
X004796Y031205D01*
X004881Y031170D01*
X004969Y031146D01*
X005060Y031134D01*
X005456Y031134D01*
X005456Y031834D01*
X004406Y031834D01*
X004406Y031788D01*
X004418Y031697D01*
X004442Y031609D01*
X004477Y031524D01*
X004523Y031445D01*
X004579Y031372D01*
X004644Y031307D01*
X004717Y031251D01*
X004409Y031768D02*
X001600Y031768D01*
X001600Y032266D02*
X004555Y032266D01*
X004579Y032297D02*
X004523Y032224D01*
X004477Y032145D01*
X004442Y032060D01*
X004418Y031971D01*
X004406Y031880D01*
X004406Y031834D01*
X005456Y031834D01*
X005456Y031834D01*
X005456Y031834D01*
X005456Y031134D01*
X005852Y031134D01*
X005943Y031146D01*
X006032Y031170D01*
X006117Y031205D01*
X006196Y031251D01*
X006269Y031307D01*
X006334Y031372D01*
X006390Y031445D01*
X006435Y031524D01*
X006471Y031609D01*
X006494Y031697D01*
X006506Y031788D01*
X006506Y031834D01*
X005456Y031834D01*
X005456Y032534D01*
X005060Y032534D01*
X004969Y032522D01*
X004881Y032499D01*
X004796Y032463D01*
X004717Y032418D01*
X004644Y032362D01*
X004579Y032297D01*
X005456Y032266D02*
X005456Y032266D01*
X005456Y032534D02*
X005456Y031834D01*
X005456Y031834D01*
X005456Y031834D01*
X006506Y031834D01*
X006506Y031880D01*
X006494Y031971D01*
X006471Y032060D01*
X006435Y032145D01*
X006390Y032224D01*
X006334Y032297D01*
X006269Y032362D01*
X006196Y032418D01*
X006117Y032463D01*
X006032Y032499D01*
X005943Y032522D01*
X005852Y032534D01*
X005456Y032534D01*
X005456Y031768D02*
X005456Y031768D01*
X005456Y031269D02*
X005456Y031269D01*
X006220Y031269D02*
X009163Y031269D01*
X008665Y031768D02*
X006504Y031768D01*
X006357Y032266D02*
X008166Y032266D01*
X007668Y032765D02*
X001600Y032765D01*
X001600Y033263D02*
X004855Y033263D01*
X004185Y033762D02*
X001600Y033762D01*
X001600Y034260D02*
X004006Y034260D01*
X004073Y034759D02*
X001600Y034759D01*
X003209Y035257D02*
X004450Y035257D01*
X004170Y035756D02*
X003600Y035756D01*
X003730Y036254D02*
X004006Y036254D01*
X004080Y036753D02*
X003671Y036753D01*
X003400Y037251D02*
X004494Y037251D01*
X016390Y028278D02*
X018593Y028278D01*
X018320Y028777D02*
X017278Y028777D01*
X018131Y029275D02*
X018320Y029275D01*
X018320Y027780D02*
X016390Y027780D01*
X016390Y027281D02*
X018320Y027281D01*
X018320Y026783D02*
X016107Y026783D01*
X015609Y026284D02*
X018591Y026284D01*
X019090Y025786D02*
X012579Y025786D01*
X013077Y025287D02*
X024145Y025287D01*
X024644Y024789D02*
X013576Y024789D01*
X014621Y024290D02*
X025142Y024290D01*
X025641Y023792D02*
X014925Y023792D01*
X015321Y023293D02*
X026139Y023293D01*
X026638Y022795D02*
X015820Y022795D01*
X016318Y022296D02*
X027136Y022296D01*
X028678Y024290D02*
X032830Y024290D01*
X032830Y024789D02*
X028179Y024789D01*
X027681Y025287D02*
X032830Y025287D01*
X032830Y025786D02*
X027182Y025786D01*
X027217Y026182D02*
X027305Y026170D01*
X027350Y026170D01*
X027395Y026170D01*
X027483Y026182D01*
X027569Y026205D01*
X027651Y026239D01*
X027729Y026283D01*
X027799Y026338D01*
X027862Y026401D01*
X027917Y026471D01*
X027961Y026549D01*
X027995Y026631D01*
X028018Y026717D01*
X028030Y026805D01*
X028030Y026850D01*
X028030Y026895D01*
X028018Y026983D01*
X027995Y027069D01*
X027961Y027151D01*
X027917Y027229D01*
X027862Y027299D01*
X027799Y027362D01*
X027729Y027417D01*
X027651Y027461D01*
X027569Y027495D01*
X027483Y027518D01*
X027395Y027530D01*
X027350Y027530D01*
X027350Y026850D01*
X028030Y026850D01*
X027350Y026850D01*
X027350Y026850D01*
X027350Y026850D01*
X027350Y026170D01*
X027350Y026850D01*
X027350Y026850D01*
X027350Y026850D01*
X026670Y026850D01*
X026670Y026895D01*
X026682Y026983D01*
X026705Y027069D01*
X026739Y027151D01*
X026783Y027229D01*
X026838Y027299D01*
X026901Y027362D01*
X026971Y027417D01*
X027049Y027461D01*
X027131Y027495D01*
X027217Y027518D01*
X027305Y027530D01*
X027350Y027530D01*
X027350Y026850D01*
X026670Y026850D01*
X026670Y026805D01*
X026682Y026717D01*
X026705Y026631D01*
X026739Y026549D01*
X026783Y026471D01*
X026838Y026401D01*
X026901Y026338D01*
X026971Y026283D01*
X027049Y026239D01*
X027131Y026205D01*
X027217Y026182D01*
X027350Y026284D02*
X027350Y026284D01*
X027729Y026284D02*
X032875Y026284D01*
X033056Y026783D02*
X028027Y026783D01*
X027876Y027281D02*
X033424Y027281D01*
X033923Y027780D02*
X025188Y027780D01*
X025687Y027281D02*
X026824Y027281D01*
X026673Y026783D02*
X026185Y026783D01*
X026684Y026284D02*
X026971Y026284D01*
X027350Y026783D02*
X027350Y026783D01*
X027350Y027281D02*
X027350Y027281D01*
X030003Y030246D02*
X030317Y030064D01*
X030668Y029970D01*
X031032Y029970D01*
X031383Y030064D01*
X031697Y030246D01*
X031954Y030503D01*
X032136Y030817D01*
X032230Y031168D01*
X032230Y031532D01*
X032136Y031883D01*
X031954Y032197D01*
X031697Y032454D01*
X031383Y032636D01*
X031032Y032730D01*
X030668Y032730D01*
X030317Y032636D01*
X030003Y032454D01*
X029746Y032197D01*
X029564Y031883D01*
X029470Y031532D01*
X029470Y031168D01*
X029564Y030817D01*
X029746Y030503D01*
X030003Y030246D01*
X029976Y030272D02*
X021753Y030272D01*
X021254Y030771D02*
X029591Y030771D01*
X029470Y031269D02*
X019091Y031269D01*
X021820Y029774D02*
X035917Y029774D01*
X035418Y029275D02*
X021820Y029275D01*
X021820Y028777D02*
X034920Y028777D01*
X034421Y028278D02*
X021547Y028278D01*
X023475Y031768D02*
X029533Y031768D01*
X029815Y032266D02*
X024034Y032266D01*
X024532Y032765D02*
X039596Y032765D01*
X039428Y032266D02*
X031885Y032266D01*
X032167Y031768D02*
X039116Y031768D01*
X039050Y031269D02*
X032230Y031269D01*
X032109Y030771D02*
X039183Y030771D01*
X041083Y030272D02*
X048970Y030272D01*
X048970Y030771D02*
X041517Y030771D01*
X041650Y031269D02*
X048970Y031269D01*
X048970Y031768D02*
X041584Y031768D01*
X041272Y032266D02*
X048970Y032266D01*
X048970Y032765D02*
X045470Y032765D01*
X046116Y033263D02*
X048970Y033263D01*
X048970Y033762D02*
X046394Y033762D01*
X046494Y034260D02*
X048970Y034260D01*
X048970Y034759D02*
X046450Y034759D01*
X046250Y035257D02*
X047491Y035257D01*
X047100Y035756D02*
X045829Y035756D01*
X045789Y036254D02*
X046970Y036254D01*
X047029Y036753D02*
X045655Y036753D01*
X045677Y036724D02*
X045621Y036797D01*
X045556Y036862D01*
X045483Y036918D01*
X045404Y036963D01*
X045319Y036999D01*
X045231Y037022D01*
X045140Y037034D01*
X044744Y037034D01*
X044744Y036334D01*
X045794Y036334D01*
X045794Y036380D01*
X045782Y036471D01*
X045758Y036560D01*
X045723Y036645D01*
X045677Y036724D01*
X044744Y036753D02*
X044744Y036753D01*
X044744Y037034D02*
X044348Y037034D01*
X044257Y037022D01*
X044168Y036999D01*
X044083Y036963D01*
X044004Y036918D01*
X043931Y036862D01*
X043866Y036797D01*
X043810Y036724D01*
X043765Y036645D01*
X043729Y036560D01*
X043706Y036471D01*
X043694Y036380D01*
X043694Y036334D01*
X044744Y036334D01*
X044744Y036334D01*
X044744Y036334D01*
X044744Y037034D01*
X043832Y036753D02*
X036036Y036753D01*
X035717Y037251D02*
X047300Y037251D01*
X043698Y036254D02*
X036100Y036254D01*
X035950Y035756D02*
X039281Y035756D01*
X038853Y035257D02*
X035457Y035257D01*
X038648Y034759D02*
X028015Y034759D01*
X028012Y034777D02*
X027985Y034841D01*
X027947Y034898D01*
X027898Y034947D01*
X027841Y034985D01*
X027777Y035012D01*
X027709Y035025D01*
X027350Y035025D01*
X027350Y034350D01*
X028025Y034350D01*
X028025Y034709D01*
X028012Y034777D01*
X028025Y034350D02*
X027350Y034350D01*
X027350Y034350D01*
X027350Y034350D01*
X027350Y033675D01*
X027709Y033675D01*
X027777Y033688D01*
X027841Y033715D01*
X027898Y033753D01*
X027947Y033802D01*
X027985Y033859D01*
X028012Y033923D01*
X028025Y033991D01*
X028025Y034350D01*
X028025Y034260D02*
X038600Y034260D01*
X038696Y033762D02*
X027906Y033762D01*
X027350Y033762D02*
X027350Y033762D01*
X027350Y033675D02*
X027350Y034350D01*
X027350Y034350D01*
X027350Y034350D01*
X026675Y034350D01*
X026675Y034709D01*
X026688Y034777D01*
X026715Y034841D01*
X026753Y034898D01*
X026802Y034947D01*
X026859Y034985D01*
X026923Y035012D01*
X026991Y035025D01*
X027350Y035025D01*
X027350Y034350D01*
X026675Y034350D01*
X026675Y033991D01*
X026688Y033923D01*
X026715Y033859D01*
X026753Y033802D01*
X026802Y033753D01*
X026859Y033715D01*
X026923Y033688D01*
X026991Y033675D01*
X027350Y033675D01*
X026794Y033762D02*
X025529Y033762D01*
X026028Y034260D02*
X026675Y034260D01*
X027350Y034260D02*
X027350Y034260D01*
X027350Y034759D02*
X027350Y034759D01*
X026685Y034759D02*
X026526Y034759D01*
X025031Y033263D02*
X038962Y033263D01*
X036718Y030272D02*
X031724Y030272D01*
X037642Y025786D02*
X048970Y025786D01*
X048970Y025287D02*
X039864Y025287D01*
X039954Y025197D02*
X039697Y025454D01*
X039383Y025636D01*
X039032Y025730D01*
X038668Y025730D01*
X038317Y025636D01*
X038003Y025454D01*
X037746Y025197D01*
X037564Y024883D01*
X037470Y024532D01*
X037470Y024168D01*
X037564Y023817D01*
X037746Y023503D01*
X038003Y023246D01*
X038317Y023064D01*
X038668Y022970D01*
X039032Y022970D01*
X039383Y023064D01*
X039697Y023246D01*
X039954Y023503D01*
X040136Y023817D01*
X040230Y024168D01*
X040230Y024532D01*
X040136Y024883D01*
X039954Y025197D01*
X040161Y024789D02*
X048970Y024789D01*
X048970Y024290D02*
X040230Y024290D01*
X040121Y023792D02*
X048970Y023792D01*
X048970Y023293D02*
X039745Y023293D01*
X037955Y023293D02*
X036870Y023293D01*
X036870Y022795D02*
X048970Y022795D01*
X048970Y022296D02*
X036870Y022296D01*
X036870Y021798D02*
X048970Y021798D01*
X048970Y021299D02*
X041947Y021299D01*
X041953Y021291D02*
X041890Y021374D01*
X041816Y021447D01*
X041734Y021510D01*
X041644Y021562D01*
X041548Y021602D01*
X041447Y021629D01*
X041344Y021642D01*
X040850Y021642D01*
X040356Y021642D01*
X040253Y021629D01*
X040152Y021602D01*
X040056Y021562D01*
X039966Y021510D01*
X039884Y021447D01*
X039810Y021374D01*
X039747Y021291D01*
X039695Y021201D01*
X039655Y021105D01*
X039629Y021005D01*
X039615Y020902D01*
X039615Y020850D01*
X040850Y020850D01*
X040850Y020850D01*
X040850Y021642D01*
X040850Y020850D01*
X042085Y020850D01*
X042085Y020902D01*
X042071Y021005D01*
X042045Y021105D01*
X042005Y021201D01*
X041953Y021291D01*
X042085Y020850D02*
X040850Y020850D01*
X040850Y020850D01*
X040850Y020058D01*
X041344Y020058D01*
X041447Y020071D01*
X041548Y020098D01*
X041644Y020138D01*
X041734Y020190D01*
X041816Y020253D01*
X041890Y020326D01*
X041953Y020409D01*
X042005Y020499D01*
X042045Y020595D01*
X042071Y020695D01*
X042085Y020798D01*
X042085Y020850D01*
X042085Y020801D02*
X048970Y020801D01*
X048970Y020302D02*
X041865Y020302D01*
X040850Y020302D02*
X040850Y020302D01*
X040850Y020058D02*
X040850Y020850D01*
X040850Y020850D01*
X040850Y020850D01*
X039615Y020850D01*
X039615Y020798D01*
X039629Y020695D01*
X039655Y020595D01*
X039695Y020499D01*
X039747Y020409D01*
X039810Y020326D01*
X039884Y020253D01*
X039966Y020190D01*
X040056Y020138D01*
X040152Y020098D01*
X040253Y020071D01*
X040356Y020058D01*
X040850Y020058D01*
X040850Y020801D02*
X040850Y020801D01*
X040850Y021299D02*
X040850Y021299D01*
X039753Y021299D02*
X036870Y021299D01*
X036870Y020801D02*
X039615Y020801D01*
X039835Y020302D02*
X036870Y020302D01*
X036870Y019804D02*
X048970Y019804D01*
X048970Y019305D02*
X036870Y019305D01*
X036796Y018807D02*
X040873Y018807D01*
X040333Y018308D02*
X038944Y018308D01*
X039100Y017810D02*
X039835Y017810D01*
X039336Y017311D02*
X039100Y017311D01*
X041793Y014819D02*
X043957Y014819D01*
X043931Y014838D02*
X044004Y014782D01*
X044083Y014737D01*
X044168Y014701D01*
X044257Y014678D01*
X044348Y014666D01*
X044744Y014666D01*
X044744Y015366D01*
X043694Y015366D01*
X043694Y015320D01*
X043706Y015229D01*
X043729Y015140D01*
X043765Y015055D01*
X043810Y014976D01*
X043866Y014903D01*
X043931Y014838D01*
X043694Y015317D02*
X042292Y015317D01*
X041600Y014320D02*
X048970Y014320D01*
X048970Y013822D02*
X041520Y013822D01*
X041278Y013323D02*
X048970Y013323D01*
X048970Y012825D02*
X040708Y012825D01*
X040712Y012326D02*
X048970Y012326D01*
X048970Y011828D02*
X041068Y011828D01*
X041150Y011329D02*
X048970Y011329D01*
X048970Y010831D02*
X041051Y010831D01*
X040670Y010332D02*
X048970Y010332D01*
X048970Y009834D02*
X041223Y009834D01*
X041614Y009335D02*
X048970Y009335D01*
X048970Y008837D02*
X041811Y008837D01*
X041870Y008338D02*
X048970Y008338D01*
X048970Y007840D02*
X041870Y007840D01*
X041870Y007341D02*
X048970Y007341D01*
X048970Y006843D02*
X041870Y006843D01*
X041870Y006344D02*
X048970Y006344D01*
X048970Y005846D02*
X041870Y005846D01*
X041806Y005347D02*
X048970Y005347D01*
X048970Y004849D02*
X041604Y004849D01*
X041207Y004350D02*
X048970Y004350D01*
X048970Y003851D02*
X040708Y003851D01*
X040210Y003353D02*
X048970Y003353D01*
X048970Y002854D02*
X048797Y002854D01*
X046903Y002854D02*
X039711Y002854D01*
X039213Y002356D02*
X046557Y002356D01*
X046470Y001857D02*
X038219Y001857D01*
X037487Y006344D02*
X031213Y006344D01*
X030870Y006843D02*
X033798Y006843D01*
X033810Y006826D02*
X033884Y006753D01*
X033966Y006690D01*
X034056Y006638D01*
X034152Y006598D01*
X034253Y006571D01*
X034356Y006558D01*
X034850Y006558D01*
X034850Y007350D01*
X034850Y007350D01*
X034850Y008142D01*
X035344Y008142D01*
X035447Y008129D01*
X035548Y008102D01*
X035644Y008062D01*
X035734Y008010D01*
X035816Y007947D01*
X035890Y007874D01*
X035953Y007791D01*
X036005Y007701D01*
X036045Y007605D01*
X036071Y007505D01*
X036085Y007402D01*
X036085Y007350D01*
X034850Y007350D01*
X034850Y007350D01*
X034850Y006557D01*
X035344Y006558D01*
X035447Y006571D01*
X035548Y006598D01*
X035644Y006638D01*
X035734Y006690D01*
X035816Y006753D01*
X035890Y006826D01*
X035953Y006909D01*
X036005Y006999D01*
X036045Y007095D01*
X036071Y007195D01*
X036085Y007298D01*
X036085Y007350D01*
X034850Y007350D01*
X034850Y007350D01*
X034850Y007350D01*
X033615Y007350D01*
X033615Y007402D01*
X033629Y007505D01*
X033655Y007605D01*
X033695Y007701D01*
X033747Y007791D01*
X033810Y007874D01*
X033884Y007947D01*
X033966Y008010D01*
X034056Y008062D01*
X034152Y008102D01*
X034253Y008129D01*
X034356Y008142D01*
X034850Y008142D01*
X034850Y007350D01*
X033615Y007350D01*
X033615Y007298D01*
X033629Y007195D01*
X033655Y007095D01*
X033695Y006999D01*
X033747Y006909D01*
X033810Y006826D01*
X033615Y007341D02*
X030870Y007341D01*
X030810Y007840D02*
X033784Y007840D01*
X034850Y007840D02*
X034850Y007840D01*
X034850Y007341D02*
X034850Y007341D01*
X034850Y006843D02*
X034850Y006843D01*
X035902Y006843D02*
X037830Y006843D01*
X037830Y007341D02*
X036085Y007341D01*
X035916Y007840D02*
X037830Y007840D01*
X037830Y008338D02*
X030612Y008338D01*
X030220Y008837D02*
X037889Y008837D01*
X038086Y009335D02*
X029247Y009335D01*
X028453Y009335D02*
X022350Y009335D01*
X022350Y009834D02*
X031915Y009834D01*
X032003Y009746D02*
X032317Y009564D01*
X032668Y009470D01*
X033032Y009470D01*
X033383Y009564D01*
X033697Y009746D01*
X033954Y010003D01*
X034136Y010317D01*
X034230Y010668D01*
X034230Y011032D01*
X034136Y011383D01*
X033954Y011697D01*
X033697Y011954D01*
X033383Y012136D01*
X033032Y012230D01*
X032668Y012230D01*
X032317Y012136D01*
X032003Y011954D01*
X031746Y011697D01*
X031564Y011383D01*
X031470Y011032D01*
X031470Y010668D01*
X031564Y010317D01*
X031746Y010003D01*
X032003Y009746D01*
X031560Y010332D02*
X022350Y010332D01*
X022350Y010831D02*
X031470Y010831D01*
X031550Y011329D02*
X022350Y011329D01*
X022350Y011828D02*
X031876Y011828D01*
X033824Y011828D02*
X038632Y011828D01*
X038550Y011329D02*
X034150Y011329D01*
X034230Y010831D02*
X038649Y010831D01*
X039030Y010332D02*
X034140Y010332D01*
X033785Y009834D02*
X038477Y009834D01*
X038988Y012326D02*
X022350Y012326D01*
X022350Y012825D02*
X038992Y012825D01*
X038422Y013323D02*
X022350Y013323D01*
X022350Y013822D02*
X038180Y013822D01*
X038100Y014320D02*
X022350Y014320D01*
X022350Y014819D02*
X024680Y014819D01*
X024459Y015317D02*
X022350Y015317D01*
X022350Y015816D02*
X024459Y015816D01*
X024459Y016314D02*
X022240Y016314D01*
X021802Y016813D02*
X023936Y016813D01*
X023568Y017311D02*
X021303Y017311D01*
X020805Y017810D02*
X023470Y017810D01*
X023544Y018308D02*
X020306Y018308D01*
X019808Y018807D02*
X023836Y018807D01*
X023835Y019305D02*
X019309Y019305D01*
X018811Y019804D02*
X023835Y019804D01*
X023835Y020302D02*
X018312Y020302D01*
X017814Y020801D02*
X023835Y020801D01*
X023835Y021299D02*
X017315Y021299D01*
X016817Y021798D02*
X023983Y021798D01*
X029676Y023792D02*
X032830Y023792D01*
X032830Y023293D02*
X030025Y023293D01*
X030100Y022795D02*
X032830Y022795D01*
X032830Y022296D02*
X029974Y022296D01*
X030952Y021798D02*
X032830Y021798D01*
X032830Y021299D02*
X032367Y021299D01*
X032827Y020801D02*
X032830Y020801D01*
X036870Y023792D02*
X037579Y023792D01*
X037470Y024290D02*
X036870Y024290D01*
X036870Y024789D02*
X037539Y024789D01*
X037836Y025287D02*
X037144Y025287D01*
X038141Y026284D02*
X048970Y026284D01*
X048970Y026783D02*
X041639Y026783D01*
X042065Y027281D02*
X048970Y027281D01*
X048970Y027780D02*
X042288Y027780D01*
X042370Y028278D02*
X048970Y028278D01*
X048970Y028777D02*
X042327Y028777D01*
X042148Y029275D02*
X048970Y029275D01*
X048970Y029774D02*
X041783Y029774D01*
X045705Y018807D02*
X048970Y018807D01*
X048970Y018308D02*
X046202Y018308D01*
X046428Y017810D02*
X048970Y017810D01*
X048970Y017311D02*
X046494Y017311D01*
X046416Y016813D02*
X048970Y016813D01*
X048970Y016314D02*
X046175Y016314D01*
X045631Y015816D02*
X048970Y015816D01*
X048970Y015317D02*
X045793Y015317D01*
X045530Y014819D02*
X048970Y014819D01*
X044744Y014819D02*
X044744Y014819D01*
X044744Y015317D02*
X044744Y015317D01*
X029487Y002356D02*
X003643Y002356D01*
X003730Y001857D02*
X030481Y001857D01*
X027992Y003851D02*
X016509Y003851D01*
X015850Y004850D02*
X015956Y004956D01*
X018456Y004956D01*
X019350Y005850D01*
X018315Y006344D02*
X016311Y006344D01*
X015850Y006344D02*
X015850Y006344D01*
X015850Y005956D02*
X015850Y005956D01*
X015389Y006344D02*
X012850Y006344D01*
X013345Y006843D02*
X018558Y006843D01*
X020142Y006843D02*
X020350Y006843D01*
X020350Y007341D02*
X013849Y007341D01*
X013970Y007840D02*
X020350Y007840D01*
X020350Y008338D02*
X013862Y008338D01*
X013381Y008837D02*
X020350Y008837D01*
X020350Y009335D02*
X006350Y009335D01*
X006350Y009834D02*
X020350Y009834D01*
X020350Y010332D02*
X006967Y010332D01*
X007025Y010831D02*
X020350Y010831D01*
X020350Y011329D02*
X006990Y011329D01*
X007025Y010850D02*
X006425Y010850D01*
X006425Y010850D01*
X007025Y010850D01*
X006350Y011268D02*
X006350Y011268D01*
X006350Y011329D02*
X006350Y011329D01*
X006350Y011828D02*
X013493Y011828D01*
X014207Y011828D02*
X018163Y011828D01*
X017900Y012326D02*
X016740Y012326D01*
X015850Y012850D02*
X016350Y013350D01*
X018850Y013350D01*
X018850Y014350D02*
X017850Y014350D01*
X016350Y015850D01*
X013850Y015850D01*
X010100Y019600D01*
X008850Y019600D01*
X007542Y019305D02*
X005825Y019305D01*
X004956Y018334D02*
X005191Y018100D01*
X008850Y018100D01*
X008850Y016600D02*
X005191Y016600D01*
X004956Y016366D01*
X006600Y015100D02*
X008850Y015100D01*
X010100Y015100D01*
X012350Y012850D01*
X013850Y012850D01*
X015850Y012850D01*
X018850Y012300D02*
X018850Y011700D01*
X018850Y012300D01*
X018850Y012300D01*
X018850Y011828D02*
X018850Y011828D01*
X019537Y011828D02*
X020350Y011828D01*
X020350Y012326D02*
X019800Y012326D01*
X019800Y012350D02*
X019475Y012350D01*
X019800Y012350D01*
X019475Y012350D02*
X019475Y012350D01*
X020059Y012825D02*
X020350Y012825D01*
X020350Y013323D02*
X020200Y013323D01*
X020090Y013822D02*
X020350Y013822D01*
X020350Y014320D02*
X020200Y014320D01*
X020092Y014819D02*
X020350Y014819D01*
X020350Y015317D02*
X019575Y015317D01*
X019970Y015816D02*
X017799Y015816D01*
X017300Y016314D02*
X019472Y016314D01*
X018973Y016813D02*
X016639Y016813D01*
X017976Y017810D02*
X013305Y017810D01*
X012806Y018308D02*
X017478Y018308D01*
X016979Y018807D02*
X012308Y018807D01*
X011809Y019305D02*
X016481Y019305D01*
X018475Y017311D02*
X013803Y017311D01*
X013850Y020302D02*
X013850Y020302D01*
X013850Y020801D02*
X013850Y020801D01*
X013850Y023350D02*
X021350Y015850D01*
X021350Y005850D01*
X022400Y005846D02*
X026830Y005846D01*
X026830Y006344D02*
X022385Y006344D01*
X022350Y006843D02*
X026830Y006843D01*
X026830Y007341D02*
X022350Y007341D01*
X022350Y007840D02*
X026890Y007840D01*
X027088Y008338D02*
X022350Y008338D01*
X022350Y008837D02*
X027480Y008837D01*
X026894Y005347D02*
X022383Y005347D01*
X022133Y004849D02*
X027096Y004849D01*
X027493Y004350D02*
X019264Y004350D01*
X020133Y004849D02*
X020567Y004849D01*
X020350Y005225D02*
X020350Y005225D01*
X015850Y004850D02*
X015744Y004956D01*
X011834Y004956D01*
X011850Y004972D01*
X011850Y007350D01*
X012350Y007850D01*
X012850Y007850D01*
X012119Y008837D02*
X006350Y008837D01*
X006350Y008338D02*
X007320Y008338D01*
X007308Y008326D02*
X007250Y008251D01*
X007203Y008169D01*
X007167Y008082D01*
X007142Y007991D01*
X007130Y007897D01*
X007130Y007850D01*
X007850Y007850D01*
X008570Y007850D01*
X008570Y007897D01*
X008558Y007991D01*
X008533Y008082D01*
X008497Y008169D01*
X008450Y008251D01*
X008392Y008326D01*
X008326Y008392D01*
X008251Y008450D01*
X008169Y008497D01*
X008082Y008533D01*
X007991Y008558D01*
X007897Y008570D01*
X007850Y008570D01*
X007850Y007850D01*
X007850Y007850D01*
X007850Y007850D01*
X008570Y007850D01*
X008570Y007803D01*
X008558Y007709D01*
X008533Y007618D01*
X008497Y007531D01*
X008450Y007449D01*
X008392Y007374D01*
X008326Y007308D01*
X008251Y007250D01*
X008169Y007203D01*
X008082Y007167D01*
X007991Y007142D01*
X007897Y007130D01*
X007850Y007130D01*
X007850Y007850D01*
X007850Y007850D01*
X007850Y007850D01*
X007850Y008570D01*
X007803Y008570D01*
X007709Y008558D01*
X007618Y008533D01*
X007531Y008497D01*
X007449Y008450D01*
X007374Y008392D01*
X007308Y008326D01*
X007130Y007850D02*
X007130Y007803D01*
X007142Y007709D01*
X007167Y007618D01*
X007203Y007531D01*
X007250Y007449D01*
X007308Y007374D01*
X007374Y007308D01*
X007449Y007250D01*
X007531Y007203D01*
X007618Y007167D01*
X007709Y007142D01*
X007803Y007130D01*
X007850Y007130D01*
X007850Y007850D01*
X007130Y007850D01*
X007130Y007840D02*
X006221Y007840D01*
X005850Y007341D02*
X007341Y007341D01*
X007850Y007341D02*
X007850Y007341D01*
X007850Y007840D02*
X007850Y007840D01*
X007850Y008338D02*
X007850Y008338D01*
X008380Y008338D02*
X009320Y008338D01*
X009308Y008326D02*
X009250Y008251D01*
X009203Y008169D01*
X009167Y008082D01*
X009142Y007991D01*
X009130Y007897D01*
X009130Y007850D01*
X009850Y007850D01*
X010570Y007850D01*
X010570Y007897D01*
X010558Y007991D01*
X010533Y008082D01*
X010497Y008169D01*
X010450Y008251D01*
X010392Y008326D01*
X010326Y008392D01*
X010251Y008450D01*
X010169Y008497D01*
X010082Y008533D01*
X009991Y008558D01*
X009897Y008570D01*
X009850Y008570D01*
X009850Y007850D01*
X009850Y007850D01*
X009850Y007850D01*
X010570Y007850D01*
X010570Y007803D01*
X010558Y007709D01*
X010533Y007618D01*
X010497Y007531D01*
X010450Y007449D01*
X010392Y007374D01*
X010326Y007308D01*
X010251Y007250D01*
X010169Y007203D01*
X010082Y007167D01*
X009991Y007142D01*
X009897Y007130D01*
X009850Y007130D01*
X009850Y007850D01*
X009850Y007850D01*
X009850Y007850D01*
X009850Y008570D01*
X009803Y008570D01*
X009709Y008558D01*
X009618Y008533D01*
X009531Y008497D01*
X009449Y008450D01*
X009374Y008392D01*
X009308Y008326D01*
X009130Y007850D02*
X009130Y007803D01*
X009142Y007709D01*
X009167Y007618D01*
X009203Y007531D01*
X009250Y007449D01*
X009308Y007374D01*
X009374Y007308D01*
X009449Y007250D01*
X009531Y007203D01*
X009618Y007167D01*
X009709Y007142D01*
X009803Y007130D01*
X009850Y007130D01*
X009850Y007850D01*
X009130Y007850D01*
X009130Y007840D02*
X008570Y007840D01*
X008359Y007341D02*
X009341Y007341D01*
X009850Y007341D02*
X009850Y007341D01*
X009850Y007840D02*
X009850Y007840D01*
X009850Y008338D02*
X009850Y008338D01*
X010380Y008338D02*
X011424Y008338D01*
X010970Y007840D02*
X010570Y007840D01*
X010359Y007341D02*
X010850Y007341D01*
X010850Y006843D02*
X005850Y006843D01*
X005850Y006344D02*
X010850Y006344D01*
X010850Y005846D02*
X010313Y005846D01*
X010328Y005834D02*
X010255Y005890D01*
X010176Y005935D01*
X010091Y005971D01*
X010003Y005994D01*
X009912Y006006D01*
X009866Y006006D01*
X009866Y004956D01*
X009866Y004956D01*
X010566Y004956D01*
X010566Y004560D01*
X010554Y004469D01*
X010530Y004381D01*
X010495Y004296D01*
X010449Y004217D01*
X010393Y004144D01*
X010328Y004079D01*
X010255Y004023D01*
X010176Y003977D01*
X010091Y003942D01*
X010003Y003918D01*
X009912Y003906D01*
X009866Y003906D01*
X009866Y004956D01*
X009866Y004956D01*
X009866Y003906D01*
X009820Y003906D01*
X009729Y003918D01*
X009640Y003942D01*
X009555Y003977D01*
X009476Y004023D01*
X009403Y004079D01*
X009338Y004144D01*
X009282Y004217D01*
X009237Y004296D01*
X009201Y004381D01*
X009178Y004469D01*
X009166Y004560D01*
X009166Y004956D01*
X009866Y004956D01*
X010566Y004956D01*
X010566Y005352D01*
X010554Y005443D01*
X010530Y005532D01*
X010495Y005617D01*
X010449Y005696D01*
X010393Y005769D01*
X010328Y005834D01*
X009866Y005846D02*
X009866Y005846D01*
X009866Y006006D02*
X009820Y006006D01*
X009729Y005994D01*
X009640Y005971D01*
X009555Y005935D01*
X009476Y005890D01*
X009403Y005834D01*
X009338Y005769D01*
X009282Y005696D01*
X009237Y005617D01*
X009201Y005532D01*
X009178Y005443D01*
X009166Y005352D01*
X009166Y004956D01*
X009866Y004956D01*
X009866Y004956D01*
X009866Y004956D01*
X009866Y006006D01*
X009419Y005846D02*
X007781Y005846D01*
X007797Y005834D02*
X007724Y005890D01*
X007645Y005935D01*
X007560Y005971D01*
X007471Y005994D01*
X007380Y006006D01*
X007334Y006006D01*
X007288Y006006D01*
X007197Y005994D01*
X007109Y005971D01*
X007024Y005935D01*
X006945Y005890D01*
X006872Y005834D01*
X006807Y005769D01*
X006751Y005696D01*
X006705Y005617D01*
X006670Y005532D01*
X006646Y005443D01*
X006634Y005352D01*
X006634Y004956D01*
X006634Y004560D01*
X006646Y004469D01*
X006670Y004381D01*
X006705Y004296D01*
X006751Y004217D01*
X006807Y004144D01*
X006872Y004079D01*
X006945Y004023D01*
X007024Y003977D01*
X007109Y003942D01*
X007197Y003918D01*
X007288Y003906D01*
X007334Y003906D01*
X007334Y004956D01*
X007334Y004956D01*
X006634Y004956D01*
X007334Y004956D01*
X007334Y004956D01*
X007334Y003906D01*
X007380Y003906D01*
X007471Y003918D01*
X007560Y003942D01*
X007645Y003977D01*
X007724Y004023D01*
X007797Y004079D01*
X007862Y004144D01*
X007918Y004217D01*
X007963Y004296D01*
X007999Y004381D01*
X008022Y004469D01*
X008034Y004560D01*
X008034Y004956D01*
X007334Y004956D01*
X007334Y004956D01*
X007334Y006006D01*
X007334Y004956D01*
X007334Y004956D01*
X008034Y004956D01*
X008034Y005352D01*
X008022Y005443D01*
X007999Y005532D01*
X007963Y005617D01*
X007918Y005696D01*
X007862Y005769D01*
X007797Y005834D01*
X007334Y005846D02*
X007334Y005846D01*
X006887Y005846D02*
X006325Y005846D01*
X006466Y005347D02*
X006634Y005347D01*
X006634Y004849D02*
X006466Y004849D01*
X006436Y004350D02*
X006683Y004350D01*
X007334Y004350D02*
X007334Y004350D01*
X007334Y004849D02*
X007334Y004849D01*
X007334Y005347D02*
X007334Y005347D01*
X008034Y005347D02*
X009166Y005347D01*
X009166Y004849D02*
X008034Y004849D01*
X007986Y004350D02*
X009214Y004350D01*
X009866Y004350D02*
X009866Y004350D01*
X009866Y004849D02*
X009866Y004849D01*
X009866Y005347D02*
X009866Y005347D01*
X010566Y005347D02*
X010734Y005347D01*
X010734Y004849D02*
X010566Y004849D01*
X010517Y004350D02*
X010764Y004350D01*
X011033Y003851D02*
X006167Y003851D01*
X005366Y004956D02*
X004850Y005472D01*
X004850Y007850D01*
X005350Y008350D01*
X005350Y010850D01*
X005350Y013850D01*
X006600Y015100D01*
X006736Y013822D02*
X009964Y013822D01*
X010463Y013323D02*
X006350Y013323D01*
X006350Y012825D02*
X010961Y012825D01*
X011460Y012326D02*
X006350Y012326D01*
X006350Y010332D02*
X006350Y010332D01*
X012635Y003851D02*
X015191Y003851D01*
X003647Y001359D02*
X046553Y001359D01*
X013850Y023350D02*
X013600Y023350D01*
X009850Y027100D01*
X008850Y027100D01*
X010585Y027780D02*
X010690Y027780D01*
X013409Y026284D02*
X013671Y026284D01*
X008850Y024100D02*
X005191Y024100D01*
X004956Y023866D01*
X003931Y024746D02*
X003726Y024541D01*
X003581Y024290D01*
X003506Y023792D02*
X001600Y023792D01*
X001600Y023293D02*
X003667Y023293D01*
X004354Y022795D02*
X001600Y022795D01*
X001600Y022296D02*
X007975Y022296D01*
X007966Y022312D02*
X008008Y022238D01*
X008060Y022171D01*
X008121Y022110D01*
X008188Y022058D01*
X008262Y022016D01*
X008341Y021983D01*
X008423Y021961D01*
X008507Y021950D01*
X008850Y021950D01*
X008850Y022600D01*
X007900Y022600D01*
X007900Y022557D01*
X007911Y022473D01*
X007933Y022391D01*
X007966Y022312D01*
X007929Y022795D02*
X005558Y022795D01*
X003652Y025287D02*
X001600Y025287D01*
X001600Y025786D02*
X003506Y025786D01*
X003596Y026284D02*
X001600Y026284D01*
X008850Y022296D02*
X008850Y022296D01*
D22*
X028850Y007350D02*
X028850Y005850D01*
X030850Y003850D01*
X037850Y003850D01*
X039850Y005850D01*
X039850Y008350D01*
X034850Y019350D02*
X034850Y020850D01*
X034850Y025850D01*
X037350Y028350D01*
X040350Y028350D01*
D23*
X040350Y034350D02*
X040366Y034366D01*
X044744Y034366D01*
X044728Y017350D02*
X041850Y017350D01*
X039850Y015350D01*
X039850Y014350D01*
X044728Y017350D02*
X044744Y017334D01*
D24*
X020350Y007350D02*
X020350Y005850D01*
X020350Y004350D01*
X020350Y007350D02*
X015850Y007350D01*
X015850Y005850D01*
M02*
