%
M48
M72
T01C0.0276
T02C0.0354
T03C0.0400
T04C0.0433
T05C0.0520
T06C0.0590
T07C0.0787
T08C0.0790
T09C0.1100
T10C0.1260
%
T01
X5350Y10850
X6350Y10850
X15850Y5850
X15850Y4850
T02
X12850Y7850
X9850Y7850
X7850Y7850
X4850Y7850
X28850Y5850
X34850Y19350
X28850Y22850
X34850Y36350
T03
X27350Y34350
X24350Y34350
X24350Y26850
X27350Y26850
X13850Y23350
X13850Y20350
X8850Y19600
X8850Y18100
X8850Y16600
X8850Y15100
X13850Y15850
X13850Y12850
X18850Y12350
X18850Y13350
X18850Y14350
X19350Y5850
X20350Y5850
X21350Y5850
X8850Y22600
X8850Y24100
X8850Y25600
X8850Y27100
T04
X5456Y29866
X5456Y31834
X5456Y34366
X5456Y36334
X4956Y25834
X4956Y23866
X4956Y18334
X4956Y16366
X5366Y4956
X7334Y4956
X9866Y4956
X11834Y4956
X44744Y15366
X44744Y17334
X44744Y34366
X44744Y36334
T05
X40350Y34350
X40350Y28350
X39850Y14350
X39850Y8350
T06
X34850Y7350
X28850Y7350
X34850Y20850
X40850Y20850
T07
X20100Y28100
X20100Y28850
X13850Y27850
X13100Y27850
X13100Y34850
X13850Y34850
X18850Y34850
X19600Y34850
T08
X20260Y34910
X18060Y34910
X14640Y34910
X12440Y34910
X20070Y29480
X20070Y27280
X14640Y27790
X12440Y27790
T09
X39850Y11350
X40350Y31350
T10
X2350Y1850
X24850Y17850
X32850Y10850
X47850Y1850
X38850Y24350
X30850Y31350
X48350Y36350
X2350Y36350
M30
