G75*
%MOIN*%
%OFA0B0*%
%FSLAX24Y24*%
%IPPOS*%
%LPD*%
%AMOC8*
5,1,8,0,0,1.08239X$1,22.5*
%
%ADD10C,0.0000*%
%ADD11C,0.0600*%
%ADD12C,0.1000*%
%ADD13C,0.0740*%
%ADD14C,0.0700*%
%ADD15C,0.0660*%
%ADD16R,0.0650X0.0650*%
%ADD17C,0.0885*%
%ADD18OC8,0.2000*%
%ADD19C,0.0650*%
D10*
X000850Y000350D02*
X000850Y038346D01*
X049720Y038346D01*
X049720Y000350D01*
X000850Y000350D01*
X001720Y001850D02*
X001722Y001900D01*
X001728Y001950D01*
X001738Y001999D01*
X001752Y002047D01*
X001769Y002094D01*
X001790Y002139D01*
X001815Y002183D01*
X001843Y002224D01*
X001875Y002263D01*
X001909Y002300D01*
X001946Y002334D01*
X001986Y002364D01*
X002028Y002391D01*
X002072Y002415D01*
X002118Y002436D01*
X002165Y002452D01*
X002213Y002465D01*
X002263Y002474D01*
X002312Y002479D01*
X002363Y002480D01*
X002413Y002477D01*
X002462Y002470D01*
X002511Y002459D01*
X002559Y002444D01*
X002605Y002426D01*
X002650Y002404D01*
X002693Y002378D01*
X002734Y002349D01*
X002773Y002317D01*
X002809Y002282D01*
X002841Y002244D01*
X002871Y002204D01*
X002898Y002161D01*
X002921Y002117D01*
X002940Y002071D01*
X002956Y002023D01*
X002968Y001974D01*
X002976Y001925D01*
X002980Y001875D01*
X002980Y001825D01*
X002976Y001775D01*
X002968Y001726D01*
X002956Y001677D01*
X002940Y001629D01*
X002921Y001583D01*
X002898Y001539D01*
X002871Y001496D01*
X002841Y001456D01*
X002809Y001418D01*
X002773Y001383D01*
X002734Y001351D01*
X002693Y001322D01*
X002650Y001296D01*
X002605Y001274D01*
X002559Y001256D01*
X002511Y001241D01*
X002462Y001230D01*
X002413Y001223D01*
X002363Y001220D01*
X002312Y001221D01*
X002263Y001226D01*
X002213Y001235D01*
X002165Y001248D01*
X002118Y001264D01*
X002072Y001285D01*
X002028Y001309D01*
X001986Y001336D01*
X001946Y001366D01*
X001909Y001400D01*
X001875Y001437D01*
X001843Y001476D01*
X001815Y001517D01*
X001790Y001561D01*
X001769Y001606D01*
X001752Y001653D01*
X001738Y001701D01*
X001728Y001750D01*
X001722Y001800D01*
X001720Y001850D01*
X024220Y017850D02*
X024222Y017900D01*
X024228Y017950D01*
X024238Y017999D01*
X024252Y018047D01*
X024269Y018094D01*
X024290Y018139D01*
X024315Y018183D01*
X024343Y018224D01*
X024375Y018263D01*
X024409Y018300D01*
X024446Y018334D01*
X024486Y018364D01*
X024528Y018391D01*
X024572Y018415D01*
X024618Y018436D01*
X024665Y018452D01*
X024713Y018465D01*
X024763Y018474D01*
X024812Y018479D01*
X024863Y018480D01*
X024913Y018477D01*
X024962Y018470D01*
X025011Y018459D01*
X025059Y018444D01*
X025105Y018426D01*
X025150Y018404D01*
X025193Y018378D01*
X025234Y018349D01*
X025273Y018317D01*
X025309Y018282D01*
X025341Y018244D01*
X025371Y018204D01*
X025398Y018161D01*
X025421Y018117D01*
X025440Y018071D01*
X025456Y018023D01*
X025468Y017974D01*
X025476Y017925D01*
X025480Y017875D01*
X025480Y017825D01*
X025476Y017775D01*
X025468Y017726D01*
X025456Y017677D01*
X025440Y017629D01*
X025421Y017583D01*
X025398Y017539D01*
X025371Y017496D01*
X025341Y017456D01*
X025309Y017418D01*
X025273Y017383D01*
X025234Y017351D01*
X025193Y017322D01*
X025150Y017296D01*
X025105Y017274D01*
X025059Y017256D01*
X025011Y017241D01*
X024962Y017230D01*
X024913Y017223D01*
X024863Y017220D01*
X024812Y017221D01*
X024763Y017226D01*
X024713Y017235D01*
X024665Y017248D01*
X024618Y017264D01*
X024572Y017285D01*
X024528Y017309D01*
X024486Y017336D01*
X024446Y017366D01*
X024409Y017400D01*
X024375Y017437D01*
X024343Y017476D01*
X024315Y017517D01*
X024290Y017561D01*
X024269Y017606D01*
X024252Y017653D01*
X024238Y017701D01*
X024228Y017750D01*
X024222Y017800D01*
X024220Y017850D01*
X032220Y010850D02*
X032222Y010900D01*
X032228Y010950D01*
X032238Y010999D01*
X032252Y011047D01*
X032269Y011094D01*
X032290Y011139D01*
X032315Y011183D01*
X032343Y011224D01*
X032375Y011263D01*
X032409Y011300D01*
X032446Y011334D01*
X032486Y011364D01*
X032528Y011391D01*
X032572Y011415D01*
X032618Y011436D01*
X032665Y011452D01*
X032713Y011465D01*
X032763Y011474D01*
X032812Y011479D01*
X032863Y011480D01*
X032913Y011477D01*
X032962Y011470D01*
X033011Y011459D01*
X033059Y011444D01*
X033105Y011426D01*
X033150Y011404D01*
X033193Y011378D01*
X033234Y011349D01*
X033273Y011317D01*
X033309Y011282D01*
X033341Y011244D01*
X033371Y011204D01*
X033398Y011161D01*
X033421Y011117D01*
X033440Y011071D01*
X033456Y011023D01*
X033468Y010974D01*
X033476Y010925D01*
X033480Y010875D01*
X033480Y010825D01*
X033476Y010775D01*
X033468Y010726D01*
X033456Y010677D01*
X033440Y010629D01*
X033421Y010583D01*
X033398Y010539D01*
X033371Y010496D01*
X033341Y010456D01*
X033309Y010418D01*
X033273Y010383D01*
X033234Y010351D01*
X033193Y010322D01*
X033150Y010296D01*
X033105Y010274D01*
X033059Y010256D01*
X033011Y010241D01*
X032962Y010230D01*
X032913Y010223D01*
X032863Y010220D01*
X032812Y010221D01*
X032763Y010226D01*
X032713Y010235D01*
X032665Y010248D01*
X032618Y010264D01*
X032572Y010285D01*
X032528Y010309D01*
X032486Y010336D01*
X032446Y010366D01*
X032409Y010400D01*
X032375Y010437D01*
X032343Y010476D01*
X032315Y010517D01*
X032290Y010561D01*
X032269Y010606D01*
X032252Y010653D01*
X032238Y010701D01*
X032228Y010750D01*
X032222Y010800D01*
X032220Y010850D01*
X039300Y011350D02*
X039302Y011397D01*
X039308Y011443D01*
X039318Y011489D01*
X039331Y011533D01*
X039349Y011577D01*
X039370Y011618D01*
X039394Y011658D01*
X039422Y011696D01*
X039453Y011731D01*
X039487Y011763D01*
X039523Y011792D01*
X039562Y011818D01*
X039602Y011841D01*
X039645Y011860D01*
X039689Y011876D01*
X039734Y011888D01*
X039780Y011896D01*
X039827Y011900D01*
X039873Y011900D01*
X039920Y011896D01*
X039966Y011888D01*
X040011Y011876D01*
X040055Y011860D01*
X040098Y011841D01*
X040138Y011818D01*
X040177Y011792D01*
X040213Y011763D01*
X040247Y011731D01*
X040278Y011696D01*
X040306Y011658D01*
X040330Y011618D01*
X040351Y011577D01*
X040369Y011533D01*
X040382Y011489D01*
X040392Y011443D01*
X040398Y011397D01*
X040400Y011350D01*
X040398Y011303D01*
X040392Y011257D01*
X040382Y011211D01*
X040369Y011167D01*
X040351Y011123D01*
X040330Y011082D01*
X040306Y011042D01*
X040278Y011004D01*
X040247Y010969D01*
X040213Y010937D01*
X040177Y010908D01*
X040138Y010882D01*
X040098Y010859D01*
X040055Y010840D01*
X040011Y010824D01*
X039966Y010812D01*
X039920Y010804D01*
X039873Y010800D01*
X039827Y010800D01*
X039780Y010804D01*
X039734Y010812D01*
X039689Y010824D01*
X039645Y010840D01*
X039602Y010859D01*
X039562Y010882D01*
X039523Y010908D01*
X039487Y010937D01*
X039453Y010969D01*
X039422Y011004D01*
X039394Y011042D01*
X039370Y011082D01*
X039349Y011123D01*
X039331Y011167D01*
X039318Y011211D01*
X039308Y011257D01*
X039302Y011303D01*
X039300Y011350D01*
X047220Y001850D02*
X047222Y001900D01*
X047228Y001950D01*
X047238Y001999D01*
X047252Y002047D01*
X047269Y002094D01*
X047290Y002139D01*
X047315Y002183D01*
X047343Y002224D01*
X047375Y002263D01*
X047409Y002300D01*
X047446Y002334D01*
X047486Y002364D01*
X047528Y002391D01*
X047572Y002415D01*
X047618Y002436D01*
X047665Y002452D01*
X047713Y002465D01*
X047763Y002474D01*
X047812Y002479D01*
X047863Y002480D01*
X047913Y002477D01*
X047962Y002470D01*
X048011Y002459D01*
X048059Y002444D01*
X048105Y002426D01*
X048150Y002404D01*
X048193Y002378D01*
X048234Y002349D01*
X048273Y002317D01*
X048309Y002282D01*
X048341Y002244D01*
X048371Y002204D01*
X048398Y002161D01*
X048421Y002117D01*
X048440Y002071D01*
X048456Y002023D01*
X048468Y001974D01*
X048476Y001925D01*
X048480Y001875D01*
X048480Y001825D01*
X048476Y001775D01*
X048468Y001726D01*
X048456Y001677D01*
X048440Y001629D01*
X048421Y001583D01*
X048398Y001539D01*
X048371Y001496D01*
X048341Y001456D01*
X048309Y001418D01*
X048273Y001383D01*
X048234Y001351D01*
X048193Y001322D01*
X048150Y001296D01*
X048105Y001274D01*
X048059Y001256D01*
X048011Y001241D01*
X047962Y001230D01*
X047913Y001223D01*
X047863Y001220D01*
X047812Y001221D01*
X047763Y001226D01*
X047713Y001235D01*
X047665Y001248D01*
X047618Y001264D01*
X047572Y001285D01*
X047528Y001309D01*
X047486Y001336D01*
X047446Y001366D01*
X047409Y001400D01*
X047375Y001437D01*
X047343Y001476D01*
X047315Y001517D01*
X047290Y001561D01*
X047269Y001606D01*
X047252Y001653D01*
X047238Y001701D01*
X047228Y001750D01*
X047222Y001800D01*
X047220Y001850D01*
X038220Y024350D02*
X038222Y024400D01*
X038228Y024450D01*
X038238Y024499D01*
X038252Y024547D01*
X038269Y024594D01*
X038290Y024639D01*
X038315Y024683D01*
X038343Y024724D01*
X038375Y024763D01*
X038409Y024800D01*
X038446Y024834D01*
X038486Y024864D01*
X038528Y024891D01*
X038572Y024915D01*
X038618Y024936D01*
X038665Y024952D01*
X038713Y024965D01*
X038763Y024974D01*
X038812Y024979D01*
X038863Y024980D01*
X038913Y024977D01*
X038962Y024970D01*
X039011Y024959D01*
X039059Y024944D01*
X039105Y024926D01*
X039150Y024904D01*
X039193Y024878D01*
X039234Y024849D01*
X039273Y024817D01*
X039309Y024782D01*
X039341Y024744D01*
X039371Y024704D01*
X039398Y024661D01*
X039421Y024617D01*
X039440Y024571D01*
X039456Y024523D01*
X039468Y024474D01*
X039476Y024425D01*
X039480Y024375D01*
X039480Y024325D01*
X039476Y024275D01*
X039468Y024226D01*
X039456Y024177D01*
X039440Y024129D01*
X039421Y024083D01*
X039398Y024039D01*
X039371Y023996D01*
X039341Y023956D01*
X039309Y023918D01*
X039273Y023883D01*
X039234Y023851D01*
X039193Y023822D01*
X039150Y023796D01*
X039105Y023774D01*
X039059Y023756D01*
X039011Y023741D01*
X038962Y023730D01*
X038913Y023723D01*
X038863Y023720D01*
X038812Y023721D01*
X038763Y023726D01*
X038713Y023735D01*
X038665Y023748D01*
X038618Y023764D01*
X038572Y023785D01*
X038528Y023809D01*
X038486Y023836D01*
X038446Y023866D01*
X038409Y023900D01*
X038375Y023937D01*
X038343Y023976D01*
X038315Y024017D01*
X038290Y024061D01*
X038269Y024106D01*
X038252Y024153D01*
X038238Y024201D01*
X038228Y024250D01*
X038222Y024300D01*
X038220Y024350D01*
X039800Y031350D02*
X039802Y031397D01*
X039808Y031443D01*
X039818Y031489D01*
X039831Y031533D01*
X039849Y031577D01*
X039870Y031618D01*
X039894Y031658D01*
X039922Y031696D01*
X039953Y031731D01*
X039987Y031763D01*
X040023Y031792D01*
X040062Y031818D01*
X040102Y031841D01*
X040145Y031860D01*
X040189Y031876D01*
X040234Y031888D01*
X040280Y031896D01*
X040327Y031900D01*
X040373Y031900D01*
X040420Y031896D01*
X040466Y031888D01*
X040511Y031876D01*
X040555Y031860D01*
X040598Y031841D01*
X040638Y031818D01*
X040677Y031792D01*
X040713Y031763D01*
X040747Y031731D01*
X040778Y031696D01*
X040806Y031658D01*
X040830Y031618D01*
X040851Y031577D01*
X040869Y031533D01*
X040882Y031489D01*
X040892Y031443D01*
X040898Y031397D01*
X040900Y031350D01*
X040898Y031303D01*
X040892Y031257D01*
X040882Y031211D01*
X040869Y031167D01*
X040851Y031123D01*
X040830Y031082D01*
X040806Y031042D01*
X040778Y031004D01*
X040747Y030969D01*
X040713Y030937D01*
X040677Y030908D01*
X040638Y030882D01*
X040598Y030859D01*
X040555Y030840D01*
X040511Y030824D01*
X040466Y030812D01*
X040420Y030804D01*
X040373Y030800D01*
X040327Y030800D01*
X040280Y030804D01*
X040234Y030812D01*
X040189Y030824D01*
X040145Y030840D01*
X040102Y030859D01*
X040062Y030882D01*
X040023Y030908D01*
X039987Y030937D01*
X039953Y030969D01*
X039922Y031004D01*
X039894Y031042D01*
X039870Y031082D01*
X039849Y031123D01*
X039831Y031167D01*
X039818Y031211D01*
X039808Y031257D01*
X039802Y031303D01*
X039800Y031350D01*
X030220Y031350D02*
X030222Y031400D01*
X030228Y031450D01*
X030238Y031499D01*
X030252Y031547D01*
X030269Y031594D01*
X030290Y031639D01*
X030315Y031683D01*
X030343Y031724D01*
X030375Y031763D01*
X030409Y031800D01*
X030446Y031834D01*
X030486Y031864D01*
X030528Y031891D01*
X030572Y031915D01*
X030618Y031936D01*
X030665Y031952D01*
X030713Y031965D01*
X030763Y031974D01*
X030812Y031979D01*
X030863Y031980D01*
X030913Y031977D01*
X030962Y031970D01*
X031011Y031959D01*
X031059Y031944D01*
X031105Y031926D01*
X031150Y031904D01*
X031193Y031878D01*
X031234Y031849D01*
X031273Y031817D01*
X031309Y031782D01*
X031341Y031744D01*
X031371Y031704D01*
X031398Y031661D01*
X031421Y031617D01*
X031440Y031571D01*
X031456Y031523D01*
X031468Y031474D01*
X031476Y031425D01*
X031480Y031375D01*
X031480Y031325D01*
X031476Y031275D01*
X031468Y031226D01*
X031456Y031177D01*
X031440Y031129D01*
X031421Y031083D01*
X031398Y031039D01*
X031371Y030996D01*
X031341Y030956D01*
X031309Y030918D01*
X031273Y030883D01*
X031234Y030851D01*
X031193Y030822D01*
X031150Y030796D01*
X031105Y030774D01*
X031059Y030756D01*
X031011Y030741D01*
X030962Y030730D01*
X030913Y030723D01*
X030863Y030720D01*
X030812Y030721D01*
X030763Y030726D01*
X030713Y030735D01*
X030665Y030748D01*
X030618Y030764D01*
X030572Y030785D01*
X030528Y030809D01*
X030486Y030836D01*
X030446Y030866D01*
X030409Y030900D01*
X030375Y030937D01*
X030343Y030976D01*
X030315Y031017D01*
X030290Y031061D01*
X030269Y031106D01*
X030252Y031153D01*
X030238Y031201D01*
X030228Y031250D01*
X030222Y031300D01*
X030220Y031350D01*
X019706Y028850D02*
X019708Y028889D01*
X019714Y028928D01*
X019724Y028966D01*
X019737Y029003D01*
X019754Y029038D01*
X019774Y029072D01*
X019798Y029103D01*
X019825Y029132D01*
X019854Y029158D01*
X019886Y029181D01*
X019920Y029201D01*
X019956Y029217D01*
X019993Y029229D01*
X020032Y029238D01*
X020071Y029243D01*
X020110Y029244D01*
X020149Y029241D01*
X020188Y029234D01*
X020225Y029223D01*
X020262Y029209D01*
X020297Y029191D01*
X020330Y029170D01*
X020361Y029145D01*
X020389Y029118D01*
X020414Y029088D01*
X020436Y029055D01*
X020455Y029021D01*
X020470Y028985D01*
X020482Y028947D01*
X020490Y028909D01*
X020494Y028870D01*
X020494Y028830D01*
X020490Y028791D01*
X020482Y028753D01*
X020470Y028715D01*
X020455Y028679D01*
X020436Y028645D01*
X020414Y028612D01*
X020389Y028582D01*
X020361Y028555D01*
X020330Y028530D01*
X020297Y028509D01*
X020262Y028491D01*
X020225Y028477D01*
X020188Y028466D01*
X020149Y028459D01*
X020110Y028456D01*
X020071Y028457D01*
X020032Y028462D01*
X019993Y028471D01*
X019956Y028483D01*
X019920Y028499D01*
X019886Y028519D01*
X019854Y028542D01*
X019825Y028568D01*
X019798Y028597D01*
X019774Y028628D01*
X019754Y028662D01*
X019737Y028697D01*
X019724Y028734D01*
X019714Y028772D01*
X019708Y028811D01*
X019706Y028850D01*
X019706Y028100D02*
X019708Y028139D01*
X019714Y028178D01*
X019724Y028216D01*
X019737Y028253D01*
X019754Y028288D01*
X019774Y028322D01*
X019798Y028353D01*
X019825Y028382D01*
X019854Y028408D01*
X019886Y028431D01*
X019920Y028451D01*
X019956Y028467D01*
X019993Y028479D01*
X020032Y028488D01*
X020071Y028493D01*
X020110Y028494D01*
X020149Y028491D01*
X020188Y028484D01*
X020225Y028473D01*
X020262Y028459D01*
X020297Y028441D01*
X020330Y028420D01*
X020361Y028395D01*
X020389Y028368D01*
X020414Y028338D01*
X020436Y028305D01*
X020455Y028271D01*
X020470Y028235D01*
X020482Y028197D01*
X020490Y028159D01*
X020494Y028120D01*
X020494Y028080D01*
X020490Y028041D01*
X020482Y028003D01*
X020470Y027965D01*
X020455Y027929D01*
X020436Y027895D01*
X020414Y027862D01*
X020389Y027832D01*
X020361Y027805D01*
X020330Y027780D01*
X020297Y027759D01*
X020262Y027741D01*
X020225Y027727D01*
X020188Y027716D01*
X020149Y027709D01*
X020110Y027706D01*
X020071Y027707D01*
X020032Y027712D01*
X019993Y027721D01*
X019956Y027733D01*
X019920Y027749D01*
X019886Y027769D01*
X019854Y027792D01*
X019825Y027818D01*
X019798Y027847D01*
X019774Y027878D01*
X019754Y027912D01*
X019737Y027947D01*
X019724Y027984D01*
X019714Y028022D01*
X019708Y028061D01*
X019706Y028100D01*
X013456Y027850D02*
X013458Y027889D01*
X013464Y027928D01*
X013474Y027966D01*
X013487Y028003D01*
X013504Y028038D01*
X013524Y028072D01*
X013548Y028103D01*
X013575Y028132D01*
X013604Y028158D01*
X013636Y028181D01*
X013670Y028201D01*
X013706Y028217D01*
X013743Y028229D01*
X013782Y028238D01*
X013821Y028243D01*
X013860Y028244D01*
X013899Y028241D01*
X013938Y028234D01*
X013975Y028223D01*
X014012Y028209D01*
X014047Y028191D01*
X014080Y028170D01*
X014111Y028145D01*
X014139Y028118D01*
X014164Y028088D01*
X014186Y028055D01*
X014205Y028021D01*
X014220Y027985D01*
X014232Y027947D01*
X014240Y027909D01*
X014244Y027870D01*
X014244Y027830D01*
X014240Y027791D01*
X014232Y027753D01*
X014220Y027715D01*
X014205Y027679D01*
X014186Y027645D01*
X014164Y027612D01*
X014139Y027582D01*
X014111Y027555D01*
X014080Y027530D01*
X014047Y027509D01*
X014012Y027491D01*
X013975Y027477D01*
X013938Y027466D01*
X013899Y027459D01*
X013860Y027456D01*
X013821Y027457D01*
X013782Y027462D01*
X013743Y027471D01*
X013706Y027483D01*
X013670Y027499D01*
X013636Y027519D01*
X013604Y027542D01*
X013575Y027568D01*
X013548Y027597D01*
X013524Y027628D01*
X013504Y027662D01*
X013487Y027697D01*
X013474Y027734D01*
X013464Y027772D01*
X013458Y027811D01*
X013456Y027850D01*
X012706Y027850D02*
X012708Y027889D01*
X012714Y027928D01*
X012724Y027966D01*
X012737Y028003D01*
X012754Y028038D01*
X012774Y028072D01*
X012798Y028103D01*
X012825Y028132D01*
X012854Y028158D01*
X012886Y028181D01*
X012920Y028201D01*
X012956Y028217D01*
X012993Y028229D01*
X013032Y028238D01*
X013071Y028243D01*
X013110Y028244D01*
X013149Y028241D01*
X013188Y028234D01*
X013225Y028223D01*
X013262Y028209D01*
X013297Y028191D01*
X013330Y028170D01*
X013361Y028145D01*
X013389Y028118D01*
X013414Y028088D01*
X013436Y028055D01*
X013455Y028021D01*
X013470Y027985D01*
X013482Y027947D01*
X013490Y027909D01*
X013494Y027870D01*
X013494Y027830D01*
X013490Y027791D01*
X013482Y027753D01*
X013470Y027715D01*
X013455Y027679D01*
X013436Y027645D01*
X013414Y027612D01*
X013389Y027582D01*
X013361Y027555D01*
X013330Y027530D01*
X013297Y027509D01*
X013262Y027491D01*
X013225Y027477D01*
X013188Y027466D01*
X013149Y027459D01*
X013110Y027456D01*
X013071Y027457D01*
X013032Y027462D01*
X012993Y027471D01*
X012956Y027483D01*
X012920Y027499D01*
X012886Y027519D01*
X012854Y027542D01*
X012825Y027568D01*
X012798Y027597D01*
X012774Y027628D01*
X012754Y027662D01*
X012737Y027697D01*
X012724Y027734D01*
X012714Y027772D01*
X012708Y027811D01*
X012706Y027850D01*
X012706Y034850D02*
X012708Y034889D01*
X012714Y034928D01*
X012724Y034966D01*
X012737Y035003D01*
X012754Y035038D01*
X012774Y035072D01*
X012798Y035103D01*
X012825Y035132D01*
X012854Y035158D01*
X012886Y035181D01*
X012920Y035201D01*
X012956Y035217D01*
X012993Y035229D01*
X013032Y035238D01*
X013071Y035243D01*
X013110Y035244D01*
X013149Y035241D01*
X013188Y035234D01*
X013225Y035223D01*
X013262Y035209D01*
X013297Y035191D01*
X013330Y035170D01*
X013361Y035145D01*
X013389Y035118D01*
X013414Y035088D01*
X013436Y035055D01*
X013455Y035021D01*
X013470Y034985D01*
X013482Y034947D01*
X013490Y034909D01*
X013494Y034870D01*
X013494Y034830D01*
X013490Y034791D01*
X013482Y034753D01*
X013470Y034715D01*
X013455Y034679D01*
X013436Y034645D01*
X013414Y034612D01*
X013389Y034582D01*
X013361Y034555D01*
X013330Y034530D01*
X013297Y034509D01*
X013262Y034491D01*
X013225Y034477D01*
X013188Y034466D01*
X013149Y034459D01*
X013110Y034456D01*
X013071Y034457D01*
X013032Y034462D01*
X012993Y034471D01*
X012956Y034483D01*
X012920Y034499D01*
X012886Y034519D01*
X012854Y034542D01*
X012825Y034568D01*
X012798Y034597D01*
X012774Y034628D01*
X012754Y034662D01*
X012737Y034697D01*
X012724Y034734D01*
X012714Y034772D01*
X012708Y034811D01*
X012706Y034850D01*
X013456Y034850D02*
X013458Y034889D01*
X013464Y034928D01*
X013474Y034966D01*
X013487Y035003D01*
X013504Y035038D01*
X013524Y035072D01*
X013548Y035103D01*
X013575Y035132D01*
X013604Y035158D01*
X013636Y035181D01*
X013670Y035201D01*
X013706Y035217D01*
X013743Y035229D01*
X013782Y035238D01*
X013821Y035243D01*
X013860Y035244D01*
X013899Y035241D01*
X013938Y035234D01*
X013975Y035223D01*
X014012Y035209D01*
X014047Y035191D01*
X014080Y035170D01*
X014111Y035145D01*
X014139Y035118D01*
X014164Y035088D01*
X014186Y035055D01*
X014205Y035021D01*
X014220Y034985D01*
X014232Y034947D01*
X014240Y034909D01*
X014244Y034870D01*
X014244Y034830D01*
X014240Y034791D01*
X014232Y034753D01*
X014220Y034715D01*
X014205Y034679D01*
X014186Y034645D01*
X014164Y034612D01*
X014139Y034582D01*
X014111Y034555D01*
X014080Y034530D01*
X014047Y034509D01*
X014012Y034491D01*
X013975Y034477D01*
X013938Y034466D01*
X013899Y034459D01*
X013860Y034456D01*
X013821Y034457D01*
X013782Y034462D01*
X013743Y034471D01*
X013706Y034483D01*
X013670Y034499D01*
X013636Y034519D01*
X013604Y034542D01*
X013575Y034568D01*
X013548Y034597D01*
X013524Y034628D01*
X013504Y034662D01*
X013487Y034697D01*
X013474Y034734D01*
X013464Y034772D01*
X013458Y034811D01*
X013456Y034850D01*
X018456Y034850D02*
X018458Y034889D01*
X018464Y034928D01*
X018474Y034966D01*
X018487Y035003D01*
X018504Y035038D01*
X018524Y035072D01*
X018548Y035103D01*
X018575Y035132D01*
X018604Y035158D01*
X018636Y035181D01*
X018670Y035201D01*
X018706Y035217D01*
X018743Y035229D01*
X018782Y035238D01*
X018821Y035243D01*
X018860Y035244D01*
X018899Y035241D01*
X018938Y035234D01*
X018975Y035223D01*
X019012Y035209D01*
X019047Y035191D01*
X019080Y035170D01*
X019111Y035145D01*
X019139Y035118D01*
X019164Y035088D01*
X019186Y035055D01*
X019205Y035021D01*
X019220Y034985D01*
X019232Y034947D01*
X019240Y034909D01*
X019244Y034870D01*
X019244Y034830D01*
X019240Y034791D01*
X019232Y034753D01*
X019220Y034715D01*
X019205Y034679D01*
X019186Y034645D01*
X019164Y034612D01*
X019139Y034582D01*
X019111Y034555D01*
X019080Y034530D01*
X019047Y034509D01*
X019012Y034491D01*
X018975Y034477D01*
X018938Y034466D01*
X018899Y034459D01*
X018860Y034456D01*
X018821Y034457D01*
X018782Y034462D01*
X018743Y034471D01*
X018706Y034483D01*
X018670Y034499D01*
X018636Y034519D01*
X018604Y034542D01*
X018575Y034568D01*
X018548Y034597D01*
X018524Y034628D01*
X018504Y034662D01*
X018487Y034697D01*
X018474Y034734D01*
X018464Y034772D01*
X018458Y034811D01*
X018456Y034850D01*
X019206Y034850D02*
X019208Y034889D01*
X019214Y034928D01*
X019224Y034966D01*
X019237Y035003D01*
X019254Y035038D01*
X019274Y035072D01*
X019298Y035103D01*
X019325Y035132D01*
X019354Y035158D01*
X019386Y035181D01*
X019420Y035201D01*
X019456Y035217D01*
X019493Y035229D01*
X019532Y035238D01*
X019571Y035243D01*
X019610Y035244D01*
X019649Y035241D01*
X019688Y035234D01*
X019725Y035223D01*
X019762Y035209D01*
X019797Y035191D01*
X019830Y035170D01*
X019861Y035145D01*
X019889Y035118D01*
X019914Y035088D01*
X019936Y035055D01*
X019955Y035021D01*
X019970Y034985D01*
X019982Y034947D01*
X019990Y034909D01*
X019994Y034870D01*
X019994Y034830D01*
X019990Y034791D01*
X019982Y034753D01*
X019970Y034715D01*
X019955Y034679D01*
X019936Y034645D01*
X019914Y034612D01*
X019889Y034582D01*
X019861Y034555D01*
X019830Y034530D01*
X019797Y034509D01*
X019762Y034491D01*
X019725Y034477D01*
X019688Y034466D01*
X019649Y034459D01*
X019610Y034456D01*
X019571Y034457D01*
X019532Y034462D01*
X019493Y034471D01*
X019456Y034483D01*
X019420Y034499D01*
X019386Y034519D01*
X019354Y034542D01*
X019325Y034568D01*
X019298Y034597D01*
X019274Y034628D01*
X019254Y034662D01*
X019237Y034697D01*
X019224Y034734D01*
X019214Y034772D01*
X019208Y034811D01*
X019206Y034850D01*
X001720Y036350D02*
X001722Y036400D01*
X001728Y036450D01*
X001738Y036499D01*
X001752Y036547D01*
X001769Y036594D01*
X001790Y036639D01*
X001815Y036683D01*
X001843Y036724D01*
X001875Y036763D01*
X001909Y036800D01*
X001946Y036834D01*
X001986Y036864D01*
X002028Y036891D01*
X002072Y036915D01*
X002118Y036936D01*
X002165Y036952D01*
X002213Y036965D01*
X002263Y036974D01*
X002312Y036979D01*
X002363Y036980D01*
X002413Y036977D01*
X002462Y036970D01*
X002511Y036959D01*
X002559Y036944D01*
X002605Y036926D01*
X002650Y036904D01*
X002693Y036878D01*
X002734Y036849D01*
X002773Y036817D01*
X002809Y036782D01*
X002841Y036744D01*
X002871Y036704D01*
X002898Y036661D01*
X002921Y036617D01*
X002940Y036571D01*
X002956Y036523D01*
X002968Y036474D01*
X002976Y036425D01*
X002980Y036375D01*
X002980Y036325D01*
X002976Y036275D01*
X002968Y036226D01*
X002956Y036177D01*
X002940Y036129D01*
X002921Y036083D01*
X002898Y036039D01*
X002871Y035996D01*
X002841Y035956D01*
X002809Y035918D01*
X002773Y035883D01*
X002734Y035851D01*
X002693Y035822D01*
X002650Y035796D01*
X002605Y035774D01*
X002559Y035756D01*
X002511Y035741D01*
X002462Y035730D01*
X002413Y035723D01*
X002363Y035720D01*
X002312Y035721D01*
X002263Y035726D01*
X002213Y035735D01*
X002165Y035748D01*
X002118Y035764D01*
X002072Y035785D01*
X002028Y035809D01*
X001986Y035836D01*
X001946Y035866D01*
X001909Y035900D01*
X001875Y035937D01*
X001843Y035976D01*
X001815Y036017D01*
X001790Y036061D01*
X001769Y036106D01*
X001752Y036153D01*
X001738Y036201D01*
X001728Y036250D01*
X001722Y036300D01*
X001720Y036350D01*
X047720Y036350D02*
X047722Y036400D01*
X047728Y036450D01*
X047738Y036499D01*
X047752Y036547D01*
X047769Y036594D01*
X047790Y036639D01*
X047815Y036683D01*
X047843Y036724D01*
X047875Y036763D01*
X047909Y036800D01*
X047946Y036834D01*
X047986Y036864D01*
X048028Y036891D01*
X048072Y036915D01*
X048118Y036936D01*
X048165Y036952D01*
X048213Y036965D01*
X048263Y036974D01*
X048312Y036979D01*
X048363Y036980D01*
X048413Y036977D01*
X048462Y036970D01*
X048511Y036959D01*
X048559Y036944D01*
X048605Y036926D01*
X048650Y036904D01*
X048693Y036878D01*
X048734Y036849D01*
X048773Y036817D01*
X048809Y036782D01*
X048841Y036744D01*
X048871Y036704D01*
X048898Y036661D01*
X048921Y036617D01*
X048940Y036571D01*
X048956Y036523D01*
X048968Y036474D01*
X048976Y036425D01*
X048980Y036375D01*
X048980Y036325D01*
X048976Y036275D01*
X048968Y036226D01*
X048956Y036177D01*
X048940Y036129D01*
X048921Y036083D01*
X048898Y036039D01*
X048871Y035996D01*
X048841Y035956D01*
X048809Y035918D01*
X048773Y035883D01*
X048734Y035851D01*
X048693Y035822D01*
X048650Y035796D01*
X048605Y035774D01*
X048559Y035756D01*
X048511Y035741D01*
X048462Y035730D01*
X048413Y035723D01*
X048363Y035720D01*
X048312Y035721D01*
X048263Y035726D01*
X048213Y035735D01*
X048165Y035748D01*
X048118Y035764D01*
X048072Y035785D01*
X048028Y035809D01*
X047986Y035836D01*
X047946Y035866D01*
X047909Y035900D01*
X047875Y035937D01*
X047843Y035976D01*
X047815Y036017D01*
X047790Y036061D01*
X047769Y036106D01*
X047752Y036153D01*
X047738Y036201D01*
X047728Y036250D01*
X047722Y036300D01*
X047720Y036350D01*
D11*
X019150Y014350D02*
X018550Y014350D01*
X018550Y013350D02*
X019150Y013350D01*
X019150Y012350D02*
X018550Y012350D01*
X019350Y006150D02*
X019350Y005550D01*
X020350Y005550D02*
X020350Y006150D01*
X021350Y006150D02*
X021350Y005550D01*
X009150Y015100D02*
X008550Y015100D01*
X008550Y016600D02*
X009150Y016600D01*
X009150Y018100D02*
X008550Y018100D01*
X008550Y019600D02*
X009150Y019600D01*
X009150Y022600D02*
X008550Y022600D01*
X008550Y024100D02*
X009150Y024100D01*
X009150Y025600D02*
X008550Y025600D01*
X008550Y027100D02*
X009150Y027100D01*
D12*
X039350Y014350D02*
X040350Y014350D01*
X040350Y008350D02*
X039350Y008350D01*
X039850Y028350D02*
X040850Y028350D01*
X040850Y034350D02*
X039850Y034350D01*
D13*
X034850Y036350D03*
X028850Y022850D03*
X034850Y019350D03*
X028850Y005850D03*
X012850Y007850D03*
X009850Y007850D03*
X007850Y007850D03*
X004850Y007850D03*
D14*
X005366Y005306D02*
X005366Y004606D01*
X007334Y004606D02*
X007334Y005306D01*
X009866Y005306D02*
X009866Y004606D01*
X011834Y004606D02*
X011834Y005306D01*
X005306Y016366D02*
X004606Y016366D01*
X004606Y018334D02*
X005306Y018334D01*
X005306Y023866D02*
X004606Y023866D01*
X004606Y025834D02*
X005306Y025834D01*
X005106Y029866D02*
X005806Y029866D01*
X005806Y031834D02*
X005106Y031834D01*
X005106Y034366D02*
X005806Y034366D01*
X005806Y036334D02*
X005106Y036334D01*
X044394Y036334D02*
X045094Y036334D01*
X045094Y034366D02*
X044394Y034366D01*
X044394Y017334D02*
X045094Y017334D01*
X045094Y015366D02*
X044394Y015366D01*
D15*
X027350Y026850D03*
X024350Y034350D03*
X013850Y020350D03*
X013850Y012850D03*
D16*
X013850Y015850D03*
X006350Y010850D03*
X015850Y004850D03*
X013850Y023350D03*
X024350Y026850D03*
X027350Y034350D03*
D17*
X034408Y020850D02*
X035293Y020850D01*
X040408Y020850D02*
X041293Y020850D01*
X035293Y007350D02*
X034408Y007350D01*
X029293Y007350D02*
X028408Y007350D01*
D18*
X020070Y027280D03*
X020070Y029480D03*
X014640Y027790D03*
X012440Y027790D03*
X012440Y034910D03*
X014640Y034910D03*
X018060Y034910D03*
X020260Y034910D03*
D19*
X005350Y010850D03*
X015850Y005850D03*
M02*
